Monda-Bold.ufo
<glyph name="exclam" format="1">
  <advance width="648"/>
  <unicode hex="0021"/>
  <outline>
    <contour>
      <point x="192" y="0" type="line"/>
      <point x="442" y="0" type="line"/>
      <point x="442" y="245" type="line"/>
      <point x="192" y="245" type="line"/>
    </contour>
    <contour>
      <point x="280" y="410" type="curve"/>
      <point x="356" y="410" type="line"/>
      <point x="356" y="410"/>
      <point x="456" y="1359"/>
      <point x="456" y="1477" type="curve"/>
      <point x="197" y="1477" type="line"/>
      <point x="197" y="1359"/>
      <point x="280" y="410"/>
    </contour>
  </outline>
</glyph>
<glyph name="quotedbl" format="1">
  <advance width="1024"/>
  <unicode hex="0022"/>
  <outline>
    <contour>
      <point x="277" y="872" type="line"/>
      <point x="396" y="872" type="line"/>
      <point x="451" y="1516" type="line"/>
      <point x="198" y="1516" type="line"/>
    </contour>
    <contour>
      <point x="630" y="872" type="line"/>
      <point x="749" y="872" type="line"/>
      <point x="826" y="1516" type="line"/>
      <point x="572" y="1516" type="line"/>
    </contour>
  </outline>
</glyph>
<glyph name="numbersign" format="1">
  <advance width="1430"/>
  <unicode hex="0023"/>
  <outline>
    <contour>
      <point x="223" y="0" type="line"/>
      <point x="429" y="0" type="line"/>
      <point x="512" y="478" type="line"/>
      <point x="769" y="478" type="line"/>
      <point x="683" y="0" type="line"/>
      <point x="889" y="0" type="line"/>
      <point x="971" y="478" type="line"/>
      <point x="1244" y="478" type="line"/>
      <point x="1244" y="618" type="line"/>
      <point x="996" y="618" type="line"/>
      <point x="1044" y="896" type="line"/>
      <point x="1268" y="896" type="line"/>
      <point x="1268" y="1036" type="line"/>
      <point x="1069" y="1036" type="line"/>
      <point x="1145" y="1477" type="line"/>
      <point x="947" y="1477" type="line"/>
      <point x="868" y="1036" type="line"/>
      <point x="609" y="1036" type="line"/>
      <point x="685" y="1477" type="line"/>
      <point x="487" y="1477" type="line"/>
      <point x="408" y="1036" type="line"/>
      <point x="128" y="1036" type="line"/>
      <point x="128" y="896" type="line"/>
      <point x="384" y="896" type="line"/>
      <point x="334" y="618" type="line"/>
      <point x="104" y="618" type="line"/>
      <point x="104" y="478" type="line"/>
      <point x="309" y="478" type="line"/>
    </contour>
    <contour>
      <point x="536" y="618" type="line"/>
      <point x="584" y="896" type="line"/>
      <point x="843" y="896" type="line"/>
      <point x="793" y="618" type="line"/>
    </contour>
  </outline>
</glyph>
<glyph name="dollar" format="1">
  <advance width="1281"/>
  <unicode hex="0024"/>
  <outline>
    <contour>
      <point x="601" y="-242" type="line"/>
      <point x="711" y="-242" type="line"/>
      <point x="711" y="1638" type="line"/>
      <point x="601" y="1638" type="line"/>
    </contour>
    <component base="S"/>
  </outline>
</glyph>
<glyph name="percent" format="1">
  <advance width="2114"/>
  <unicode hex="0025"/>
  <outline>
    <contour>
      <point x="496" y="794" type="curve" smooth="yes"/>
      <point x="369" y="794"/>
      <point x="356" y="894"/>
      <point x="356" y="1029" type="curve" smooth="yes"/>
      <point x="356" y="1118" type="line" smooth="yes"/>
      <point x="356" y="1248"/>
      <point x="365" y="1337"/>
      <point x="496" y="1337" type="curve" smooth="yes"/>
      <point x="629" y="1337"/>
      <point x="638" y="1248"/>
      <point x="638" y="1116" type="curve" smooth="yes"/>
      <point x="638" y="1029" type="line" smooth="yes"/>
      <point x="638" y="894"/>
      <point x="623" y="794"/>
    </contour>
    <contour>
      <point x="496" y="664" type="curve" smooth="yes"/>
      <point x="726" y="664"/>
      <point x="801" y="814"/>
      <point x="801" y="1043" type="curve" smooth="yes"/>
      <point x="801" y="1097" type="line" smooth="yes"/>
      <point x="799" y="1330"/>
      <point x="726" y="1467"/>
      <point x="496" y="1467" type="curve" smooth="yes"/>
      <point x="265" y="1467"/>
      <point x="196" y="1329"/>
      <point x="196" y="1096" type="curve" smooth="yes"/>
      <point x="196" y="1043" type="line" smooth="yes"/>
      <point x="196" y="815"/>
      <point x="266" y="664"/>
    </contour>
    <contour>
      <point x="1614" y="111" type="curve" smooth="yes"/>
      <point x="1486" y="111"/>
      <point x="1473" y="211"/>
      <point x="1473" y="346" type="curve" smooth="yes"/>
      <point x="1473" y="435" type="line" smooth="yes"/>
      <point x="1473" y="565"/>
      <point x="1482" y="654"/>
      <point x="1614" y="654" type="curve" smooth="yes"/>
      <point x="1746" y="654"/>
      <point x="1755" y="565"/>
      <point x="1755" y="433" type="curve" smooth="yes"/>
      <point x="1755" y="346" type="line" smooth="yes"/>
      <point x="1755" y="211"/>
      <point x="1740" y="111"/>
    </contour>
    <contour>
      <point x="1614" y="-19" type="curve" smooth="yes"/>
      <point x="1844" y="-19"/>
      <point x="1918" y="131"/>
      <point x="1918" y="360" type="curve" smooth="yes"/>
      <point x="1918" y="414" type="line" smooth="yes"/>
      <point x="1916" y="647"/>
      <point x="1844" y="784"/>
      <point x="1614" y="784" type="curve" smooth="yes"/>
      <point x="1383" y="784"/>
      <point x="1313" y="646"/>
      <point x="1313" y="413" type="curve" smooth="yes"/>
      <point x="1313" y="360" type="line" smooth="yes"/>
      <point x="1313" y="132"/>
      <point x="1384" y="-19"/>
    </contour>
    <contour>
      <point x="694" y="0" type="line"/>
      <point x="872" y="0" type="line"/>
      <point x="1410" y="1446" type="line"/>
      <point x="1237" y="1446" type="line"/>
    </contour>
  </outline>
</glyph>
<glyph name="ampersand" format="1">
  <advance width="1526"/>
  <unicode hex="0026"/>
  <outline>
    <contour>
      <point x="734" y="-27" type="curve" smooth="yes"/>
      <point x="987" y="-27"/>
      <point x="1111" y="17"/>
      <point x="1186" y="103" type="curve"/>
      <point x="1314" y="-23" type="line"/>
      <point x="1474" y="150" type="line"/>
      <point x="1305" y="309" type="line"/>
      <point x="1323" y="367"/>
      <point x="1331" y="462"/>
      <point x="1331" y="549" type="curve" smooth="yes"/>
      <point x="1331" y="822" type="line"/>
      <point x="1096" y="822" type="line"/>
      <point x="1096" y="531" type="line" smooth="yes"/>
      <point x="1096" y="515"/>
      <point x="1096" y="514"/>
      <point x="1095" y="500" type="curve"/>
      <point x="638" y="951" type="line" smooth="yes"/>
      <point x="547" y="1046"/>
      <point x="521" y="1071"/>
      <point x="521" y="1149" type="curve" smooth="yes"/>
      <point x="521" y="1244"/>
      <point x="556" y="1305"/>
      <point x="759" y="1305" type="curve" smooth="yes"/>
      <point x="947" y="1305"/>
      <point x="1000" y="1290"/>
      <point x="1000" y="1152" type="curve" smooth="yes"/>
      <point x="1000" y="1110" type="line"/>
      <point x="1238" y="1110" type="line"/>
      <point x="1238" y="1193" type="line" smooth="yes"/>
      <point x="1238" y="1429"/>
      <point x="1101" y="1506"/>
      <point x="751" y="1506" type="curve" smooth="yes"/>
      <point x="390" y="1506"/>
      <point x="257" y="1395"/>
      <point x="257" y="1165" type="curve" smooth="yes"/>
      <point x="257" y="1011"/>
      <point x="327" y="922"/>
      <point x="432" y="825" type="curve"/>
      <point x="237" y="767"/>
      <point x="148" y="661"/>
      <point x="148" y="460" type="curve" smooth="yes"/>
      <point x="148" y="108"/>
      <point x="291" y="-27"/>
    </contour>
    <contour>
      <point x="734" y="195" type="curve" smooth="yes"/>
      <point x="478" y="195"/>
      <point x="420" y="260"/>
      <point x="420" y="466" type="curve" smooth="yes"/>
      <point x="420" y="588"/>
      <point x="423" y="668"/>
      <point x="559" y="704" type="curve"/>
      <point x="993" y="279" type="line"/>
      <point x="957" y="198"/>
      <point x="843" y="195"/>
    </contour>
  </outline>
</glyph>
<glyph name="parenleft" format="1">
  <advance width="946"/>
  <unicode hex="0028"/>
  <outline>
    <contour>
      <point x="782" y="-159" type="curve"/>
      <point x="782" y="56" type="line"/>
      <point x="574" y="56"/>
      <point x="487" y="121"/>
      <point x="487" y="390" type="curve" smooth="yes"/>
      <point x="487" y="1020" type="line" smooth="yes"/>
      <point x="487" y="1291"/>
      <point x="576" y="1359"/>
      <point x="782" y="1359" type="curve"/>
      <point x="782" y="1575" type="line"/>
      <point x="344" y="1576"/>
      <point x="208" y="1342"/>
      <point x="208" y="986" type="curve" smooth="yes"/>
      <point x="208" y="420" type="line" smooth="yes"/>
      <point x="208" y="67"/>
      <point x="345" y="-160"/>
    </contour>
  </outline>
</glyph>
<glyph name="parenright" format="1">
  <advance width="946"/>
  <unicode hex="0029"/>
  <outline>
    <contour>
      <point x="181" y="-159" type="line"/>
      <point x="619" y="-160"/>
      <point x="754" y="74"/>
      <point x="754" y="430" type="curve" smooth="yes"/>
      <point x="754" y="996" type="line" smooth="yes"/>
      <point x="754" y="1349"/>
      <point x="618" y="1576"/>
      <point x="181" y="1575" type="curve"/>
      <point x="181" y="1359" type="line"/>
      <point x="389" y="1359"/>
      <point x="476" y="1295"/>
      <point x="476" y="1025" type="curve" smooth="yes"/>
      <point x="476" y="395" type="line" smooth="yes"/>
      <point x="476" y="125"/>
      <point x="387" y="57"/>
      <point x="181" y="57" type="curve"/>
    </contour>
  </outline>
</glyph>
<glyph name="asterisk" format="1">
  <advance width="998"/>
  <unicode hex="002A"/>
  <outline>
    <contour>
      <point x="410" y="599" type="line"/>
      <point x="588" y="599" type="line"/>
      <point x="559" y="912" type="line"/>
      <point x="806" y="722" type="line"/>
      <point x="901" y="875" type="line"/>
      <point x="621" y="1017" type="line"/>
      <point x="912" y="1134" type="line"/>
      <point x="831" y="1295" type="line"/>
      <point x="558" y="1121" type="line"/>
      <point x="588" y="1446" type="line"/>
      <point x="410" y="1446" type="line"/>
      <point x="438" y="1133" type="line"/>
      <point x="191" y="1323" type="line"/>
      <point x="96" y="1170" type="line"/>
      <point x="376" y="1028" type="line"/>
      <point x="86" y="911" type="line"/>
      <point x="166" y="750" type="line"/>
      <point x="439" y="924" type="line"/>
    </contour>
  </outline>
</glyph>
<glyph name="plus" format="1">
  <advance width="966"/>
  <unicode hex="002B"/>
  <outline>
    <contour>
      <point x="401" y="156" type="line"/>
      <point x="565" y="156" type="line"/>
      <point x="565" y="487" type="line"/>
      <point x="834" y="487" type="line"/>
      <point x="834" y="649" type="line"/>
      <point x="565" y="649" type="line"/>
      <point x="565" y="968" type="line"/>
      <point x="401" y="968" type="line"/>
      <point x="401" y="649" type="line"/>
      <point x="132" y="649" type="line"/>
      <point x="132" y="487" type="line"/>
      <point x="401" y="487" type="line"/>
    </contour>
  </outline>
</glyph>
<glyph name="comma" format="1">
  <advance width="768"/>
  <unicode hex="002C"/>
  <outline>
    <contour>
      <point x="349" y="-389" type="line"/>
      <point x="411" y="-333"/>
      <point x="545" y="-148"/>
      <point x="545" y="53" type="curve" smooth="yes"/>
      <point x="545" y="276" type="line"/>
      <point x="223" y="276" type="line"/>
      <point x="223" y="0" type="line"/>
      <point x="388" y="0" type="line"/>
      <point x="388" y="-138"/>
      <point x="293" y="-285"/>
      <point x="242" y="-343" type="curve"/>
    </contour>
  </outline>
</glyph>
<glyph name="hyphen" format="1">
  <advance width="968"/>
  <unicode hex="002D"/>
  <outline>
    <contour>
      <point x="132" y="494" type="line"/>
      <point x="836" y="494" type="line"/>
      <point x="836" y="642" type="line"/>
      <point x="132" y="642" type="line"/>
    </contour>
  </outline>
</glyph>
<glyph name="zero" format="1">
  <advance width="1420"/>
  <unicode hex="0030"/>
  <outline>
    <contour>
      <point x="719" y="198" type="curve" smooth="yes"/>
      <point x="508" y="198"/>
      <point x="450" y="364"/>
      <point x="450" y="493" type="curve" smooth="yes"/>
      <point x="450" y="979" type="line" smooth="yes"/>
      <point x="450" y="1109"/>
      <point x="499" y="1277"/>
      <point x="719" y="1277" type="curve" smooth="yes"/>
      <point x="937" y="1277"/>
      <point x="982" y="1109"/>
      <point x="982" y="979" type="curve" smooth="yes"/>
      <point x="982" y="493" type="line" smooth="yes"/>
      <point x="982" y="364"/>
      <point x="931" y="198"/>
    </contour>
    <contour>
      <point x="719" y="-27" type="curve" smooth="yes"/>
      <point x="1111" y="-27"/>
      <point x="1270" y="238"/>
      <point x="1270" y="502" type="curve" smooth="yes"/>
      <point x="1270" y="967" type="line" smooth="yes"/>
      <point x="1270" y="1239"/>
      <point x="1119" y="1503"/>
      <point x="719" y="1503" type="curve" smooth="yes"/>
      <point x="312" y="1503"/>
      <point x="150" y="1243"/>
      <point x="150" y="971" type="curve" smooth="yes"/>
      <point x="150" y="498" type="line" smooth="yes"/>
      <point x="150" y="231"/>
      <point x="318" y="-27"/>
    </contour>
  </outline>
</glyph>
<glyph name="one" format="1">
  <advance width="1420"/>
  <unicode hex="0031"/>
  <outline>
    <contour>
      <point x="203" y="0" type="line"/>
      <point x="1311" y="0" type="line"/>
      <point x="1311" y="209" type="line"/>
      <point x="932" y="209" type="line"/>
      <point x="932" y="1476" type="line"/>
      <point x="727" y="1476" type="line"/>
      <point x="199" y="1404" type="line"/>
      <point x="225" y="1187" type="line"/>
      <point x="635" y="1241" type="line"/>
      <point x="635" y="209" type="line"/>
      <point x="203" y="209" type="line"/>
    </contour>
  </outline>
</glyph>
<glyph name="two" format="1">
  <advance width="1420"/>
  <unicode hex="0032"/>
  <outline>
    <contour>
      <point x="245" y="0" type="line"/>
      <point x="1218" y="0" type="line"/>
      <point x="1218" y="227" type="line"/>
      <point x="566" y="227" type="line"/>
      <point x="936" y="544" type="line" smooth="yes"/>
      <point x="1137" y="716"/>
      <point x="1243" y="850"/>
      <point x="1243" y="1067" type="curve" smooth="yes"/>
      <point x="1243" y="1310"/>
      <point x="1093" y="1503"/>
      <point x="714" y="1503" type="curve" smooth="yes"/>
      <point x="315" y="1503"/>
      <point x="162" y="1344"/>
      <point x="162" y="992" type="curve"/>
      <point x="467" y="992" type="line"/>
      <point x="467" y="1207"/>
      <point x="537" y="1279"/>
      <point x="727" y="1279" type="curve" smooth="yes"/>
      <point x="892" y="1279"/>
      <point x="956" y="1202"/>
      <point x="955" y="1065" type="curve" smooth="yes"/>
      <point x="955" y="938"/>
      <point x="911" y="859"/>
      <point x="756" y="719" type="curve" smooth="yes"/>
      <point x="209" y="226" type="line"/>
    </contour>
  </outline>
</glyph>
<glyph name="three" format="1">
  <advance width="1420"/>
  <unicode hex="0033"/>
  <outline>
    <contour>
      <point x="720" y="-27" type="curve" smooth="yes"/>
      <point x="1107" y="-27"/>
      <point x="1260" y="167"/>
      <point x="1260" y="426" type="curve" smooth="yes"/>
      <point x="1260" y="593"/>
      <point x="1202" y="732"/>
      <point x="1023" y="780" type="curve"/>
      <point x="1212" y="820"/>
      <point x="1247" y="962"/>
      <point x="1247" y="1101" type="curve" smooth="yes"/>
      <point x="1247" y="1357"/>
      <point x="1030" y="1503"/>
      <point x="714" y="1503" type="curve" smooth="yes"/>
      <point x="394" y="1503"/>
      <point x="190" y="1387"/>
      <point x="188" y="1033" type="curve"/>
      <point x="456" y="1033" type="line"/>
      <point x="455" y="1218"/>
      <point x="517" y="1279"/>
      <point x="717" y="1279" type="curve" smooth="yes"/>
      <point x="910" y="1279"/>
      <point x="970" y="1210"/>
      <point x="970" y="1087" type="curve" smooth="yes"/>
      <point x="970" y="942"/>
      <point x="942" y="877"/>
      <point x="654" y="877" type="curve"/>
      <point x="654" y="678" type="line"/>
      <point x="912" y="678"/>
      <point x="978" y="621"/>
      <point x="978" y="439" type="curve" smooth="yes"/>
      <point x="978" y="281"/>
      <point x="902" y="198"/>
      <point x="723" y="198" type="curve" smooth="yes"/>
      <point x="531" y="198"/>
      <point x="453" y="251"/>
      <point x="450" y="436" type="curve"/>
      <point x="182" y="436" type="line"/>
      <point x="190" y="146"/>
      <point x="343" y="-27"/>
    </contour>
  </outline>
</glyph>
<glyph name="four" format="1">
  <advance width="1420"/>
  <unicode hex="0034"/>
  <outline>
    <contour>
      <point x="839" y="0" type="line"/>
      <point x="1076" y="0" type="line"/>
      <point x="1076" y="282" type="line"/>
      <point x="1296" y="282" type="line"/>
      <point x="1296" y="528" type="line"/>
      <point x="1076" y="528" type="line"/>
      <point x="1076" y="862" type="line"/>
      <point x="839" y="862" type="line"/>
      <point x="839" y="528" type="line"/>
      <point x="494" y="528" type="line"/>
      <point x="924" y="1476" type="line"/>
      <point x="619" y="1476" type="line"/>
      <point x="170" y="531" type="line"/>
      <point x="170" y="282" type="line"/>
      <point x="839" y="282" type="line"/>
    </contour>
  </outline>
</glyph>
<glyph name="five" format="1">
  <advance width="1420"/>
  <unicode hex="0035"/>
  <outline>
    <contour>
      <point x="1069" y="-27"/>
      <point x="1283" y="172"/>
      <point x="1283" y="467" type="curve" smooth="yes"/>
      <point x="1283" y="736"/>
      <point x="1102" y="950"/>
      <point x="804" y="950" type="curve" smooth="yes"/>
      <point x="705" y="950"/>
      <point x="576" y="928"/>
      <point x="511" y="860" type="curve"/>
      <point x="552" y="1230" type="line"/>
      <point x="1170" y="1230" type="line"/>
      <point x="1170" y="1476" type="line"/>
      <point x="328" y="1476" type="line"/>
      <point x="247" y="704" type="line"/>
      <point x="461" y="597" type="line"/>
      <point x="554" y="685"/>
      <point x="671" y="700"/>
      <point x="751" y="700" type="curve" smooth="yes"/>
      <point x="888" y="700"/>
      <point x="993" y="611"/>
      <point x="993" y="466" type="curve" smooth="yes"/>
      <point x="993" y="466"/>
      <point x="993" y="465"/>
      <point x="993" y="465" type="curve" smooth="yes"/>
      <point x="992" y="267"/>
      <point x="874" y="196"/>
      <point x="710" y="196" type="curve" smooth="yes"/>
      <point x="599" y="196"/>
      <point x="438" y="220"/>
      <point x="274" y="318" type="curve"/>
      <point x="195" y="119" type="line"/>
      <point x="280" y="57"/>
      <point x="499" y="-27"/>
      <point x="726" y="-27" type="curve" smooth="yes"/>
    </contour>
  </outline>
</glyph>
<glyph name="six" format="1">
  <advance width="1420"/>
  <unicode hex="0036"/>
  <outline>
    <contour>
      <point x="737" y="-26" type="curve" smooth="yes"/>
      <point x="1097" y="-26"/>
      <point x="1278" y="101"/>
      <point x="1278" y="443" type="curve" smooth="yes"/>
      <point x="1278" y="801"/>
      <point x="1107" y="930"/>
      <point x="793" y="930" type="curve" smooth="yes"/>
      <point x="763" y="930"/>
      <point x="673" y="915"/>
      <point x="637" y="904" type="curve"/>
      <point x="959" y="1477" type="line"/>
      <point x="639" y="1477" type="line"/>
      <point x="349" y="965" type="line" smooth="yes"/>
      <point x="271" y="816"/>
      <point x="214" y="647"/>
      <point x="214" y="456" type="curve" smooth="yes"/>
      <point x="214" y="120"/>
      <point x="371" y="-26"/>
    </contour>
    <contour>
      <point x="751" y="193" type="curve" smooth="yes"/>
      <point x="572" y="193"/>
      <point x="498" y="289"/>
      <point x="498" y="452" type="curve" smooth="yes"/>
      <point x="498" y="623"/>
      <point x="572" y="720"/>
      <point x="747" y="720" type="curve" smooth="yes"/>
      <point x="939" y="720"/>
      <point x="1005" y="617"/>
      <point x="1005" y="454" type="curve" smooth="yes"/>
      <point x="1005" y="295"/>
      <point x="937" y="193"/>
    </contour>
  </outline>
</glyph>
<glyph name="seven" format="1">
  <advance width="1420"/>
  <unicode hex="0037"/>
  <outline>
    <contour>
      <point x="360" y="0" type="line"/>
      <point x="674" y="0" type="line"/>
      <point x="1228" y="1270" type="line"/>
      <point x="1228" y="1476" type="line"/>
      <point x="230" y="1476" type="line"/>
      <point x="230" y="1244" type="line"/>
      <point x="904" y="1244" type="line"/>
    </contour>
  </outline>
</glyph>
<glyph name="eight" format="1">
  <advance width="1420"/>
  <unicode hex="0038"/>
  <outline>
    <contour>
      <point x="707" y="-26" type="curve" smooth="yes"/>
      <point x="1060" y="-26"/>
      <point x="1256" y="113"/>
      <point x="1256" y="368" type="curve" smooth="yes"/>
      <point x="1256" y="545"/>
      <point x="1160" y="697"/>
      <point x="924" y="783" type="curve"/>
      <point x="1130" y="848"/>
      <point x="1219" y="989"/>
      <point x="1219" y="1135" type="curve" smooth="yes"/>
      <point x="1219" y="1340"/>
      <point x="1081" y="1503"/>
      <point x="709" y="1503" type="curve" smooth="yes"/>
      <point x="340" y="1503"/>
      <point x="191" y="1342"/>
      <point x="191" y="1141" type="curve" smooth="yes"/>
      <point x="191" y="982"/>
      <point x="279" y="854"/>
      <point x="477" y="783" type="curve"/>
      <point x="281" y="697"/>
      <point x="164" y="565"/>
      <point x="164" y="366" type="curve" smooth="yes"/>
      <point x="164" y="120"/>
      <point x="365" y="-26"/>
    </contour>
    <contour>
      <point x="709" y="187" type="curve" smooth="yes"/>
      <point x="502" y="187"/>
      <point x="437" y="276"/>
      <point x="437" y="385" type="curve" smooth="yes"/>
      <point x="437" y="496"/>
      <point x="524" y="586"/>
      <point x="708" y="672" type="curve"/>
      <point x="893" y="586"/>
      <point x="979" y="496"/>
      <point x="979" y="385" type="curve" smooth="yes"/>
      <point x="979" y="277"/>
      <point x="915" y="187"/>
    </contour>
    <contour>
      <point x="708" y="876" type="curve"/>
      <point x="539" y="957"/>
      <point x="471" y="1017"/>
      <point x="471" y="1126" type="curve" smooth="yes"/>
      <point x="471" y="1224"/>
      <point x="525" y="1296"/>
      <point x="709" y="1296" type="curve" smooth="yes"/>
      <point x="894" y="1296"/>
      <point x="944" y="1220"/>
      <point x="944" y="1126" type="curve" smooth="yes"/>
      <point x="944" y="1022"/>
      <point x="870" y="957"/>
    </contour>
  </outline>
</glyph>
<glyph name="nine" format="1">
  <advance width="1420"/>
  <unicode hex="0039"/>
  <outline>
    <contour>
      <point x="499" y="0" type="line"/>
      <point x="819" y="0" type="line"/>
      <point x="1109" y="528" type="line" smooth="yes"/>
      <point x="1187" y="677"/>
      <point x="1244" y="840"/>
      <point x="1244" y="1031" type="curve" smooth="yes"/>
      <point x="1244" y="1367"/>
      <point x="1087" y="1503"/>
      <point x="721" y="1503" type="curve" smooth="yes"/>
      <point x="361" y="1503"/>
      <point x="180" y="1386"/>
      <point x="180" y="1044" type="curve" smooth="yes"/>
      <point x="180" y="686"/>
      <point x="355" y="569"/>
      <point x="669" y="569" type="curve" smooth="yes"/>
      <point x="699" y="569"/>
      <point x="785" y="578"/>
      <point x="821" y="589" type="curve"/>
    </contour>
    <contour>
      <point x="720" y="789" type="curve" smooth="yes"/>
      <point x="528" y="789"/>
      <point x="465" y="851"/>
      <point x="465" y="1044" type="curve" smooth="yes"/>
      <point x="465" y="1233"/>
      <point x="531" y="1289"/>
      <point x="717" y="1289" type="curve" smooth="yes"/>
      <point x="896" y="1289"/>
      <point x="952" y="1239"/>
      <point x="952" y="1046" type="curve" smooth="yes"/>
      <point x="952" y="855"/>
      <point x="895" y="789"/>
    </contour>
  </outline>
</glyph>
<glyph name="less" format="1">
  <advance width="1024"/>
  <unicode hex="003C"/>
  <outline>
    <contour>
      <point x="856" y="31" type="line"/>
      <point x="856" y="262" type="line"/>
      <point x="293" y="556" type="line"/>
      <point x="856" y="850" type="line"/>
      <point x="856" y="1081" type="line"/>
      <point x="112" y="664" type="line"/>
      <point x="112" y="445" type="line"/>
    </contour>
  </outline>
</glyph>
<glyph name="equal" format="1">
  <advance width="880"/>
  <unicode hex="003D"/>
  <outline>
    <contour>
      <point x="112" y="371" type="line"/>
      <point x="768" y="371" type="line"/>
      <point x="768" y="544" type="line"/>
      <point x="112" y="544" type="line"/>
    </contour>
    <contour>
      <point x="112" y="740" type="line"/>
      <point x="768" y="740" type="line"/>
      <point x="768" y="913" type="line"/>
      <point x="112" y="913" type="line"/>
    </contour>
  </outline>
</glyph>
<glyph name="greater" format="1">
  <advance width="1024"/>
  <unicode hex="003E"/>
  <outline>
    <contour>
      <point x="152" y="31" type="line"/>
      <point x="896" y="446" type="line"/>
      <point x="896" y="665" type="line"/>
      <point x="152" y="1081" type="line"/>
      <point x="152" y="848" type="line"/>
      <point x="715" y="556" type="line"/>
      <point x="152" y="260" type="line"/>
    </contour>
  </outline>
</glyph>
<glyph name="question" format="1">
  <advance width="1244"/>
  <unicode hex="003F"/>
  <outline>
    <contour>
      <point x="445" y="431" type="line"/>
      <point x="674" y="431" type="line"/>
      <point x="856" y="582" type="line" smooth="yes"/>
      <point x="1038" y="733"/>
      <point x="1118" y="862"/>
      <point x="1118" y="1067" type="curve" smooth="yes"/>
      <point x="1118" y="1289"/>
      <point x="1047" y="1501"/>
      <point x="619" y="1501" type="curve" smooth="yes"/>
      <point x="186" y="1501"/>
      <point x="130" y="1309"/>
      <point x="130" y="1036" type="curve" smooth="yes"/>
      <point x="130" y="962" type="line"/>
      <point x="404" y="962" type="line"/>
      <point x="404" y="1047" type="line" smooth="yes"/>
      <point x="404" y="1188"/>
      <point x="417" y="1279"/>
      <point x="619" y="1279" type="curve" smooth="yes"/>
      <point x="805" y="1279"/>
      <point x="826" y="1166"/>
      <point x="826" y="1056" type="curve" smooth="yes"/>
      <point x="826" y="936"/>
      <point x="789" y="860"/>
      <point x="693" y="740" type="curve" smooth="yes"/>
    </contour>
    <contour>
      <point x="429" y="0" type="line"/>
      <point x="678" y="0" type="line"/>
      <point x="678" y="245" type="line"/>
      <point x="429" y="245" type="line"/>
    </contour>
  </outline>
</glyph>
<glyph name="at" format="1">
  <advance width="2048"/>
  <unicode hex="0040"/>
  <outline>
    <contour>
      <point x="1084" y="-477" type="curve" smooth="yes"/>
      <point x="1328" y="-477"/>
      <point x="1582" y="-423"/>
      <point x="1765" y="-375" type="curve"/>
      <point x="1707" y="-172" type="line"/>
      <point x="1545" y="-206"/>
      <point x="1323" y="-256"/>
      <point x="1109" y="-256" type="curve" smooth="yes"/>
      <point x="765" y="-256"/>
      <point x="495" y="-125"/>
      <point x="495" y="363" type="curve" smooth="yes"/>
      <point x="495" y="741" type="line" smooth="yes"/>
      <point x="495" y="1246"/>
      <point x="687" y="1320"/>
      <point x="1060" y="1320" type="curve" smooth="yes"/>
      <point x="1431" y="1320"/>
      <point x="1491" y="1186"/>
      <point x="1491" y="895" type="curve"/>
      <point x="1491" y="895"/>
      <point x="1181" y="819"/>
      <point x="1141" y="809" type="curve" smooth="yes"/>
      <point x="777" y="713"/>
      <point x="729" y="583"/>
      <point x="729" y="428" type="curve" smooth="yes"/>
      <point x="729" y="185"/>
      <point x="915" y="53"/>
      <point x="1136" y="53" type="curve" smooth="yes"/>
      <point x="1294" y="53"/>
      <point x="1452" y="119"/>
      <point x="1516" y="208" type="curve"/>
      <point x="1553" y="127"/>
      <point x="1587" y="59"/>
      <point x="1742" y="59" type="curve" smooth="yes"/>
      <point x="1848" y="59" type="line"/>
      <point x="1868" y="259" type="line"/>
      <point x="1772" y="259"/>
      <point x="1761" y="295"/>
      <point x="1761" y="394" type="curve" smooth="yes"/>
      <point x="1759" y="863" type="line" smooth="yes"/>
      <point x="1759" y="1318"/>
      <point x="1594" y="1523"/>
      <point x="1014" y="1523" type="curve" smooth="yes"/>
      <point x="459" y="1523"/>
      <point x="240" y="1260"/>
      <point x="240" y="770" type="curve" smooth="yes"/>
      <point x="240" y="348" type="line" smooth="yes"/>
      <point x="240" y="-272"/>
      <point x="597" y="-477"/>
    </contour>
    <contour>
      <point x="1186" y="267" type="curve" smooth="yes"/>
      <point x="1078" y="267"/>
      <point x="985" y="311"/>
      <point x="983" y="438" type="curve" smooth="yes"/>
      <point x="981" y="549"/>
      <point x="1023" y="616"/>
      <point x="1209" y="666" type="curve" smooth="yes"/>
      <point x="1256" y="678"/>
      <point x="1487" y="741"/>
      <point x="1492" y="744" type="curve"/>
      <point x="1492" y="377" type="line"/>
      <point x="1482" y="325"/>
      <point x="1308" y="267"/>
    </contour>
  </outline>
</glyph>
<glyph name="A" format="1">
  <advance width="1512"/>
  <unicode hex="0041"/>
  <outline>
    <contour>
      <point x="70" y="0" type="line"/>
      <point x="380" y="0" type="line"/>
      <point x="466" y="281" type="line"/>
      <point x="1044" y="281" type="line"/>
      <point x="1127" y="0" type="line"/>
      <point x="1442" y="0" type="line"/>
      <point x="950" y="1476" type="line"/>
      <point x="556" y="1476" type="line"/>
    </contour>
    <contour>
      <point x="525" y="479" type="line"/>
      <point x="760" y="1255" type="line"/>
      <point x="987" y="479" type="line"/>
    </contour>
  </outline>
</glyph>
<glyph name="B" format="1">
  <advance width="1456.22636011"/>
  <unicode hex="0042"/>
  <outline>
    <contour>
      <point x="190" y="0" type="line"/>
      <point x="830" y="0" type="line" smooth="yes"/>
      <point x="1196" y="0"/>
      <point x="1351" y="139"/>
      <point x="1344" y="448" type="curve" smooth="yes"/>
      <point x="1344" y="641"/>
      <point x="1297" y="776"/>
      <point x="1092" y="804" type="curve"/>
      <point x="1246" y="843"/>
      <point x="1280" y="938"/>
      <point x="1281" y="1088" type="curve" smooth="yes"/>
      <point x="1281" y="1353"/>
      <point x="1171" y="1476"/>
      <point x="758" y="1476" type="curve" smooth="yes"/>
      <point x="190" y="1476" type="line"/>
    </contour>
    <contour>
      <point x="487" y="208" type="line"/>
      <point x="487" y="703" type="line"/>
      <point x="805" y="703" type="line" smooth="yes"/>
      <point x="1027" y="703"/>
      <point x="1048" y="602"/>
      <point x="1048" y="455" type="curve" smooth="yes"/>
      <point x="1048" y="250"/>
      <point x="1006" y="208"/>
      <point x="775" y="208" type="curve" smooth="yes"/>
    </contour>
    <contour>
      <point x="487" y="882" type="line"/>
      <point x="487" y="1273" type="line"/>
      <point x="739" y="1273" type="line" smooth="yes"/>
      <point x="940" y="1273"/>
      <point x="978" y="1240"/>
      <point x="978" y="1085" type="curve" smooth="yes"/>
      <point x="978" y="952"/>
      <point x="967" y="882"/>
      <point x="794" y="882" type="curve" smooth="yes"/>
    </contour>
  </outline>
</glyph>
<glyph name="C" format="1">
  <advance width="1490"/>
  <unicode hex="0043"/>
  <outline>
    <contour>
      <point x="780" y="-26" type="curve" smooth="yes"/>
      <point x="1292" y="-26"/>
      <point x="1362" y="190"/>
      <point x="1362" y="480" type="curve" smooth="yes"/>
      <point x="1362" y="507" type="line"/>
      <point x="1071" y="507" type="line"/>
      <point x="1071" y="460" type="line" smooth="yes"/>
      <point x="1071" y="250"/>
      <point x="1006" y="207"/>
      <point x="781" y="207" type="curve" smooth="yes"/>
      <point x="559" y="207"/>
      <point x="457" y="252"/>
      <point x="457" y="454" type="curve" smooth="yes"/>
      <point x="457" y="1012" type="line" smooth="yes"/>
      <point x="457" y="1215"/>
      <point x="560" y="1268"/>
      <point x="780" y="1268" type="curve" smooth="yes"/>
      <point x="1005" y="1268"/>
      <point x="1071" y="1213"/>
      <point x="1071" y="1006" type="curve" smooth="yes"/>
      <point x="1071" y="931" type="line"/>
      <point x="1362" y="965" type="line"/>
      <point x="1362" y="983" type="line" smooth="yes"/>
      <point x="1362" y="1281"/>
      <point x="1284" y="1501"/>
      <point x="780" y="1501" type="curve" smooth="yes"/>
      <point x="251" y="1501"/>
      <point x="160" y="1275"/>
      <point x="160" y="977" type="curve" smooth="yes"/>
      <point x="160" y="484" type="line" smooth="yes"/>
      <point x="160" y="193"/>
      <point x="254" y="-26"/>
    </contour>
  </outline>
</glyph>
<glyph name="D" format="1">
  <advance width="1534"/>
  <unicode hex="0044"/>
  <outline>
    <contour>
      <point x="487" y="231" type="line"/>
      <point x="487" y="1245" type="line"/>
      <point x="805" y="1245" type="line" smooth="yes"/>
      <point x="1011" y="1245"/>
      <point x="1077" y="1160"/>
      <point x="1077" y="1000" type="curve" smooth="yes"/>
      <point x="1077" y="470" type="line" smooth="yes"/>
      <point x="1077" y="306"/>
      <point x="1014" y="231"/>
      <point x="805" y="231" type="curve" smooth="yes"/>
    </contour>
    <contour>
      <point x="190" y="0" type="line"/>
      <point x="831" y="0" type="line" smooth="yes"/>
      <point x="1246" y="0"/>
      <point x="1374" y="213"/>
      <point x="1374" y="508" type="curve" smooth="yes"/>
      <point x="1374" y="961" type="line" smooth="yes"/>
      <point x="1374" y="1250"/>
      <point x="1258" y="1476"/>
      <point x="830" y="1476" type="curve" smooth="yes"/>
      <point x="190" y="1476" type="line"/>
    </contour>
  </outline>
</glyph>
<glyph name="E" format="1">
  <advance width="1294"/>
  <unicode hex="0045"/>
  <outline>
    <contour>
      <point x="190" y="0" type="line"/>
      <point x="1168" y="0" type="line"/>
      <point x="1168" y="224" type="line"/>
      <point x="486" y="224" type="line"/>
      <point x="486" y="646" type="line"/>
      <point x="1081" y="646" type="line"/>
      <point x="1081" y="860" type="line"/>
      <point x="486" y="860" type="line"/>
      <point x="486" y="1252" type="line"/>
      <point x="1157" y="1252" type="line"/>
      <point x="1157" y="1476" type="line"/>
      <point x="190" y="1476" type="line"/>
    </contour>
  </outline>
</glyph>
<glyph name="F" format="1">
  <advance width="1173"/>
  <unicode hex="0046"/>
  <outline>
    <contour>
      <point x="190" y="0" type="line"/>
      <point x="487" y="0" type="line"/>
      <point x="487" y="634" type="line"/>
      <point x="1042" y="634" type="line"/>
      <point x="1042" y="847" type="line"/>
      <point x="487" y="847" type="line"/>
      <point x="487" y="1249" type="line"/>
      <point x="1083" y="1249" type="line"/>
      <point x="1083" y="1476" type="line"/>
      <point x="190" y="1476" type="line"/>
    </contour>
  </outline>
</glyph>
<glyph name="G" format="1">
  <advance width="1607"/>
  <unicode hex="0047"/>
  <outline>
    <contour>
      <point x="813" y="-26" type="curve" smooth="yes"/>
      <point x="1132" y="-26"/>
      <point x="1200" y="123"/>
      <point x="1215" y="170" type="curve"/>
      <point x="1262" y="0" type="line"/>
      <point x="1419" y="0" type="line"/>
      <point x="1419" y="757" type="line"/>
      <point x="853" y="757" type="line"/>
      <point x="853" y="562" type="line"/>
      <point x="1151" y="562" type="line"/>
      <point x="1151" y="454" type="line" smooth="yes"/>
      <point x="1151" y="252"/>
      <point x="1038" y="207"/>
      <point x="813" y="207" type="curve" smooth="yes"/>
      <point x="591" y="207"/>
      <point x="458" y="252"/>
      <point x="458" y="454" type="curve" smooth="yes"/>
      <point x="458" y="1012" type="line" smooth="yes"/>
      <point x="458" y="1215"/>
      <point x="593" y="1268"/>
      <point x="813" y="1268" type="curve" smooth="yes"/>
      <point x="1035" y="1268"/>
      <point x="1126" y="1219"/>
      <point x="1126" y="1021" type="curve" smooth="yes"/>
      <point x="1126" y="962" type="line"/>
      <point x="1418" y="984" type="line"/>
      <point x="1418" y="1007" type="line" smooth="yes"/>
      <point x="1418" y="1290"/>
      <point x="1325" y="1501"/>
      <point x="813" y="1501" type="curve" smooth="yes"/>
      <point x="284" y="1501"/>
      <point x="160" y="1275"/>
      <point x="160" y="977" type="curve" smooth="yes"/>
      <point x="160" y="484" type="line" smooth="yes"/>
      <point x="160" y="193"/>
      <point x="287" y="-26"/>
    </contour>
  </outline>
</glyph>
<glyph name="H" format="1">
  <advance width="1624"/>
  <unicode hex="0048"/>
  <outline>
    <contour>
      <point x="190" y="0" type="line"/>
      <point x="488" y="0" type="line"/>
      <point x="488" y="615" type="line"/>
      <point x="1136" y="615" type="line"/>
      <point x="1136" y="0" type="line"/>
      <point x="1434" y="0" type="line"/>
      <point x="1434" y="1476" type="line"/>
      <point x="1136" y="1476" type="line"/>
      <point x="1136" y="848" type="line"/>
      <point x="488" y="848" type="line"/>
      <point x="488" y="1476" type="line"/>
      <point x="190" y="1476" type="line"/>
    </contour>
  </outline>
</glyph>
<glyph name="I" format="1">
  <advance width="1148"/>
  <unicode hex="0049"/>
  <outline>
    <contour>
      <point x="158" y="0" type="line"/>
      <point x="990" y="0" type="line"/>
      <point x="990" y="222" type="line"/>
      <point x="723" y="222" type="line"/>
      <point x="723" y="1255" type="line"/>
      <point x="990" y="1255" type="line"/>
      <point x="990" y="1476" type="line"/>
      <point x="158" y="1476" type="line"/>
      <point x="158" y="1255" type="line"/>
      <point x="427" y="1255" type="line"/>
      <point x="427" y="222" type="line"/>
      <point x="158" y="222" type="line"/>
    </contour>
  </outline>
</glyph>
<glyph name="J" format="1">
  <advance width="1222"/>
  <unicode hex="004A"/>
  <outline>
    <contour>
      <point x="504" y="-25" type="curve" smooth="yes"/>
      <point x="835" y="-25"/>
      <point x="1036" y="138"/>
      <point x="1036" y="422" type="curve" smooth="yes"/>
      <point x="1036" y="1476" type="line"/>
      <point x="231" y="1476" type="line"/>
      <point x="231" y="1250" type="line"/>
      <point x="739" y="1250" type="line"/>
      <point x="739" y="441" type="line" smooth="yes"/>
      <point x="739" y="313"/>
      <point x="671" y="209"/>
      <point x="485" y="209" type="curve" smooth="yes"/>
      <point x="381" y="209"/>
      <point x="236" y="242"/>
      <point x="139" y="287" type="curve"/>
      <point x="70" y="67" type="line"/>
      <point x="200" y="6"/>
      <point x="360" y="-25"/>
    </contour>
  </outline>
</glyph>
<glyph name="M" format="1">
  <advance width="1874"/>
  <unicode hex="004D"/>
  <outline>
    <contour>
      <point x="190" y="0" type="line"/>
      <point x="468" y="0" type="line"/>
      <point x="468" y="1087" type="line"/>
      <point x="838" y="429" type="line"/>
      <point x="1037" y="429" type="line"/>
      <point x="1406" y="1091" type="line"/>
      <point x="1406" y="0" type="line"/>
      <point x="1684" y="0" type="line"/>
      <point x="1684" y="1476" type="line"/>
      <point x="1351" y="1476" type="line"/>
      <point x="937" y="761" type="line"/>
      <point x="517" y="1476" type="line"/>
      <point x="190" y="1476" type="line"/>
    </contour>
  </outline>
</glyph>
<glyph name="N" format="1">
  <advance width="1634"/>
  <unicode hex="004E"/>
  <outline>
    <contour>
      <point x="190" y="0" type="line"/>
      <point x="457" y="0" type="line"/>
      <point x="457" y="996" type="line"/>
      <point x="1221" y="0" type="line"/>
      <point x="1444" y="0" type="line"/>
      <point x="1444" y="1476" type="line"/>
      <point x="1180" y="1476" type="line"/>
      <point x="1180" y="464" type="line"/>
      <point x="413" y="1476" type="line"/>
      <point x="190" y="1476" type="line"/>
    </contour>
  </outline>
</glyph>
<glyph name="O" format="1">
  <advance width="1606"/>
  <unicode hex="004F"/>
  <outline>
    <contour>
      <point x="814" y="207" type="curve" smooth="yes"/>
      <point x="592" y="207"/>
      <point x="458" y="265"/>
      <point x="458" y="468" type="curve" smooth="yes"/>
      <point x="458" y="1003" type="line" smooth="yes"/>
      <point x="458" y="1205"/>
      <point x="594" y="1268"/>
      <point x="814" y="1268" type="curve" smooth="yes"/>
      <point x="1036" y="1268"/>
      <point x="1148" y="1201"/>
      <point x="1148" y="1003" type="curve" smooth="yes"/>
      <point x="1148" y="468" type="line" smooth="yes"/>
      <point x="1148" y="266"/>
      <point x="1038" y="207"/>
    </contour>
    <contour>
      <point x="814" y="-26" type="curve" smooth="yes"/>
      <point x="1322" y="-26"/>
      <point x="1446" y="227"/>
      <point x="1446" y="517" type="curve" smooth="yes"/>
      <point x="1446" y="948" type="line" smooth="yes"/>
      <point x="1446" y="1247"/>
      <point x="1324" y="1501"/>
      <point x="814" y="1501" type="curve" smooth="yes"/>
      <point x="281" y="1501"/>
      <point x="160" y="1262"/>
      <point x="160" y="963" type="curve" smooth="yes"/>
      <point x="160" y="501" type="line" smooth="yes"/>
      <point x="160" y="209"/>
      <point x="283" y="-26"/>
    </contour>
  </outline>
</glyph>
<glyph name="P" format="1">
  <advance width="1336"/>
  <unicode hex="0050"/>
  <outline>
    <contour>
      <point x="190" y="0" type="line"/>
      <point x="487" y="0" type="line"/>
      <point x="487" y="509" type="line"/>
      <point x="740" y="509" type="line" smooth="yes"/>
      <point x="1126" y="509"/>
      <point x="1250" y="663"/>
      <point x="1250" y="1005" type="curve" smooth="yes"/>
      <point x="1250" y="1337"/>
      <point x="1095" y="1476"/>
      <point x="769" y="1476" type="curve" smooth="yes"/>
      <point x="190" y="1476" type="line"/>
    </contour>
    <contour>
      <point x="487" y="726" type="line"/>
      <point x="487" y="1265" type="line"/>
      <point x="797" y="1265" type="line" smooth="yes"/>
      <point x="937" y="1265"/>
      <point x="972" y="1145"/>
      <point x="972" y="990" type="curve" smooth="yes"/>
      <point x="972" y="813"/>
      <point x="937" y="726"/>
      <point x="787" y="726" type="curve" smooth="yes"/>
    </contour>
  </outline>
</glyph>
<glyph name="Q" format="1">
  <advance width="1606.0"/>
  <unicode hex="0051"/>
  <outline>
    <contour>
      <point x="1010.0" y="-534" type="line"/>
      <point x="1199.0" y="-426" type="line"/>
      <point x="954.023986816" y="-18.75" type="line"/>
      <point x="1345.36999512" y="24.5301971436"/>
      <point x="1446.0" y="255.751998901"/>
      <point x="1446.0" y="517.0" type="curve" smooth="yes"/>
      <point x="1446.0" y="948.0" type="line" smooth="yes"/>
      <point x="1446.0" y="1247.0"/>
      <point x="1324.0" y="1501.0"/>
      <point x="814.0" y="1501.0" type="curve" smooth="yes"/>
      <point x="281.0" y="1501.0"/>
      <point x="160.0" y="1262.0"/>
      <point x="160.0" y="963.0" type="curve" smooth="yes"/>
      <point x="160.0" y="501.0" type="line" smooth="yes"/>
      <point x="160.0" y="233.619003296"/>
      <point x="263.134002686" y="14.0317993164"/>
      <point x="688.220993042" y="-21.095199585" type="curve"/>
    </contour>
    <contour>
      <point x="814.0" y="207.0" type="curve" smooth="yes"/>
      <point x="592.0" y="207.0"/>
      <point x="458.0" y="265.0"/>
      <point x="458.0" y="468.0" type="curve" smooth="yes"/>
      <point x="458.0" y="1003.0" type="line" smooth="yes"/>
      <point x="458.0" y="1205.0"/>
      <point x="594.0" y="1268.0"/>
      <point x="814.0" y="1268.0" type="curve" smooth="yes"/>
      <point x="1036.0" y="1268.0"/>
      <point x="1148.0" y="1201.0"/>
      <point x="1148.0" y="1003.0" type="curve" smooth="yes"/>
      <point x="1148.0" y="468.0" type="line" smooth="yes"/>
      <point x="1148.0" y="266.0"/>
      <point x="1038.0" y="207.0"/>
    </contour>
  </outline>
</glyph>
<glyph name="R" format="1">
  <advance width="1484"/>
  <unicode hex="0052"/>
  <outline>
    <contour>
      <point x="190" y="0" type="line"/>
      <point x="487" y="0" type="line"/>
      <point x="487" y="583" type="line"/>
      <point x="821" y="583" type="line"/>
      <point x="1080" y="0" type="line"/>
      <point x="1388" y="0" type="line"/>
      <point x="1103" y="626" type="line"/>
      <point x="1283" y="699"/>
      <point x="1320" y="853"/>
      <point x="1320" y="1035" type="curve" smooth="yes"/>
      <point x="1320" y="1301"/>
      <point x="1219" y="1476"/>
      <point x="827" y="1476" type="curve" smooth="yes"/>
      <point x="190" y="1476" type="line"/>
    </contour>
    <contour>
      <point x="487" y="795" type="line"/>
      <point x="487" y="1265" type="line"/>
      <point x="864" y="1265" type="line" smooth="yes"/>
      <point x="1011" y="1265"/>
      <point x="1036" y="1142"/>
      <point x="1036" y="1022" type="curve" smooth="yes"/>
      <point x="1036" y="896"/>
      <point x="1004" y="795"/>
      <point x="852" y="795" type="curve" smooth="yes"/>
    </contour>
  </outline>
</glyph>
<glyph name="S" format="1">
  <advance width="1281"/>
  <unicode hex="0053"/>
  <outline>
    <contour>
      <point x="688" y="-26" type="curve" smooth="yes"/>
      <point x="1025" y="-26"/>
      <point x="1169" y="172"/>
      <point x="1169" y="422" type="curve" smooth="yes"/>
      <point x="1169" y="654"/>
      <point x="1069" y="777"/>
      <point x="870" y="837" type="curve" smooth="yes"/>
      <point x="619" y="912" type="line" smooth="yes"/>
      <point x="462" y="959"/>
      <point x="423" y="1008"/>
      <point x="428" y="1121" type="curve" smooth="yes"/>
      <point x="433" y="1227"/>
      <point x="523" y="1268"/>
      <point x="675" y="1268" type="curve" smooth="yes"/>
      <point x="819" y="1268"/>
      <point x="949" y="1229"/>
      <point x="1059" y="1177" type="curve"/>
      <point x="1143" y="1386" type="line"/>
      <point x="1007" y="1465"/>
      <point x="844" y="1501"/>
      <point x="649" y="1501" type="curve" smooth="yes"/>
      <point x="358" y="1501"/>
      <point x="136" y="1369"/>
      <point x="136" y="1094" type="curve" smooth="yes"/>
      <point x="136" y="905"/>
      <point x="201" y="752"/>
      <point x="442" y="681" type="curve" smooth="yes"/>
      <point x="694" y="607" type="line" smooth="yes"/>
      <point x="887" y="550"/>
      <point x="901" y="482"/>
      <point x="897" y="390" type="curve" smooth="yes"/>
      <point x="892" y="281"/>
      <point x="851" y="207"/>
      <point x="681" y="207" type="curve" smooth="yes"/>
      <point x="498" y="207"/>
      <point x="335" y="265"/>
      <point x="222" y="325" type="curve"/>
      <point x="120" y="108" type="line"/>
      <point x="268" y="25"/>
      <point x="487" y="-26"/>
    </contour>
  </outline>
</glyph>
<glyph name="T" format="1">
  <advance width="1194"/>
  <unicode hex="0054"/>
  <outline>
    <contour>
      <point x="449" y="0" type="line"/>
      <point x="745" y="0" type="line"/>
      <point x="745" y="1250" type="line"/>
      <point x="1156" y="1250" type="line"/>
      <point x="1156" y="1476" type="line"/>
      <point x="38" y="1476" type="line"/>
      <point x="38" y="1250" type="line"/>
      <point x="449" y="1250" type="line"/>
    </contour>
  </outline>
</glyph>
<glyph name="W" format="1">
  <advance width="1954"/>
  <unicode hex="0057"/>
  <outline>
    <contour>
      <point x="423" y="0" type="line"/>
      <point x="689" y="0" type="line"/>
      <point x="973" y="1053" type="line"/>
      <point x="1283" y="0" type="line"/>
      <point x="1532" y="0" type="line"/>
      <point x="1914" y="1476" type="line"/>
      <point x="1629" y="1476" type="line"/>
      <point x="1389" y="466" type="line"/>
      <point x="1093" y="1476" type="line"/>
      <point x="842" y="1476" type="line"/>
      <point x="583" y="455" type="line"/>
      <point x="328" y="1476" type="line"/>
      <point x="40" y="1476" type="line"/>
    </contour>
  </outline>
</glyph>
<glyph name="X" format="1">
  <advance width="1352"/>
  <unicode hex="0058"/>
  <outline>
    <contour>
      <point x="38" y="0" type="line"/>
      <point x="348" y="0" type="line"/>
      <point x="669" y="501" type="line"/>
      <point x="987" y="0" type="line"/>
      <point x="1314" y="0" type="line"/>
      <point x="830" y="749" type="line"/>
      <point x="1297" y="1476" type="line"/>
      <point x="969" y="1476" type="line"/>
      <point x="669" y="997" type="line"/>
      <point x="359" y="1476" type="line"/>
      <point x="50" y="1476" type="line"/>
      <point x="513" y="748" type="line"/>
    </contour>
  </outline>
</glyph>
<glyph name="Z" format="1">
  <advance width="1184"/>
  <unicode hex="005A"/>
  <outline>
    <contour>
      <point x="126" y="0" type="line"/>
      <point x="1102" y="0" type="line"/>
      <point x="1102" y="210" type="line"/>
      <point x="472" y="210" type="line"/>
      <point x="1090" y="1297" type="line"/>
      <point x="1090" y="1476" type="line"/>
      <point x="154" y="1476" type="line"/>
      <point x="154" y="1258" type="line"/>
      <point x="746" y="1258" type="line"/>
      <point x="126" y="177" type="line"/>
    </contour>
  </outline>
</glyph>
<glyph name="bracketleft" format="1">
  <advance width="842"/>
  <unicode hex="005B"/>
  <outline>
    <contour>
      <point x="212" y="-89" type="line"/>
      <point x="694" y="-89" type="line"/>
      <point x="694" y="72" type="line"/>
      <point x="485" y="72" type="line"/>
      <point x="485" y="1431" type="line"/>
      <point x="694" y="1431" type="line"/>
      <point x="694" y="1592" type="line"/>
      <point x="212" y="1592" type="line"/>
    </contour>
  </outline>
</glyph>
<glyph name="backslash" format="1">
  <advance width="1024"/>
  <unicode hex="005C"/>
  <outline>
    <contour>
      <point x="675" y="0" type="line"/>
      <point x="918" y="0" type="line"/>
      <point x="349" y="1516" type="line"/>
      <point x="106" y="1516" type="line"/>
    </contour>
  </outline>
</glyph>
<glyph name="bracketright" format="1">
  <advance width="842"/>
  <unicode hex="005D"/>
  <outline>
    <contour>
      <point x="146" y="-89" type="line"/>
      <point x="628" y="-89" type="line"/>
      <point x="628" y="1592" type="line"/>
      <point x="146" y="1592" type="line"/>
      <point x="146" y="1431" type="line"/>
      <point x="356" y="1431" type="line"/>
      <point x="356" y="72" type="line"/>
      <point x="146" y="72" type="line"/>
    </contour>
  </outline>
</glyph>
<glyph name="asciicircum" format="1">
  <advance width="1257"/>
  <unicode hex="005E"/>
  <outline>
    <contour>
      <point x="80" y="511" type="line"/>
      <point x="317" y="511" type="line"/>
      <point x="622" y="1112" type="line"/>
      <point x="926" y="511" type="line"/>
      <point x="1153" y="511" type="line"/>
      <point x="745" y="1283" type="line"/>
      <point x="486" y="1283" type="line"/>
    </contour>
  </outline>
</glyph>
<glyph name="underscore" format="1">
  <advance width="904"/>
  <unicode hex="005F"/>
  <outline>
    <contour>
      <point x="8" y="-32" type="line"/>
      <point x="891" y="-32" type="line"/>
      <point x="891" y="143" type="line"/>
      <point x="8" y="143" type="line"/>
    </contour>
  </outline>
</glyph>
<glyph name="grave" format="1">
  <advance width="556"/>
  <unicode hex="0060"/>
  <outline>
    <contour>
      <point x="316" y="1157" type="line"/>
      <point x="467" y="1157" type="line"/>
      <point x="346" y="1522" type="line"/>
      <point x="79" y="1522" type="line"/>
    </contour>
  </outline>
</glyph>
<glyph name="a" format="1">
  <advance width="1174.37135943"/>
  <unicode hex="0061"/>
  <outline>
    <contour>
      <point x="423.371359429" y="-23" type="curve" smooth="yes"/>
      <point x="580.371359429" y="-23"/>
      <point x="699" y="43"/>
      <point x="757" y="119" type="curve"/>
      <point x="796" y="32"/>
      <point x="873" y="-8"/>
      <point x="1022" y="-8" type="curve" smooth="yes"/>
      <point x="1079.37135943" y="-8" type="line"/>
      <point x="1090.37135943" y="190" type="line"/>
      <point x="1023.37135943" y="190"/>
      <point x="1003.37135943" y="210"/>
      <point x="1003.37135943" y="308" type="curve" smooth="yes"/>
      <point x="1003.37135943" y="733" type="line" smooth="yes"/>
      <point x="1003.37135943" y="955"/>
      <point x="893.371359429" y="1097"/>
      <point x="572.371359429" y="1097" type="curve" smooth="yes"/>
      <point x="278.371359429" y="1097"/>
      <point x="144.371359429" y="963"/>
      <point x="144.371359429" y="755" type="curve" smooth="yes"/>
      <point x="144.371359429" y="723" type="line"/>
      <point x="399.371359429" y="723" type="line"/>
      <point x="399.371359429" y="765" type="line" smooth="yes"/>
      <point x="399.371359429" y="848"/>
      <point x="430.371359429" y="907"/>
      <point x="566.371359429" y="907" type="curve" smooth="yes"/>
      <point x="688.371359429" y="907"/>
      <point x="735" y="863"/>
      <point x="735" y="777" type="curve"/>
      <point x="735" y="702"/>
      <point x="658" y="666"/>
      <point x="491" y="613" type="curve" smooth="yes"/>
      <point x="185" y="516"/>
      <point x="107.371359429" y="420"/>
      <point x="112.371359429" y="268" type="curve" smooth="yes"/>
      <point x="117.371359429" y="90"/>
      <point x="239.371359429" y="-23"/>
    </contour>
    <contour>
      <point x="523" y="165" type="curve" smooth="yes"/>
      <point x="432" y="165"/>
      <point x="385" y="204"/>
      <point x="383" y="288" type="curve" smooth="yes"/>
      <point x="381" y="349"/>
      <point x="409" y="403"/>
      <point x="531" y="448" type="curve" smooth="yes"/>
      <point x="621" y="481"/>
      <point x="699" y="515"/>
      <point x="735" y="544" type="curve"/>
      <point x="735" y="276" type="line"/>
      <point x="685" y="201"/>
      <point x="589" y="165"/>
    </contour>
  </outline>
</glyph>
<glyph name="c" format="1">
  <advance width="1107"/>
  <unicode hex="0063"/>
  <outline>
    <contour>
      <point x="573" y="-23" type="curve" smooth="yes"/>
      <point x="915" y="-23"/>
      <point x="1002" y="77"/>
      <point x="1008" y="380" type="curve"/>
      <point x="754" y="380" type="line"/>
      <point x="754" y="197"/>
      <point x="721" y="168"/>
      <point x="579" y="168" type="curve" smooth="yes"/>
      <point x="455" y="168"/>
      <point x="396" y="207"/>
      <point x="396" y="322" type="curve" smooth="yes"/>
      <point x="396" y="756" type="line" smooth="yes"/>
      <point x="396" y="867"/>
      <point x="463" y="907"/>
      <point x="579" y="907" type="curve" smooth="yes"/>
      <point x="719" y="907"/>
      <point x="752" y="874"/>
      <point x="753" y="679" type="curve"/>
      <point x="1009" y="699" type="line"/>
      <point x="1009" y="1007"/>
      <point x="858" y="1097"/>
      <point x="569" y="1097" type="curve" smooth="yes"/>
      <point x="288" y="1097"/>
      <point x="124" y="972"/>
      <point x="124" y="757" type="curve" smooth="yes"/>
      <point x="124" y="327" type="line" smooth="yes"/>
      <point x="124" y="140"/>
      <point x="206" y="-23"/>
    </contour>
  </outline>
</glyph>
<glyph name="d" format="1">
  <advance width="1198"/>
  <unicode hex="0064"/>
  <outline>
    <contour>
      <point x="551" y="-23" type="curve" smooth="yes"/>
      <point x="661" y="-23"/>
      <point x="759" y="14"/>
      <point x="829" y="63" type="curve"/>
      <point x="858" y="0" type="line"/>
      <point x="1042" y="0" type="line"/>
      <point x="1042" y="1516" type="line"/>
      <point x="770" y="1516" type="line"/>
      <point x="770" y="1059" type="line"/>
      <point x="707" y="1082"/>
      <point x="631" y="1097"/>
      <point x="570" y="1097" type="curve" smooth="yes"/>
      <point x="257" y="1097"/>
      <point x="124" y="951"/>
      <point x="124" y="753" type="curve" smooth="yes"/>
      <point x="124" y="324" type="line" smooth="yes"/>
      <point x="124" y="108"/>
      <point x="260" y="-23"/>
    </contour>
    <contour>
      <point x="583" y="168" type="curve" smooth="yes"/>
      <point x="463" y="168"/>
      <point x="396" y="211"/>
      <point x="396" y="320" type="curve" smooth="yes"/>
      <point x="396" y="759" type="line" smooth="yes"/>
      <point x="396" y="868"/>
      <point x="469" y="907"/>
      <point x="593" y="907" type="curve" smooth="yes"/>
      <point x="669" y="907"/>
      <point x="734" y="887"/>
      <point x="770" y="870" type="curve"/>
      <point x="770" y="211" type="line"/>
      <point x="728" y="186"/>
      <point x="658" y="168"/>
    </contour>
  </outline>
</glyph>
<glyph name="e" format="1">
  <advance width="1149"/>
  <unicode hex="0065"/>
  <outline>
    <contour>
      <point x="586" y="-23" type="curve" smooth="yes"/>
      <point x="866" y="-23"/>
      <point x="1030" y="32"/>
      <point x="1038" y="330" type="curve"/>
      <point x="786" y="330" type="line"/>
      <point x="781" y="168"/>
      <point x="716" y="166"/>
      <point x="591" y="166" type="curve" smooth="yes"/>
      <point x="461" y="166"/>
      <point x="396" y="183"/>
      <point x="396" y="310" type="curve" smooth="yes"/>
      <point x="396" y="485" type="line"/>
      <point x="1039" y="485" type="line"/>
      <point x="1039" y="745" type="line" smooth="yes"/>
      <point x="1039" y="961"/>
      <point x="913" y="1097"/>
      <point x="582" y="1097" type="curve" smooth="yes"/>
      <point x="303" y="1097"/>
      <point x="124" y="974"/>
      <point x="124" y="755" type="curve" smooth="yes"/>
      <point x="124" y="336" type="line" smooth="yes"/>
      <point x="124" y="60"/>
      <point x="323" y="-23"/>
    </contour>
    <contour>
      <point x="396" y="651" type="line"/>
      <point x="396" y="772" type="line" smooth="yes"/>
      <point x="396" y="886"/>
      <point x="480" y="907"/>
      <point x="589" y="907" type="curve" smooth="yes"/>
      <point x="698" y="907"/>
      <point x="782" y="896"/>
      <point x="782" y="777" type="curve" smooth="yes"/>
      <point x="782" y="651" type="line"/>
    </contour>
  </outline>
</glyph>
<glyph name="f" format="1">
  <advance width="770"/>
  <unicode hex="0066"/>
  <outline>
    <contour>
      <point x="229" y="0" type="line"/>
      <point x="501" y="0" type="line"/>
      <point x="501" y="901" type="line"/>
      <point x="715" y="901" type="line"/>
      <point x="715" y="1074" type="line"/>
      <point x="501" y="1074" type="line"/>
      <point x="501" y="1186" type="line" smooth="yes"/>
      <point x="501" y="1258"/>
      <point x="522" y="1327"/>
      <point x="640" y="1327" type="curve" smooth="yes"/>
      <point x="724" y="1327" type="line"/>
      <point x="717" y="1516" type="line"/>
      <point x="591" y="1516" type="line" smooth="yes"/>
      <point x="336" y="1516"/>
      <point x="229" y="1380"/>
      <point x="229" y="1125" type="curve" smooth="yes"/>
      <point x="229" y="1074" type="line"/>
      <point x="86" y="1074" type="line"/>
      <point x="86" y="901" type="line"/>
      <point x="229" y="901" type="line"/>
    </contour>
  </outline>
</glyph>
<glyph name="g" format="1">
  <advance width="1211"/>
  <unicode hex="0067"/>
  <outline>
    <contour>
      <point x="574" y="-441" type="curve" smooth="yes"/>
      <point x="919" y="-441"/>
      <point x="1059" y="-277"/>
      <point x="1059" y="-12" type="curve" smooth="yes"/>
      <point x="1059" y="1075" type="line"/>
      <point x="857" y="1075" type="line"/>
      <point x="834" y="997" type="line"/>
      <point x="767" y="1052"/>
      <point x="651" y="1097"/>
      <point x="533" y="1097" type="curve" smooth="yes"/>
      <point x="230" y="1097"/>
      <point x="124" y="935"/>
      <point x="124" y="751" type="curve" smooth="yes"/>
      <point x="124" y="366" type="line" smooth="yes"/>
      <point x="124" y="155"/>
      <point x="284" y="32"/>
      <point x="543" y="32" type="curve" smooth="yes"/>
      <point x="625" y="32"/>
      <point x="723" y="50"/>
      <point x="787" y="88" type="curve"/>
      <point x="787" y="-30" type="line" smooth="yes"/>
      <point x="787" y="-178"/>
      <point x="720" y="-242"/>
      <point x="564" y="-242" type="curve" smooth="yes"/>
      <point x="481" y="-242"/>
      <point x="376" y="-228"/>
      <point x="275" y="-200" type="curve"/>
      <point x="219" y="-385" type="line"/>
      <point x="294" y="-421"/>
      <point x="441" y="-441"/>
    </contour>
    <contour>
      <point x="588" y="213" type="curve" smooth="yes"/>
      <point x="475" y="213"/>
      <point x="396" y="248"/>
      <point x="396" y="356" type="curve" smooth="yes"/>
      <point x="396" y="757" type="line" smooth="yes"/>
      <point x="396" y="865"/>
      <point x="464" y="907"/>
      <point x="588" y="907" type="curve" smooth="yes"/>
      <point x="711" y="907"/>
      <point x="787" y="860"/>
      <point x="787" y="832" type="curve" smooth="yes"/>
      <point x="787" y="261" type="line"/>
      <point x="750" y="234"/>
      <point x="680" y="213"/>
    </contour>
  </outline>
</glyph>
<glyph name="h" format="1">
  <advance width="1254"/>
  <unicode hex="0068"/>
  <outline>
    <contour>
      <point x="162" y="0" type="line"/>
      <point x="434" y="0" type="line"/>
      <point x="434" y="738" type="line" smooth="yes"/>
      <point x="434" y="842"/>
      <point x="549" y="894"/>
      <point x="647" y="894" type="curve" smooth="yes"/>
      <point x="732" y="894"/>
      <point x="830" y="869"/>
      <point x="830" y="756" type="curve" smooth="yes"/>
      <point x="830" y="0" type="line"/>
      <point x="1102" y="0" type="line"/>
      <point x="1102" y="795" type="line" smooth="yes"/>
      <point x="1102" y="976"/>
      <point x="976" y="1097"/>
      <point x="770" y="1097" type="curve" smooth="yes"/>
      <point x="621" y="1097"/>
      <point x="480" y="1045"/>
      <point x="434" y="970" type="curve"/>
      <point x="434" y="1515" type="line"/>
      <point x="162" y="1515" type="line"/>
    </contour>
  </outline>
</glyph>
<glyph name="i" format="1">
  <advance width="598"/>
  <unicode hex="0069"/>
  <outline>
    <contour>
      <point x="166" y="0" type="line"/>
      <point x="438" y="0" type="line"/>
      <point x="438" y="1074" type="line"/>
      <point x="166" y="1074" type="line"/>
    </contour>
    <contour>
      <point x="166" y="1227" type="line"/>
      <point x="438" y="1227" type="line"/>
      <point x="438" y="1468" type="line"/>
      <point x="166" y="1468" type="line"/>
    </contour>
  </outline>
</glyph>
<glyph name="j" format="1">
  <advance width="638"/>
  <unicode hex="006A"/>
  <outline>
    <contour>
      <point x="3" y="-362" type="line"/>
      <point x="104" y="-362" type="line" smooth="yes"/>
      <point x="371" y="-362"/>
      <point x="478" y="-216"/>
      <point x="478" y="-3" type="curve" smooth="yes"/>
      <point x="478" y="1074" type="line"/>
      <point x="206" y="1074" type="line"/>
      <point x="206" y="10" type="line" smooth="yes"/>
      <point x="206" y="-72"/>
      <point x="174" y="-168"/>
      <point x="34" y="-168" type="curve" smooth="yes"/>
      <point x="-10" y="-168" type="line"/>
    </contour>
    <contour>
      <point x="204" y="1227" type="line"/>
      <point x="476" y="1227" type="line"/>
      <point x="476" y="1468" type="line"/>
      <point x="204" y="1468" type="line"/>
    </contour>
  </outline>
</glyph>
<glyph name="k" format="1">
  <advance width="1199"/>
  <unicode hex="006B"/>
  <outline>
    <contour>
      <point x="162" y="0" type="line"/>
      <point x="434" y="0" type="line"/>
      <point x="434" y="374" type="line"/>
      <point x="554" y="497" type="line"/>
      <point x="890" y="0" type="line"/>
      <point x="1187" y="0" type="line"/>
      <point x="765" y="611" type="line"/>
      <point x="1169" y="1074" type="line"/>
      <point x="859" y="1074" type="line"/>
      <point x="434" y="602" type="line"/>
      <point x="434" y="1516" type="line"/>
      <point x="162" y="1516" type="line"/>
    </contour>
  </outline>
</glyph>
<glyph name="l" format="1">
  <advance width="708"/>
  <unicode hex="006C"/>
  <outline>
    <contour>
      <point x="527" y="-12" type="curve" smooth="yes"/>
      <point x="641" y="-12" type="line"/>
      <point x="662" y="190" type="line"/>
      <point x="628" y="190" type="line" smooth="yes"/>
      <point x="482" y="190"/>
      <point x="436" y="239"/>
      <point x="436" y="357" type="curve" smooth="yes"/>
      <point x="436" y="1515" type="line"/>
      <point x="164" y="1515" type="line"/>
      <point x="164" y="353" type="line" smooth="yes"/>
      <point x="164" y="83"/>
      <point x="288" y="-12"/>
    </contour>
  </outline>
</glyph>
<glyph name="m" format="1">
  <advance width="1894"/>
  <unicode hex="006D"/>
  <outline>
    <contour>
      <point x="160" y="0" type="line"/>
      <point x="432" y="0" type="line"/>
      <point x="432" y="739" type="line" smooth="yes"/>
      <point x="432" y="844"/>
      <point x="559" y="897"/>
      <point x="657" y="897" type="curve" smooth="yes"/>
      <point x="742" y="897"/>
      <point x="817" y="875"/>
      <point x="817" y="762" type="curve" smooth="yes"/>
      <point x="817" y="0" type="line"/>
      <point x="1089" y="0" type="line"/>
      <point x="1089" y="750" type="line"/>
      <point x="1097" y="846"/>
      <point x="1220" y="897"/>
      <point x="1317" y="897" type="curve" smooth="yes"/>
      <point x="1401" y="897"/>
      <point x="1470" y="875"/>
      <point x="1470" y="762" type="curve" smooth="yes"/>
      <point x="1470" y="0" type="line"/>
      <point x="1742" y="0" type="line"/>
      <point x="1742" y="794" type="line" smooth="yes"/>
      <point x="1742" y="975"/>
      <point x="1607" y="1097"/>
      <point x="1401" y="1097" type="curve" smooth="yes"/>
      <point x="1231" y="1097"/>
      <point x="1122" y="1042"/>
      <point x="1044" y="964" type="curve"/>
      <point x="989" y="1056"/>
      <point x="887" y="1097"/>
      <point x="749" y="1097" type="curve" smooth="yes"/>
      <point x="570" y="1097"/>
      <point x="463" y="1011"/>
      <point x="432" y="978" type="curve"/>
      <point x="432" y="1074" type="line"/>
      <point x="160" y="1074" type="line"/>
    </contour>
  </outline>
</glyph>
<glyph name="n" format="1">
  <advance width="1254"/>
  <unicode hex="006E"/>
  <outline>
    <contour>
      <point x="160" y="0" type="line"/>
      <point x="432" y="0" type="line"/>
      <point x="432" y="735" type="line" smooth="yes"/>
      <point x="432" y="840"/>
      <point x="543" y="894"/>
      <point x="641" y="894" type="curve" smooth="yes"/>
      <point x="726" y="894"/>
      <point x="830" y="868"/>
      <point x="830" y="755" type="curve" smooth="yes"/>
      <point x="830" y="0" type="line"/>
      <point x="1102" y="0" type="line"/>
      <point x="1102" y="770" type="line" smooth="yes"/>
      <point x="1102" y="951"/>
      <point x="997" y="1090"/>
      <point x="791" y="1098" type="curve" smooth="yes"/>
      <point x="572" y="1107"/>
      <point x="455" y="999"/>
      <point x="432" y="979" type="curve"/>
      <point x="432" y="1074" type="line"/>
      <point x="160" y="1074" type="line"/>
    </contour>
  </outline>
</glyph>
<glyph name="o" format="1">
  <advance width="1180"/>
  <unicode hex="006F"/>
  <outline>
    <contour>
      <point x="590" y="166" type="curve" smooth="yes"/>
      <point x="465" y="166"/>
      <point x="396" y="204"/>
      <point x="396" y="313" type="curve" smooth="yes"/>
      <point x="396" y="760" type="line" smooth="yes"/>
      <point x="396" y="869"/>
      <point x="472" y="907"/>
      <point x="590" y="907" type="curve" smooth="yes"/>
      <point x="713" y="907"/>
      <point x="784" y="869"/>
      <point x="784" y="760" type="curve" smooth="yes"/>
      <point x="784" y="313" type="line" smooth="yes"/>
      <point x="784" y="204"/>
      <point x="706" y="166"/>
    </contour>
    <contour>
      <point x="590" y="-23" type="curve" smooth="yes"/>
      <point x="939" y="-23"/>
      <point x="1056" y="112"/>
      <point x="1056" y="325" type="curve" smooth="yes"/>
      <point x="1056" y="748" type="line" smooth="yes"/>
      <point x="1056" y="967"/>
      <point x="883" y="1097"/>
      <point x="590" y="1097" type="curve" smooth="yes"/>
      <point x="295" y="1097"/>
      <point x="124" y="967"/>
      <point x="124" y="748" type="curve" smooth="yes"/>
      <point x="124" y="325" type="line" smooth="yes"/>
      <point x="124" y="111"/>
      <point x="251" y="-23"/>
    </contour>
  </outline>
</glyph>
<glyph name="p" format="1">
  <advance width="1202"/>
  <unicode hex="0070"/>
  <outline>
    <contour>
      <point x="160" y="-410" type="line"/>
      <point x="432" y="-410" type="line"/>
      <point x="432" y="17" type="line"/>
      <point x="484" y="-6"/>
      <point x="552" y="-23"/>
      <point x="637" y="-23" type="curve" smooth="yes"/>
      <point x="940" y="-23"/>
      <point x="1078" y="142"/>
      <point x="1078" y="326" type="curve" smooth="yes"/>
      <point x="1078" y="751" type="line" smooth="yes"/>
      <point x="1078" y="957"/>
      <point x="929" y="1097"/>
      <point x="669" y="1097" type="curve" smooth="yes"/>
      <point x="552" y="1097"/>
      <point x="448" y="1056"/>
      <point x="377" y="1004" type="curve"/>
      <point x="350" y="1074" type="line"/>
      <point x="160" y="1074" type="line"/>
    </contour>
    <contour>
      <point x="614" y="166" type="curve" smooth="yes"/>
      <point x="509" y="166"/>
      <point x="447" y="205"/>
      <point x="432" y="213" type="curve"/>
      <point x="432" y="841" type="line"/>
      <point x="463" y="872"/>
      <point x="536" y="907"/>
      <point x="623" y="907" type="curve" smooth="yes"/>
      <point x="737" y="907"/>
      <point x="806" y="863"/>
      <point x="806" y="755" type="curve" smooth="yes"/>
      <point x="806" y="320" type="line" smooth="yes"/>
      <point x="806" y="211"/>
      <point x="738" y="166"/>
    </contour>
  </outline>
</glyph>
<glyph name="q" format="1">
  <advance width="1194"/>
  <unicode hex="0071"/>
  <outline>
    <contour>
      <point x="770" y="-410" type="line"/>
      <point x="1042" y="-410" type="line"/>
      <point x="1042" y="1074" type="line"/>
      <point x="839" y="1074" type="line"/>
      <point x="820" y="1005" type="line"/>
      <point x="759" y="1056"/>
      <point x="655" y="1097"/>
      <point x="543" y="1097" type="curve" smooth="yes"/>
      <point x="282" y="1097"/>
      <point x="124" y="960"/>
      <point x="124" y="750" type="curve" smooth="yes"/>
      <point x="124" y="317" type="line" smooth="yes"/>
      <point x="124" y="136"/>
      <point x="235" y="-23"/>
      <point x="537" y="-23" type="curve" smooth="yes"/>
      <point x="619" y="-23"/>
      <point x="705" y="-4"/>
      <point x="770" y="33" type="curve"/>
    </contour>
    <contour>
      <point x="588" y="166" type="curve" smooth="yes"/>
      <point x="467" y="166"/>
      <point x="396" y="200"/>
      <point x="396" y="308" type="curve" smooth="yes"/>
      <point x="396" y="756" type="line" smooth="yes"/>
      <point x="396" y="865"/>
      <point x="472" y="907"/>
      <point x="588" y="907" type="curve" smooth="yes"/>
      <point x="685" y="907"/>
      <point x="745" y="878"/>
      <point x="770" y="839" type="curve"/>
      <point x="770" y="220" type="line"/>
      <point x="767" y="213"/>
      <point x="702" y="166"/>
    </contour>
  </outline>
</glyph>
<glyph name="r" format="1">
  <advance width="831"/>
  <unicode hex="0072"/>
  <outline>
    <contour>
      <point x="160" y="0" type="line"/>
      <point x="432" y="0" type="line"/>
      <point x="432" y="720" type="line"/>
      <point x="453" y="806"/>
      <point x="667" y="852"/>
      <point x="805" y="859" type="curve"/>
      <point x="811" y="1090" type="line"/>
      <point x="721" y="1100"/>
      <point x="483" y="1045"/>
      <point x="432" y="946" type="curve"/>
      <point x="432" y="1074" type="line"/>
      <point x="160" y="1074" type="line"/>
    </contour>
  </outline>
</glyph>
<glyph name="s" format="1">
  <advance width="994"/>
  <unicode hex="0073"/>
  <outline>
    <contour>
      <point x="527" y="-23" type="curve" smooth="yes"/>
      <point x="784" y="-23"/>
      <point x="912" y="122"/>
      <point x="912" y="303" type="curve" smooth="yes"/>
      <point x="912" y="471"/>
      <point x="851" y="569"/>
      <point x="670" y="626" type="curve" smooth="yes"/>
      <point x="448" y="696" type="line" smooth="yes"/>
      <point x="393" y="713"/>
      <point x="370" y="751"/>
      <point x="375" y="806" type="curve" smooth="yes"/>
      <point x="380" y="867"/>
      <point x="410" y="907"/>
      <point x="525" y="907" type="curve" smooth="yes"/>
      <point x="627" y="907"/>
      <point x="761" y="870"/>
      <point x="824" y="837" type="curve"/>
      <point x="888" y="1006" type="line"/>
      <point x="811" y="1050"/>
      <point x="684" y="1097"/>
      <point x="500" y="1097" type="curve" smooth="yes"/>
      <point x="274" y="1097"/>
      <point x="116" y="1001"/>
      <point x="114" y="796" type="curve" smooth="yes"/>
      <point x="111" y="652"/>
      <point x="167" y="542"/>
      <point x="336" y="489" type="curve" smooth="yes"/>
      <point x="572" y="415" type="line" smooth="yes"/>
      <point x="654" y="389"/>
      <point x="670" y="338"/>
      <point x="661" y="279" type="curve" smooth="yes"/>
      <point x="652" y="219"/>
      <point x="619" y="166"/>
      <point x="517" y="166" type="curve" smooth="yes"/>
      <point x="411" y="166"/>
      <point x="278" y="197"/>
      <point x="163" y="246" type="curve"/>
      <point x="108" y="61" type="line"/>
      <point x="220" y="4"/>
      <point x="345" y="-23"/>
    </contour>
  </outline>
</glyph>
<glyph name="t" format="1">
  <advance width="813"/>
  <unicode hex="0074"/>
  <outline>
    <contour>
      <point x="664" y="-12" type="curve" smooth="yes"/>
      <point x="731" y="-12" type="line"/>
      <point x="741" y="190" type="line"/>
      <point x="709" y="190" type="line" smooth="yes"/>
      <point x="529" y="190"/>
      <point x="479" y="227"/>
      <point x="479" y="360" type="curve" smooth="yes"/>
      <point x="479" y="901" type="line"/>
      <point x="734" y="901" type="line"/>
      <point x="734" y="1074" type="line"/>
      <point x="479" y="1074" type="line"/>
      <point x="479" y="1419" type="line"/>
      <point x="240" y="1419" type="line"/>
      <point x="215" y="1074" type="line"/>
      <point x="64" y="1074" type="line"/>
      <point x="64" y="901" type="line"/>
      <point x="207" y="901" type="line"/>
      <point x="207" y="341" type="line" smooth="yes"/>
      <point x="207" y="65"/>
      <point x="340" y="-12"/>
    </contour>
  </outline>
</glyph>
<glyph name="u" format="1">
  <advance width="1247"/>
  <unicode hex="0075"/>
  <outline>
    <contour>
      <point x="485" y="-23" type="curve" smooth="yes"/>
      <point x="634" y="-30"/>
      <point x="784" y="29"/>
      <point x="827" y="118" type="curve"/>
      <point x="835" y="0" type="line"/>
      <point x="1091" y="0" type="line"/>
      <point x="1091" y="1074" type="line"/>
      <point x="819" y="1074" type="line"/>
      <point x="819" y="350" type="line" smooth="yes"/>
      <point x="819" y="230"/>
      <point x="705" y="182"/>
      <point x="606" y="182" type="curve" smooth="yes"/>
      <point x="522" y="182"/>
      <point x="424" y="223"/>
      <point x="424" y="335" type="curve" smooth="yes"/>
      <point x="424" y="1074" type="line"/>
      <point x="152" y="1074" type="line"/>
      <point x="152" y="291" type="line" smooth="yes"/>
      <point x="152" y="110"/>
      <point x="279" y="-13"/>
    </contour>
  </outline>
</glyph>
<glyph name="w" format="1">
  <advance width="1648"/>
  <unicode hex="0077"/>
  <outline>
    <contour>
      <point x="343" y="0" type="line"/>
      <point x="601" y="0" type="line"/>
      <point x="830" y="741" type="line"/>
      <point x="1050" y="0" type="line"/>
      <point x="1316" y="0" type="line"/>
      <point x="1602" y="1074" type="line"/>
      <point x="1349" y="1074" type="line"/>
      <point x="1170" y="295" type="line"/>
      <point x="938" y="1074" type="line"/>
      <point x="717" y="1074" type="line"/>
      <point x="492" y="304" type="line"/>
      <point x="300" y="1074" type="line"/>
      <point x="46" y="1074" type="line"/>
    </contour>
  </outline>
</glyph>
<glyph name="x" format="1">
  <advance width="1082"/>
  <unicode hex="0078"/>
  <outline>
    <contour>
      <point x="36" y="0" type="line"/>
      <point x="325" y="0" type="line"/>
      <point x="549" y="338" type="line"/>
      <point x="775" y="0" type="line"/>
      <point x="1046" y="0" type="line"/>
      <point x="684" y="536" type="line"/>
      <point x="1044" y="1074" type="line"/>
      <point x="767" y="1074" type="line"/>
      <point x="544" y="738" type="line"/>
      <point x="321" y="1074" type="line"/>
      <point x="37" y="1074" type="line"/>
      <point x="406" y="540" type="line"/>
    </contour>
  </outline>
</glyph>
<glyph name="y" format="1">
  <advance width="1083"/>
  <unicode hex="0079"/>
  <outline>
    <contour>
      <point x="148" y="-485" type="line"/>
      <point x="478" y="-444"/>
      <point x="606" y="-248"/>
      <point x="741" y="140" type="curve" smooth="yes"/>
      <point x="1067" y="1074" type="line"/>
      <point x="797" y="1074" type="line"/>
      <point x="574" y="353" type="line"/>
      <point x="295" y="1074" type="line"/>
      <point x="33" y="1074" type="line"/>
      <point x="437" y="36" type="line"/>
      <point x="395" y="-89"/>
      <point x="328" y="-220"/>
      <point x="128" y="-260" type="curve"/>
    </contour>
  </outline>
</glyph>
<glyph name="z" format="1">
  <advance width="906"/>
  <unicode hex="007A"/>
  <outline>
    <contour>
      <point x="104" y="0" type="line"/>
      <point x="813" y="0" type="line"/>
      <point x="813" y="190" type="line"/>
      <point x="399" y="190" type="line"/>
      <point x="818" y="910" type="line"/>
      <point x="818" y="1074" type="line"/>
      <point x="114" y="1074" type="line"/>
      <point x="114" y="888" type="line"/>
      <point x="526" y="888" type="line"/>
      <point x="104" y="167" type="line"/>
    </contour>
  </outline>
</glyph>
<glyph name="braceleft" format="1">
  <advance width="992"/>
  <unicode hex="007B"/>
  <outline>
    <contour>
      <point x="846" y="-128" type="curve"/>
      <point x="846" y="-128"/>
      <point x="847" y="46"/>
      <point x="846" y="46" type="curve" smooth="yes"/>
      <point x="673" y="46"/>
      <point x="659" y="101"/>
      <point x="659" y="252" type="curve" smooth="yes"/>
      <point x="659" y="369" type="line" smooth="yes"/>
      <point x="659" y="569"/>
      <point x="616" y="680"/>
      <point x="498" y="722" type="curve"/>
      <point x="611" y="758"/>
      <point x="658" y="896"/>
      <point x="658" y="1080" type="curve" smooth="yes"/>
      <point x="658" y="1210" type="line" smooth="yes"/>
      <point x="658" y="1349"/>
      <point x="671" y="1382"/>
      <point x="846" y="1382" type="curve" smooth="yes"/>
      <point x="847" y="1382"/>
      <point x="846" y="1556"/>
      <point x="846" y="1556" type="curve"/>
      <point x="489" y="1556"/>
      <point x="379" y="1515"/>
      <point x="379" y="1139" type="curve" smooth="yes"/>
      <point x="379" y="1036" type="line" smooth="yes"/>
      <point x="379" y="873"/>
      <point x="335" y="833"/>
      <point x="188" y="833" type="curve"/>
      <point x="188" y="595" type="line"/>
      <point x="334" y="595"/>
      <point x="379" y="572"/>
      <point x="379" y="409" type="curve" smooth="yes"/>
      <point x="379" y="322" type="line" smooth="yes"/>
      <point x="379" y="-11"/>
      <point x="471" y="-128"/>
    </contour>
  </outline>
</glyph>
<glyph name="bar" format="1">
  <advance width="768"/>
  <unicode hex="007C"/>
  <outline>
    <contour>
      <point x="262" y="-126" type="line"/>
      <point x="506" y="-126" type="line"/>
      <point x="506" y="1608" type="line"/>
      <point x="262" y="1608" type="line"/>
    </contour>
  </outline>
</glyph>
<glyph name="braceright" format="1">
  <advance width="991"/>
  <unicode hex="007D"/>
  <outline>
    <contour>
      <point x="175" y="-117" type="line" smooth="yes"/>
      <point x="532" y="-117"/>
      <point x="642" y="-75"/>
      <point x="642" y="300" type="curve" smooth="yes"/>
      <point x="642" y="404" type="line" smooth="yes"/>
      <point x="642" y="566"/>
      <point x="685" y="606"/>
      <point x="832" y="606" type="curve"/>
      <point x="832" y="844" type="line"/>
      <point x="686" y="844"/>
      <point x="642" y="868"/>
      <point x="642" y="1030" type="curve" smooth="yes"/>
      <point x="642" y="1118" type="line" smooth="yes"/>
      <point x="642" y="1451"/>
      <point x="550" y="1567"/>
      <point x="175" y="1567" type="curve"/>
      <point x="175" y="1567"/>
      <point x="174" y="1393"/>
      <point x="175" y="1393" type="curve" smooth="yes"/>
      <point x="348" y="1393"/>
      <point x="362" y="1339"/>
      <point x="362" y="1187" type="curve" smooth="yes"/>
      <point x="362" y="1071" type="line"/>
      <point x="362" y="870"/>
      <point x="405" y="760"/>
      <point x="523" y="718" type="curve"/>
      <point x="410" y="682"/>
      <point x="363" y="543"/>
      <point x="363" y="360" type="curve" smooth="yes"/>
      <point x="363" y="229" type="line"/>
      <point x="363" y="90"/>
      <point x="350" y="57"/>
      <point x="175" y="57" type="curve" smooth="yes"/>
      <point x="174" y="57"/>
      <point x="175" y="-117"/>
      <point x="175" y="-117" type="curve"/>
    </contour>
  </outline>
</glyph>
<glyph name="asciitilde" format="1">
  <advance width="1024"/>
  <unicode hex="007E"/>
  <outline>
    <contour>
      <point x="332" y="1466" type="curve" smooth="yes"/>
      <point x="197" y="1466"/>
      <point x="90" y="1336"/>
      <point x="90" y="1147" type="curve"/>
      <point x="198" y="1147" type="line"/>
      <point x="198" y="1218"/>
      <point x="231" y="1300"/>
      <point x="322" y="1300" type="curve" smooth="yes"/>
      <point x="401" y="1300"/>
      <point x="537" y="1131"/>
      <point x="691" y="1131" type="curve" smooth="yes"/>
      <point x="826" y="1131"/>
      <point x="934" y="1262"/>
      <point x="934" y="1450" type="curve"/>
      <point x="825" y="1450" type="line"/>
      <point x="825" y="1379"/>
      <point x="792" y="1298"/>
      <point x="702" y="1298" type="curve" smooth="yes"/>
      <point x="622" y="1298"/>
      <point x="485" y="1466"/>
    </contour>
  </outline>
</glyph>
<glyph name="cent" format="1">
  <advance width="1107"/>
  <unicode hex="00A2"/>
  <outline>
    <contour>
      <point x="631" y="1291" type="line"/>
      <point x="538" y="1291" type="line"/>
      <point x="538" y="-214" type="line"/>
      <point x="631" y="-214" type="line"/>
    </contour>
    <component base="c"/>
  </outline>
</glyph>
<glyph name="sterling" format="1">
  <advance width="1285"/>
  <unicode hex="00A3"/>
  <outline>
    <contour>
      <point x="206" y="0" type="line"/>
      <point x="1124" y="0" type="line"/>
      <point x="1124" y="226" type="line"/>
      <point x="516" y="226" type="line"/>
      <point x="550" y="621" type="line"/>
      <point x="1043" y="621" type="line"/>
      <point x="1043" y="812" type="line"/>
      <point x="567" y="812" type="line"/>
      <point x="586" y="1044" type="line" smooth="yes"/>
      <point x="596" y="1180"/>
      <point x="639" y="1281"/>
      <point x="795" y="1281" type="curve" smooth="yes"/>
      <point x="866" y="1281"/>
      <point x="953" y="1261"/>
      <point x="1059" y="1214" type="curve"/>
      <point x="1130" y="1415" type="line"/>
      <point x="1052" y="1467"/>
      <point x="914" y="1515"/>
      <point x="771" y="1515" type="curve" smooth="yes"/>
      <point x="440" y="1515"/>
      <point x="307" y="1344"/>
      <point x="291" y="1061" type="curve" smooth="yes"/>
      <point x="271" y="812" type="line"/>
      <point x="134" y="812" type="line"/>
      <point x="134" y="621" type="line"/>
      <point x="256" y="621" type="line"/>
    </contour>
  </outline>
</glyph>
<glyph name="currency" format="1">
  <advance width="1126"/>
  <unicode hex="00A4"/>
  <outline>
    <contour>
      <point x="560" y="381" type="curve" smooth="yes"/>
      <point x="669" y="381"/>
      <point x="754" y="423"/>
      <point x="811" y="485" type="curve"/>
      <point x="950" y="384" type="line"/>
      <point x="1002" y="465" type="line"/>
      <point x="864" y="563" type="line"/>
      <point x="888" y="611"/>
      <point x="899" y="667"/>
      <point x="899" y="723" type="curve" smooth="yes"/>
      <point x="899" y="779"/>
      <point x="887" y="836"/>
      <point x="862" y="886" type="curve"/>
      <point x="999" y="986" type="line"/>
      <point x="952" y="1067" type="line"/>
      <point x="809" y="964" type="line"/>
      <point x="752" y="1025"/>
      <point x="669" y="1064"/>
      <point x="560" y="1064" type="curve" smooth="yes"/>
      <point x="452" y="1064"/>
      <point x="368" y="1026"/>
      <point x="311" y="968" type="curve"/>
      <point x="177" y="1067" type="line"/>
      <point x="124" y="987" type="line"/>
      <point x="256" y="892" type="line"/>
      <point x="230" y="840"/>
      <point x="216" y="782"/>
      <point x="216" y="723" type="curve" smooth="yes"/>
      <point x="216" y="665"/>
      <point x="229" y="608"/>
      <point x="254" y="559" type="curve"/>
      <point x="126" y="467" type="line"/>
      <point x="174" y="383" type="line"/>
      <point x="309" y="480" type="line"/>
      <point x="366" y="420"/>
      <point x="451" y="381"/>
    </contour>
    <contour>
      <point x="560" y="528" type="curve" smooth="yes"/>
      <point x="429" y="528"/>
      <point x="368" y="622"/>
      <point x="368" y="723" type="curve" smooth="yes"/>
      <point x="368" y="824"/>
      <point x="429" y="918"/>
      <point x="560" y="918" type="curve" smooth="yes"/>
      <point x="689" y="918"/>
      <point x="748" y="824"/>
      <point x="748" y="723" type="curve" smooth="yes"/>
      <point x="748" y="622"/>
      <point x="689" y="528"/>
    </contour>
  </outline>
</glyph>
<glyph name="yen" format="1">
  <advance width="1304"/>
  <unicode hex="00A5"/>
  <outline>
    <contour>
      <point x="1058" y="208" type="line"/>
      <point x="1058" y="368" type="line"/>
      <point x="775" y="368" type="line"/>
      <point x="775" y="496" type="line"/>
      <point x="1058" y="496" type="line"/>
      <point x="1058" y="656" type="line"/>
      <point x="258" y="656" type="line"/>
      <point x="258" y="496" type="line"/>
      <point x="559" y="496" type="line"/>
      <point x="559" y="368" type="line"/>
      <point x="258" y="368" type="line"/>
      <point x="258" y="208" type="line"/>
    </contour>
    <component base="Y"/>
  </outline>
</glyph>
<glyph name="brokenbar" format="1">
  <advance width="769"/>
  <unicode hex="00A6"/>
  <outline>
    <contour>
      <point x="280" y="-120" type="line"/>
      <point x="489" y="-120" type="line"/>
      <point x="489" y="590" type="line"/>
      <point x="280" y="590" type="line"/>
    </contour>
    <contour>
      <point x="280" y="800" type="line"/>
      <point x="489" y="800" type="line"/>
      <point x="489" y="1476" type="line"/>
      <point x="280" y="1476" type="line"/>
    </contour>
  </outline>
</glyph>
<glyph name="section" format="1">
  <advance width="1085"/>
  <unicode hex="00A7"/>
  <outline>
    <contour>
      <point x="556" y="-22" type="curve" smooth="yes"/>
      <point x="813" y="-22"/>
      <point x="941" y="123"/>
      <point x="941" y="304" type="curve" smooth="yes"/>
      <point x="941" y="403"/>
      <point x="912" y="457"/>
      <point x="857" y="505" type="curve"/>
      <point x="1017" y="653"/>
      <point x="1007" y="859"/>
      <point x="748" y="981" type="curve" smooth="yes"/>
      <point x="487" y="1104" type="line" smooth="yes"/>
      <point x="435" y="1129"/>
      <point x="404" y="1151"/>
      <point x="404" y="1206" type="curve" smooth="yes"/>
      <point x="404" y="1334"/>
      <point x="622" y="1345"/>
      <point x="840" y="1218" type="curve"/>
      <point x="924" y="1377" type="line"/>
      <point x="854" y="1431"/>
      <point x="713" y="1497"/>
      <point x="529" y="1497" type="curve" smooth="yes"/>
      <point x="303" y="1497"/>
      <point x="152" y="1405"/>
      <point x="150" y="1200" type="curve" smooth="yes"/>
      <point x="148" y="1107"/>
      <point x="179" y="1050"/>
      <point x="242" y="999" type="curve"/>
      <point x="99" y="892"/>
      <point x="67" y="662"/>
      <point x="326" y="537" type="curve" smooth="yes"/>
      <point x="587" y="411" type="line" smooth="yes"/>
      <point x="665" y="373"/>
      <point x="689" y="339"/>
      <point x="689" y="286" type="curve" smooth="yes"/>
      <point x="689.0" y="163.647058824"/>
      <point x="468" y="118"/>
      <point x="218" y="281" type="curve"/>
      <point x="124" y="112" type="line"/>
      <point x="222" y="32"/>
      <point x="374" y="-22"/>
    </contour>
    <contour>
      <point x="738" y="579" type="curve"/>
      <point x="403" y="733" type="line" smooth="yes"/>
      <point x="338" y="762"/>
      <point x="317" y="797"/>
      <point x="318" y="852" type="curve" smooth="yes"/>
      <point x="318" y="886"/>
      <point x="344" y="930"/>
      <point x="360" y="941" type="curve"/>
      <point x="661" y="797" type="line" smooth="yes"/>
      <point x="751" y="758"/>
      <point x="760" y="705"/>
      <point x="760" y="652" type="curve" smooth="yes"/>
      <point x="760" y="628"/>
      <point x="753" y="601"/>
    </contour>
  </outline>
</glyph>
<glyph name="dieresis" format="1">
  <advance width="967"/>
  <unicode hex="00A8"/>
  <outline>
    <contour>
      <point x="115" y="1244" type="line"/>
      <point x="379" y="1244" type="line"/>
      <point x="379" y="1477" type="line"/>
      <point x="115" y="1477" type="line"/>
    </contour>
    <contour>
      <point x="624" y="1244" type="line"/>
      <point x="889" y="1244" type="line"/>
      <point x="889" y="1477" type="line"/>
      <point x="624" y="1477" type="line"/>
    </contour>
  </outline>
</glyph>
<glyph name="copyright" format="1">
  <advance width="1776"/>
  <unicode hex="00A9"/>
  <outline>
    <contour>
      <point x="899" y="287" type="curve" smooth="yes"/>
      <point x="1175" y="287"/>
      <point x="1224" y="422"/>
      <point x="1224" y="598" type="curve" smooth="yes"/>
      <point x="1224" y="632" type="line"/>
      <point x="1108" y="632" type="line"/>
      <point x="1108" y="571" type="line" smooth="yes"/>
      <point x="1108" y="419"/>
      <point x="1052" y="376"/>
      <point x="899" y="376" type="curve" smooth="yes"/>
      <point x="747" y="376"/>
      <point x="667" y="419"/>
      <point x="667" y="571" type="curve" smooth="yes"/>
      <point x="667" y="890" type="line" smooth="yes"/>
      <point x="667" y="1042"/>
      <point x="747" y="1091"/>
      <point x="898" y="1091" type="curve" smooth="yes"/>
      <point x="1050" y="1091"/>
      <point x="1108" y="1042"/>
      <point x="1108" y="890" type="curve" smooth="yes"/>
      <point x="1108" y="826" type="line"/>
      <point x="1224" y="836" type="line"/>
      <point x="1224" y="861" type="line" smooth="yes"/>
      <point x="1224" y="1043"/>
      <point x="1175" y="1182"/>
      <point x="898" y="1182" type="curve" smooth="yes"/>
      <point x="610" y="1182"/>
      <point x="547" y="1050"/>
      <point x="547" y="868" type="curve" smooth="yes"/>
      <point x="547" y="590" type="line" smooth="yes"/>
      <point x="547" y="411"/>
      <point x="612" y="287"/>
    </contour>
    <contour>
      <point x="890" y="82" type="curve" smooth="yes"/>
      <point x="526" y="82"/>
      <point x="261" y="357"/>
      <point x="261" y="722" type="curve" smooth="yes"/>
      <point x="261" y="1086"/>
      <point x="526" y="1361"/>
      <point x="890" y="1361" type="curve" smooth="yes"/>
      <point x="1256" y="1361"/>
      <point x="1518" y="1086"/>
      <point x="1518" y="722" type="curve" smooth="yes"/>
      <point x="1518" y="357"/>
      <point x="1256" y="82"/>
    </contour>
    <contour>
      <point x="888" y="-14" type="curve" smooth="yes"/>
      <point x="1304" y="-14"/>
      <point x="1624" y="303"/>
      <point x="1624" y="722" type="curve" smooth="yes"/>
      <point x="1624" y="1139"/>
      <point x="1304" y="1456"/>
      <point x="888" y="1456" type="curve" smooth="yes"/>
      <point x="475" y="1456"/>
      <point x="152" y="1139"/>
      <point x="152" y="722" type="curve" smooth="yes"/>
      <point x="152" y="303"/>
      <point x="475" y="-14"/>
    </contour>
  </outline>
</glyph>
<glyph name="ordfeminine" format="1">
  <advance width="1024"/>
  <unicode hex="00AA"/>
  <outline>
    <contour>
      <point x="386" y="517" type="line"/>
      <point x="513" y="517"/>
      <point x="606" y="591"/>
      <point x="653" y="656" type="curve"/>
      <point x="684" y="582"/>
      <point x="717" y="531"/>
      <point x="837" y="531" type="curve" smooth="yes"/>
      <point x="922" y="531" type="line"/>
      <point x="940" y="701" type="line"/>
      <point x="870" y="701"/>
      <point x="854" y="728"/>
      <point x="854" y="812" type="curve" smooth="yes"/>
      <point x="854" y="1166" type="line" smooth="yes"/>
      <point x="854" y="1356"/>
      <point x="765" y="1478"/>
      <point x="506" y="1478" type="curve" smooth="yes"/>
      <point x="269" y="1478"/>
      <point x="161" y="1363"/>
      <point x="161" y="1185" type="curve" smooth="yes"/>
      <point x="161" y="1158" type="line"/>
      <point x="366" y="1158" type="line"/>
      <point x="366" y="1194" type="line" smooth="yes"/>
      <point x="366" y="1265"/>
      <point x="391" y="1316"/>
      <point x="501" y="1316" type="curve" smooth="yes"/>
      <point x="599" y="1316"/>
      <point x="634" y="1278"/>
      <point x="634" y="1204" type="curve"/>
      <point x="633" y="1088"/>
      <point x="565" y="1087"/>
      <point x="409" y="1037" type="curve" smooth="yes"/>
      <point x="164" y="959"/>
      <point x="130" y="897"/>
      <point x="134" y="767" type="curve" smooth="yes"/>
      <point x="138" y="615"/>
      <point x="236" y="518"/>
      <point x="384" y="518" type="curve"/>
    </contour>
    <contour>
      <point x="458" y="684" type="line" smooth="yes"/>
      <point x="385" y="684"/>
      <point x="346" y="724"/>
      <point x="344" y="796" type="curve" smooth="yes"/>
      <point x="342" y="848"/>
      <point x="370" y="896"/>
      <point x="463" y="924" type="curve" smooth="yes"/>
      <point x="536" y="946"/>
      <point x="606" y="976"/>
      <point x="633" y="1002" type="curve"/>
      <point x="633" y="770" type="line"/>
      <point x="593" y="706"/>
      <point x="512" y="684"/>
      <point x="459" y="684" type="curve" smooth="yes"/>
    </contour>
  </outline>
</glyph>
<glyph name="guillemotleft" format="1">
  <advance width="1024"/>
  <unicode hex="00AB"/>
  <outline>
    <contour>
      <point x="347" y="80" type="line"/>
      <point x="487" y="150" type="line"/>
      <point x="280" y="530" type="line"/>
      <point x="487" y="910" type="line"/>
      <point x="340" y="980" type="line"/>
      <point x="67" y="530" type="line"/>
    </contour>
    <contour>
      <point x="761" y="80" type="line"/>
      <point x="899" y="150" type="line"/>
      <point x="694" y="530" type="line"/>
      <point x="899" y="910" type="line"/>
      <point x="754" y="980" type="line"/>
      <point x="481" y="530" type="line"/>
    </contour>
  </outline>
</glyph>
<glyph name="logicalnot" format="1">
  <advance width="1024"/>
  <unicode hex="00AC"/>
  <outline>
    <contour>
      <point x="705" y="226" type="line"/>
      <point x="853" y="226" type="line"/>
      <point x="853" y="757" type="line"/>
      <point x="129" y="757" type="line"/>
      <point x="129" y="587" type="line"/>
      <point x="705" y="587" type="line"/>
    </contour>
  </outline>
</glyph>
<glyph name="uni00AD" format="1">
  <advance width="775"/>
  <unicode hex="00AD"/>
  <outline>
    <contour>
      <point x="131" y="400" type="line"/>
      <point x="656" y="400" type="line"/>
      <point x="656" y="591" type="line"/>
      <point x="131" y="591" type="line"/>
    </contour>
  </outline>
</glyph>
<glyph name="registered" format="1">
  <advance width="1776"/>
  <unicode hex="00AE"/>
  <outline>
    <contour>
      <point x="592" y="319" type="line"/>
      <point x="723" y="319" type="line"/>
      <point x="723" y="652" type="line"/>
      <point x="982" y="652" type="line"/>
      <point x="1162" y="319" type="line"/>
      <point x="1290" y="319" type="line"/>
      <point x="1106" y="666" type="line"/>
      <point x="1198" y="691"/>
      <point x="1258" y="760"/>
      <point x="1258" y="894" type="curve" smooth="yes"/>
      <point x="1258" y="908" type="line" smooth="yes"/>
      <point x="1254" y="1082"/>
      <point x="1152" y="1153"/>
      <point x="995" y="1153" type="curve" smooth="yes"/>
      <point x="592" y="1153" type="line"/>
    </contour>
    <contour>
      <point x="723" y="742" type="line"/>
      <point x="723" y="1062" type="line"/>
      <point x="999" y="1062" type="line" smooth="yes"/>
      <point x="1117" y="1062"/>
      <point x="1126" y="960"/>
      <point x="1126" y="901" type="curve" smooth="yes"/>
      <point x="1126" y="877" type="line"/>
      <point x="1125" y="814"/>
      <point x="1104" y="742"/>
      <point x="990" y="742" type="curve" smooth="yes"/>
    </contour>
    <contour>
      <point x="890" y="82" type="curve" smooth="yes"/>
      <point x="526" y="82"/>
      <point x="261" y="357"/>
      <point x="261" y="722" type="curve" smooth="yes"/>
      <point x="261" y="1086"/>
      <point x="526" y="1361"/>
      <point x="890" y="1361" type="curve" smooth="yes"/>
      <point x="1256" y="1361"/>
      <point x="1518" y="1086"/>
      <point x="1518" y="722" type="curve" smooth="yes"/>
      <point x="1518" y="357"/>
      <point x="1256" y="82"/>
    </contour>
    <contour>
      <point x="888" y="-14" type="curve" smooth="yes"/>
      <point x="1304" y="-14"/>
      <point x="1624" y="303"/>
      <point x="1624" y="722" type="curve" smooth="yes"/>
      <point x="1624" y="1139"/>
      <point x="1304" y="1456"/>
      <point x="888" y="1456" type="curve" smooth="yes"/>
      <point x="475" y="1456"/>
      <point x="152" y="1139"/>
      <point x="152" y="722" type="curve" smooth="yes"/>
      <point x="152" y="303"/>
      <point x="475" y="-14"/>
    </contour>
  </outline>
</glyph>
<glyph name="macron" format="1">
  <advance width="511"/>
  <unicode hex="00AF"/>
  <outline>
    <contour>
      <point x="-7" y="1251" type="line"/>
      <point x="518" y="1251" type="line"/>
      <point x="518" y="1408" type="line"/>
      <point x="-7" y="1408" type="line"/>
    </contour>
  </outline>
</glyph>
<glyph name="degree" format="1">
  <advance width="974"/>
  <unicode hex="00B0"/>
  <outline>
    <contour>
      <point x="489" y="992" type="curve" smooth="yes"/>
      <point x="351" y="992"/>
      <point x="288" y="1082"/>
      <point x="288" y="1181" type="curve" smooth="yes"/>
      <point x="288" y="1278"/>
      <point x="351" y="1370"/>
      <point x="489" y="1370" type="curve" smooth="yes"/>
      <point x="625" y="1370"/>
      <point x="688" y="1278"/>
      <point x="688" y="1181" type="curve" smooth="yes"/>
      <point x="688" y="1082"/>
      <point x="624" y="992"/>
    </contour>
    <contour>
      <point x="489" y="850" type="curve" smooth="yes"/>
      <point x="725" y="850"/>
      <point x="846" y="1010"/>
      <point x="846" y="1180" type="curve" smooth="yes"/>
      <point x="846" y="1351"/>
      <point x="725" y="1511"/>
      <point x="489" y="1511" type="curve" smooth="yes"/>
      <point x="250" y="1511"/>
      <point x="128" y="1351"/>
      <point x="128" y="1180" type="curve" smooth="yes"/>
      <point x="128" y="1010"/>
      <point x="249" y="850"/>
    </contour>
  </outline>
</glyph>
<glyph name="plusminus" format="1">
  <advance width="1024"/>
  <unicode hex="00B1"/>
  <outline>
    <contour>
      <point x="429" y="326" type="line"/>
      <point x="595" y="326" type="line"/>
      <point x="595" y="591" type="line"/>
      <point x="853" y="591" type="line"/>
      <point x="853" y="755" type="line"/>
      <point x="595" y="755" type="line"/>
      <point x="595" y="1018" type="line"/>
      <point x="429" y="1018" type="line"/>
      <point x="429" y="755" type="line"/>
      <point x="171" y="755" type="line"/>
      <point x="171" y="591" type="line"/>
      <point x="429" y="591" type="line"/>
    </contour>
    <contour>
      <point x="171" y="0" type="line"/>
      <point x="853" y="0" type="line"/>
      <point x="853" y="165" type="line"/>
      <point x="171" y="165" type="line"/>
    </contour>
  </outline>
</glyph>
<glyph name="uni00B3" format="1">
  <advance width="834"/>
  <unicode hex="00B3"/>
  <outline>
    <contour>
      <point x="415" y="500" type="curve" smooth="yes"/>
      <point x="575" y="500"/>
      <point x="682" y="587"/>
      <point x="682" y="749" type="curve" smooth="yes"/>
      <point x="682" y="856"/>
      <point x="630" y="911"/>
      <point x="541" y="938" type="curve"/>
      <point x="632" y="966"/>
      <point x="676" y="1025"/>
      <point x="676" y="1121" type="curve" smooth="yes"/>
      <point x="676" y="1277"/>
      <point x="568" y="1363"/>
      <point x="415" y="1363" type="curve" smooth="yes"/>
      <point x="251" y="1363"/>
      <point x="145" y="1279"/>
      <point x="144" y="1097" type="curve"/>
      <point x="312" y="1097" type="line"/>
      <point x="312" y="1176"/>
      <point x="337" y="1241"/>
      <point x="415" y="1241" type="curve" smooth="yes"/>
      <point x="493" y="1241"/>
      <point x="507" y="1172"/>
      <point x="507" y="1121" type="curve" smooth="yes"/>
      <point x="507" y="1036"/>
      <point x="485" y="999"/>
      <point x="342" y="999" type="curve"/>
      <point x="342" y="877" type="line"/>
      <point x="475" y="877"/>
      <point x="513" y="847"/>
      <point x="513" y="747" type="curve" smooth="yes"/>
      <point x="513" y="686"/>
      <point x="486" y="624"/>
      <point x="417" y="624" type="curve" smooth="yes"/>
      <point x="342" y="624"/>
      <point x="311" y="682"/>
      <point x="309" y="770" type="curve"/>
      <point x="140" y="770" type="line"/>
      <point x="143" y="587"/>
      <point x="241" y="500"/>
    </contour>
  </outline>
</glyph>
<glyph name="acute" format="1">
  <advance width="554"/>
  <unicode hex="00B4"/>
  <outline>
    <contour>
      <point x="106" y="1157" type="line"/>
      <point x="255" y="1157" type="line"/>
      <point x="488" y="1522" type="line"/>
      <point x="220" y="1522" type="line"/>
    </contour>
  </outline>
</glyph>
<glyph name="uni00B5" format="1">
  <advance width="1246"/>
  <unicode hex="00B5"/>
  <outline>
    <contour>
      <point x="552.0" y="-19.0" type="curve" smooth="yes"/>
      <point x="688.0" y="-19.0"/>
      <point x="777.0" y="41.0"/>
      <point x="815.0" y="135.0" type="curve"/>
      <point x="821.0" y="0.0" type="line"/>
      <point x="1088.0" y="0.0" type="line"/>
      <point x="1088.0" y="1074.0" type="line"/>
      <point x="815.0" y="1074.0" type="line"/>
      <point x="815.0" y="317.0" type="line" smooth="yes"/>
      <point x="815.0" y="217.0"/>
      <point x="701.0" y="166.0"/>
      <point x="602.0" y="166.0" type="curve" smooth="yes"/>
      <point x="518.0" y="166.0"/>
      <point x="420.0" y="196.0"/>
      <point x="420.0" y="308.0" type="curve" smooth="yes"/>
      <point x="420.0" y="1074.0" type="line"/>
      <point x="148.0" y="1074.0" type="line"/>
      <point x="148.0" y="-236.0" type="line"/>
      <point x="400.0" y="-236.0" type="line"/>
      <point x="400.0" y="2.0" type="line"/>
      <point x="456.0" y="-12.0"/>
      <point x="507.0" y="-19.0"/>
    </contour>
  </outline>
</glyph>
<glyph name="paragraph" format="1">
  <advance width="1222"/>
  <unicode hex="00B6"/>
  <outline>
    <contour>
      <point x="447" y="0" type="line"/>
      <point x="619" y="0" type="line"/>
      <point x="619" y="1334" type="line"/>
      <point x="850" y="1334" type="line"/>
      <point x="850" y="0" type="line"/>
      <point x="1022" y="0" type="line"/>
      <point x="1022" y="1476" type="line"/>
      <point x="462" y="1476" type="line" smooth="yes"/>
      <point x="268" y="1476"/>
      <point x="95" y="1389"/>
      <point x="95" y="1173" type="curve" smooth="yes"/>
      <point x="95" y="963"/>
      <point x="253" y="859"/>
      <point x="447" y="858" type="curve"/>
    </contour>
  </outline>
</glyph>
<glyph name="periodcentered" format="1">
  <advance width="512"/>
  <unicode hex="00B7"/>
  <outline>
    <contour>
      <point x="132" y="780" type="line"/>
      <point x="380" y="780" type="line"/>
      <point x="380" y="1025" type="line"/>
      <point x="132" y="1025" type="line"/>
    </contour>
  </outline>
</glyph>
<glyph name="cedilla" format="1">
  <advance width="512"/>
  <unicode hex="00B8"/>
  <outline>
    <contour>
      <point x="215" y="-494" type="curve" smooth="yes"/>
      <point x="379" y="-494"/>
      <point x="460" y="-405"/>
      <point x="460" y="-311" type="curve" smooth="yes"/>
      <point x="460" y="-221"/>
      <point x="386" y="-127"/>
      <point x="239" y="-101" type="curve"/>
      <point x="233" y="0" type="line"/>
      <point x="157" y="0" type="line"/>
      <point x="157" y="-172" type="line"/>
      <point x="255" y="-175"/>
      <point x="302" y="-235"/>
      <point x="302" y="-289" type="curve" smooth="yes"/>
      <point x="302" y="-340"/>
      <point x="263" y="-375"/>
      <point x="185" y="-375" type="curve" smooth="yes"/>
      <point x="166" y="-375"/>
      <point x="144" y="-373"/>
      <point x="120" y="-368" type="curve"/>
      <point x="120" y="-485" type="line"/>
      <point x="155" y="-492"/>
      <point x="186" y="-494"/>
    </contour>
  </outline>
</glyph>
<glyph name="ordmasculine" format="1">
  <advance width="1024"/>
  <unicode hex="00BA"/>
  <outline>
    <contour>
      <point x="509" y="675" type="line" smooth="yes"/>
      <point x="408" y="675"/>
      <point x="352" y="708"/>
      <point x="352" y="802" type="curve" smooth="yes"/>
      <point x="352" y="1187" type="line" smooth="yes"/>
      <point x="352" y="1281"/>
      <point x="414" y="1314"/>
      <point x="510" y="1314" type="curve" smooth="yes"/>
      <point x="610" y="1314"/>
      <point x="667" y="1281"/>
      <point x="667" y="1187" type="curve" smooth="yes"/>
      <point x="667" y="802" type="line" smooth="yes"/>
      <point x="667" y="708"/>
      <point x="605" y="675"/>
      <point x="511" y="675" type="curve" smooth="yes"/>
    </contour>
    <contour>
      <point x="513.0" y="512.0" type="curve" smooth="yes"/>
      <point x="794.447998047" y="512.546005249"/>
      <point x="888.0" y="628.0"/>
      <point x="888.0" y="811.0" type="curve" smooth="yes"/>
      <point x="888.0" y="1175.0" type="line" smooth="yes"/>
      <point x="888.0" y="1363.0"/>
      <point x="749.0" y="1475.0"/>
      <point x="512.0" y="1475.0" type="curve" smooth="yes"/>
      <point x="273.0" y="1475.0"/>
      <point x="136.0" y="1363.0"/>
      <point x="136.0" y="1175.0" type="curve" smooth="yes"/>
      <point x="136.0" y="811.0" type="line" smooth="yes"/>
      <point x="136.0" y="627.0"/>
      <point x="238.0" y="512.0"/>
    </contour>
  </outline>
</glyph>
<glyph name="guillemotright" format="1">
  <advance width="1024"/>
  <unicode hex="00BB"/>
  <outline>
    <contour>
      <point x="299" y="80" type="line"/>
      <point x="572" y="530" type="line"/>
      <point x="292" y="980" type="line"/>
      <point x="154" y="910" type="line"/>
      <point x="359" y="530" type="line"/>
      <point x="154" y="150" type="line"/>
    </contour>
    <contour>
      <point x="713" y="80" type="line"/>
      <point x="986" y="530" type="line"/>
      <point x="706" y="980" type="line"/>
      <point x="566" y="910" type="line"/>
      <point x="773" y="530" type="line"/>
      <point x="566" y="150" type="line"/>
    </contour>
  </outline>
</glyph>
<glyph name="onequarter" format="1">
  <advance width="2433.359375"/>
  <unicode hex="00BC"/>
  <outline>
    <contour>
      <point x="131" y="422" type="line"/>
      <point x="856" y="422" type="line"/>
      <point x="856" y="569" type="line"/>
      <point x="610" y="569" type="line"/>
      <point x="610" y="1477" type="line"/>
      <point x="464" y="1477" type="line"/>
      <point x="128" y="1424" type="line"/>
      <point x="146" y="1279" type="line"/>
      <point x="398" y="1318" type="line"/>
      <point x="398" y="569" type="line"/>
      <point x="130" y="569" type="line"/>
    </contour>
    <contour>
      <point x="1978" y="0" type="line"/>
      <point x="2137" y="0" type="line"/>
      <point x="2137" y="210" type="line"/>
      <point x="2305" y="210" type="line"/>
      <point x="2305" y="373" type="line"/>
      <point x="2137" y="373" type="line"/>
      <point x="2137" y="615" type="line"/>
      <point x="1978" y="615" type="line"/>
      <point x="1978" y="373" type="line"/>
      <point x="1679" y="373" type="line"/>
      <point x="1948" y="1074" type="line"/>
      <point x="1757" y="1074" type="line"/>
      <point x="1477" y="369" type="line"/>
      <point x="1477" y="210" type="line"/>
      <point x="1978" y="210" type="line"/>
    </contour>
    <contour>
      <point x="849" y="0" type="line"/>
      <point x="1023" y="0" type="line"/>
      <point x="1664" y="1505" type="line"/>
      <point x="1490" y="1505" type="line"/>
    </contour>
  </outline>
</glyph>
<glyph name="onehalf" format="1">
  <advance width="2579"/>
  <unicode hex="00BD"/>
  <outline>
    <contour>
      <point x="131.0" y="422.0" type="line"/>
      <point x="856.0" y="422.0" type="line"/>
      <point x="856.0" y="569.0" type="line"/>
      <point x="610.0" y="569.0" type="line"/>
      <point x="610.0" y="1477.0" type="line"/>
      <point x="464.0" y="1477.0" type="line"/>
      <point x="128.0" y="1424.0" type="line"/>
      <point x="146.0" y="1279.0" type="line"/>
      <point x="398.0" y="1318.0" type="line"/>
      <point x="398.0" y="569.0" type="line"/>
      <point x="130.0" y="569.0" type="line"/>
    </contour>
    <contour>
      <point x="879" y="0" type="line"/>
      <point x="1053" y="0" type="line"/>
      <point x="1694" y="1505" type="line"/>
      <point x="1520" y="1505" type="line"/>
    </contour>
    <contour>
      <point x="1723" y="-2" type="line"/>
      <point x="2370" y="-2" type="line"/>
      <point x="2370" y="160" type="line"/>
      <point x="1933" y="160" type="line"/>
      <point x="2166" y="386" type="line" smooth="yes"/>
      <point x="2284" y="501"/>
      <point x="2381" y="612"/>
      <point x="2381" y="767" type="curve" smooth="yes"/>
      <point x="2381" y="940"/>
      <point x="2295" y="1071"/>
      <point x="2025" y="1071" type="curve" smooth="yes"/>
      <point x="1740" y="1071"/>
      <point x="1652" y="958"/>
      <point x="1652" y="706" type="curve"/>
      <point x="1870" y="706" type="line"/>
      <point x="1870" y="860"/>
      <point x="1892" y="911"/>
      <point x="2027" y="911" type="curve" smooth="yes"/>
      <point x="2131" y="911"/>
      <point x="2168" y="863"/>
      <point x="2167" y="765" type="curve"/>
      <point x="2167" y="675"/>
      <point x="2120" y="606"/>
      <point x="2033" y="518" type="curve" smooth="yes"/>
      <point x="1678" y="159" type="line"/>
    </contour>
  </outline>
</glyph>
<glyph name="threequarters" format="1">
  <advance width="2882"/>
  <unicode hex="00BE"/>
  <outline>
    <contour>
      <point x="889" y="0" type="line"/>
      <point x="1063" y="0" type="line"/>
      <point x="1704" y="1505" type="line"/>
      <point x="1530" y="1505" type="line"/>
    </contour>
    <contour>
      <point x="2018" y="0" type="line"/>
      <point x="2177" y="0" type="line"/>
      <point x="2177" y="210" type="line"/>
      <point x="2345" y="210" type="line"/>
      <point x="2345" y="373" type="line"/>
      <point x="2177" y="373" type="line"/>
      <point x="2177" y="615" type="line"/>
      <point x="2018" y="615" type="line"/>
      <point x="2018" y="373" type="line"/>
      <point x="1719" y="373" type="line"/>
      <point x="1988" y="1074" type="line"/>
      <point x="1797" y="1074" type="line"/>
      <point x="1517" y="369" type="line"/>
      <point x="1517" y="210" type="line"/>
      <point x="2018" y="210" type="line"/>
    </contour>
    <contour>
      <point x="613" y="437" type="curve" smooth="yes"/>
      <point x="889" y="437"/>
      <point x="967" y="582"/>
      <point x="967" y="744" type="curve" smooth="yes"/>
      <point x="967" y="863"/>
      <point x="931" y="956"/>
      <point x="803" y="990" type="curve"/>
      <point x="938" y="1018"/>
      <point x="958" y="1120"/>
      <point x="958" y="1219" type="curve" smooth="yes"/>
      <point x="958" y="1392"/>
      <point x="844" y="1496"/>
      <point x="619" y="1496" type="curve" smooth="yes"/>
      <point x="390" y="1496"/>
      <point x="250" y="1423"/>
      <point x="249" y="1156" type="curve"/>
      <point x="434" y="1156" type="line"/>
      <point x="433" y="1310"/>
      <point x="468" y="1344"/>
      <point x="611" y="1344" type="curve" smooth="yes"/>
      <point x="735" y="1344"/>
      <point x="773" y="1297"/>
      <point x="773" y="1209" type="curve" smooth="yes"/>
      <point x="773" y="1106"/>
      <point x="767" y="1059"/>
      <point x="562" y="1059" type="curve"/>
      <point x="562" y="917" type="line"/>
      <point x="746" y="917"/>
      <point x="779" y="873"/>
      <point x="779" y="753" type="curve" smooth="yes"/>
      <point x="779" y="651"/>
      <point x="754" y="591"/>
      <point x="626" y="591" type="curve" smooth="yes"/>
      <point x="489" y="591"/>
      <point x="432" y="612"/>
      <point x="430" y="773" type="curve"/>
      <point x="245" y="773" type="line"/>
      <point x="250" y="537"/>
      <point x="344" y="437"/>
    </contour>
  </outline>
</glyph>
<glyph name="questiondown" format="1">
  <advance width="1244"/>
  <unicode hex="00BF"/>
  <outline>
    <contour>
      <point x="819" y="888" type="line"/>
      <point x="590" y="888" type="line"/>
      <point x="408" y="697" type="line" smooth="yes"/>
      <point x="246" y="525"/>
      <point x="146" y="417"/>
      <point x="146" y="212" type="curve" smooth="yes"/>
      <point x="146" y="-10"/>
      <point x="217" y="-182"/>
      <point x="645" y="-182" type="curve" smooth="yes"/>
      <point x="1078" y="-182"/>
      <point x="1134" y="10"/>
      <point x="1134" y="283" type="curve" smooth="yes"/>
      <point x="1134" y="357" type="line"/>
      <point x="860" y="357" type="line"/>
      <point x="860" y="272" type="line" smooth="yes"/>
      <point x="860" y="131"/>
      <point x="847" y="40"/>
      <point x="645" y="40" type="curve" smooth="yes"/>
      <point x="459" y="40"/>
      <point x="438" y="113"/>
      <point x="438" y="223" type="curve" smooth="yes"/>
      <point x="438" y="343"/>
      <point x="483" y="413"/>
      <point x="571" y="539" type="curve" smooth="yes"/>
    </contour>
    <contour>
      <point x="835" y="1319" type="line"/>
      <point x="586" y="1319" type="line"/>
      <point x="586" y="1074" type="line"/>
      <point x="835" y="1074" type="line"/>
    </contour>
  </outline>
</glyph>
<glyph name="Agrave" format="1">
  <advance width="1532"/>
  <unicode hex="00C0"/>
  <outline>
    <contour>
      <point x="690.5" y="1664" type="line"/>
      <point x="841.5" y="1664" type="line"/>
      <point x="720.5" y="2029" type="line"/>
      <point x="453.5" y="2029" type="line"/>
    </contour>
    <contour>
      <point x="74.0" y="0" type="line"/>
      <point x="386.0" y="0" type="line"/>
      <point x="472.0" y="281" type="line"/>
      <point x="1057.0" y="281" type="line"/>
      <point x="1140.0" y="0" type="line"/>
      <point x="1458.0" y="0" type="line"/>
      <point x="960.0" y="1477" type="line"/>
      <point x="566.0" y="1477" type="line"/>
    </contour>
    <contour>
      <point x="531.0" y="479" type="line"/>
      <point x="770.0" y="1255" type="line"/>
      <point x="1000.0" y="479" type="line"/>
    </contour>
  </outline>
</glyph>
<glyph name="Aacute" format="1">
  <advance width="1532"/>
  <unicode hex="00C1"/>
  <outline>
    <contour>
      <point x="691.5" y="1664" type="line"/>
      <point x="840.5" y="1664" type="line"/>
      <point x="1073.5" y="2029" type="line"/>
      <point x="805.5" y="2029" type="line"/>
    </contour>
    <contour>
      <point x="74.0" y="0" type="line"/>
      <point x="386.0" y="0" type="line"/>
      <point x="472.0" y="281" type="line"/>
      <point x="1057.0" y="281" type="line"/>
      <point x="1140.0" y="0" type="line"/>
      <point x="1458.0" y="0" type="line"/>
      <point x="960.0" y="1477" type="line"/>
      <point x="566.0" y="1477" type="line"/>
    </contour>
    <contour>
      <point x="531.0" y="479" type="line"/>
      <point x="770.0" y="1255" type="line"/>
      <point x="1000.0" y="479" type="line"/>
    </contour>
  </outline>
</glyph>
<glyph name="Acircumflex" format="1">
  <advance width="1532"/>
  <unicode hex="00C2"/>
  <outline>
    <contour>
      <point x="456.5" y="1664" type="line"/>
      <point x="636.5" y="1664" type="line"/>
      <point x="772.5" y="1839" type="line"/>
      <point x="900.5" y="1664" type="line"/>
      <point x="1075.5" y="1664" type="line"/>
      <point x="853.5" y="1964" type="line"/>
      <point x="690.5" y="1964" type="line"/>
    </contour>
    <contour>
      <point x="74.0" y="0" type="line"/>
      <point x="386.0" y="0" type="line"/>
      <point x="472.0" y="281" type="line"/>
      <point x="1057.0" y="281" type="line"/>
      <point x="1140.0" y="0" type="line"/>
      <point x="1458.0" y="0" type="line"/>
      <point x="960.0" y="1477" type="line"/>
      <point x="566.0" y="1477" type="line"/>
    </contour>
    <contour>
      <point x="531.0" y="479" type="line"/>
      <point x="770.0" y="1255" type="line"/>
      <point x="1000.0" y="479" type="line"/>
    </contour>
  </outline>
</glyph>
<glyph name="Atilde" format="1">
  <advance width="1532"/>
  <unicode hex="00C3"/>
  <outline>
    <contour>
      <point x="655.5" y="1664" type="curve" smooth="yes"/>
      <point x="808.5" y="1664"/>
      <point x="848.5" y="1767"/>
      <point x="902.5" y="1767" type="curve" smooth="yes"/>
      <point x="935.5" y="1767"/>
      <point x="958.5" y="1741"/>
      <point x="958.5" y="1680" type="curve"/>
      <point x="1076.5" y="1680" type="line"/>
      <point x="1076.5" y="1867"/>
      <point x="996.5" y="1940"/>
      <point x="876.5" y="1940" type="curve" smooth="yes"/>
      <point x="722.5" y="1940"/>
      <point x="686.5" y="1838"/>
      <point x="636.5" y="1838" type="curve" smooth="yes"/>
      <point x="601.5" y="1838"/>
      <point x="573.5" y="1861"/>
      <point x="573.5" y="1924" type="curve"/>
      <point x="455.5" y="1924" type="line"/>
      <point x="455.5" y="1737"/>
      <point x="535.5" y="1664"/>
    </contour>
    <contour>
      <point x="74.0" y="0" type="line"/>
      <point x="386.0" y="0" type="line"/>
      <point x="472.0" y="281" type="line"/>
      <point x="1057.0" y="281" type="line"/>
      <point x="1140.0" y="0" type="line"/>
      <point x="1458.0" y="0" type="line"/>
      <point x="960.0" y="1477" type="line"/>
      <point x="566.0" y="1477" type="line"/>
    </contour>
    <contour>
      <point x="531.0" y="479" type="line"/>
      <point x="770.0" y="1255" type="line"/>
      <point x="1000.0" y="479" type="line"/>
    </contour>
  </outline>
</glyph>
<glyph name="Adieresis" format="1">
  <advance width="1532"/>
  <unicode hex="00C4"/>
  <outline>
    <contour>
      <point x="379" y="1664" type="line"/>
      <point x="643" y="1664" type="line"/>
      <point x="643" y="1897" type="line"/>
      <point x="379" y="1897" type="line"/>
    </contour>
    <contour>
      <point x="888" y="1664" type="line"/>
      <point x="1153" y="1664" type="line"/>
      <point x="1153" y="1897" type="line"/>
      <point x="888" y="1897" type="line"/>
    </contour>
    <contour>
      <point x="74" y="0" type="line"/>
      <point x="386" y="0" type="line"/>
      <point x="472" y="281" type="line"/>
      <point x="1057" y="281" type="line"/>
      <point x="1140" y="0" type="line"/>
      <point x="1458" y="0" type="line"/>
      <point x="960" y="1477" type="line"/>
      <point x="566" y="1477" type="line"/>
    </contour>
    <contour>
      <point x="531" y="479" type="line"/>
      <point x="770" y="1255" type="line"/>
      <point x="1000" y="479" type="line"/>
    </contour>
  </outline>
</glyph>
<glyph name="Aring" format="1">
  <advance width="1532"/>
  <unicode hex="00C5"/>
  <outline>
    <contour>
      <point x="766" y="1576.83300781" type="curve" smooth="yes"/>
      <point x="698" y="1576.83300781"/>
      <point x="648" y="1603.83300781"/>
      <point x="648" y="1700.83300781" type="curve" smooth="yes"/>
      <point x="648" y="1796.83300781"/>
      <point x="698" y="1823.83300781"/>
      <point x="765" y="1823.83300781" type="curve" smooth="yes"/>
      <point x="833" y="1823.83300781"/>
      <point x="884" y="1795.83300781"/>
      <point x="884" y="1698.83300781" type="curve" smooth="yes"/>
      <point x="884" y="1602.83300781"/>
      <point x="833" y="1576.83300781"/>
    </contour>
    <contour>
      <point x="766" y="1486.83300781" type="curve" smooth="yes"/>
      <point x="909" y="1486.83300781"/>
      <point x="996" y="1563.83300781"/>
      <point x="996" y="1699.83300781" type="curve" smooth="yes"/>
      <point x="996" y="1835.83300781"/>
      <point x="908" y="1911.83300781"/>
      <point x="766" y="1911.83300781" type="curve" smooth="yes"/>
      <point x="623" y="1911.83300781"/>
      <point x="536" y="1835.83300781"/>
      <point x="536" y="1699.83300781" type="curve" smooth="yes"/>
      <point x="536" y="1563.83300781"/>
      <point x="623" y="1486.83300781"/>
    </contour>
    <contour>
      <point x="74" y="0.0" type="line"/>
      <point x="386" y="0.0" type="line"/>
      <point x="472" y="281.0" type="line"/>
      <point x="1057" y="281.0" type="line"/>
      <point x="1140" y="0.0" type="line"/>
      <point x="1458" y="0.0" type="line"/>
      <point x="960" y="1477.0" type="line"/>
      <point x="566" y="1477.0" type="line"/>
    </contour>
    <contour>
      <point x="531" y="479.0" type="line"/>
      <point x="770" y="1255.0" type="line"/>
      <point x="1000" y="479.0" type="line"/>
    </contour>
  </outline>
</glyph>
<glyph name="AE" format="1">
  <advance width="1834"/>
  <unicode hex="00C6"/>
  <outline>
    <contour>
      <point x="393" y="0" type="line"/>
      <point x="472" y="281" type="line"/>
      <point x="893" y="281" type="line"/>
      <point x="893" y="0" type="line"/>
      <point x="1710" y="0" type="line"/>
      <point x="1710" y="227" type="line"/>
      <point x="1173" y="227" type="line"/>
      <point x="1173" y="645" type="line"/>
      <point x="1630" y="645" type="line"/>
      <point x="1630" y="858" type="line"/>
      <point x="1173" y="858" type="line"/>
      <point x="1173" y="1249" type="line"/>
      <point x="1700" y="1249" type="line"/>
      <point x="1700" y="1477" type="line"/>
      <point x="539" y="1477" type="line"/>
      <point x="83" y="0" type="line"/>
    </contour>
    <contour>
      <point x="527" y="477" type="line"/>
      <point x="757" y="1249" type="line"/>
      <point x="893" y="1249" type="line"/>
      <point x="893" y="477" type="line"/>
    </contour>
  </outline>
</glyph>
<glyph name="Ccedilla" format="1">
  <advance width="1524"/>
  <unicode hex="00C7"/>
  <outline>
    <contour>
      <point x="795" y="-503.533203125" type="curve" smooth="yes"/>
      <point x="959" y="-503.533203125"/>
      <point x="1040" y="-414.533203125"/>
      <point x="1040" y="-320.533203125" type="curve" smooth="yes"/>
      <point x="1040" y="-230.533203125"/>
      <point x="966" y="-136.533203125"/>
      <point x="819" y="-110.533203125" type="curve"/>
      <point x="813" y="-9.533203125" type="line"/>
      <point x="737" y="-9.533203125" type="line"/>
      <point x="737" y="-181.533203125" type="line"/>
      <point x="835" y="-184.533203125"/>
      <point x="882" y="-244.533203125"/>
      <point x="882" y="-298.533203125" type="curve" smooth="yes"/>
      <point x="882" y="-349.533203125"/>
      <point x="843" y="-384.533203125"/>
      <point x="765" y="-384.533203125" type="curve" smooth="yes"/>
      <point x="746" y="-384.533203125"/>
      <point x="724" y="-382.533203125"/>
      <point x="700" y="-377.533203125" type="curve"/>
      <point x="700" y="-494.533203125" type="line"/>
      <point x="735" y="-501.533203125"/>
      <point x="766" y="-503.533203125"/>
    </contour>
    <contour>
      <point x="792" y="-26.0" type="curve" smooth="yes"/>
      <point x="1304" y="-26.0"/>
      <point x="1378" y="190.0"/>
      <point x="1378" y="480.0" type="curve" smooth="yes"/>
      <point x="1378" y="507.0" type="line"/>
      <point x="1087" y="507.0" type="line"/>
      <point x="1087" y="460.0" type="line" smooth="yes"/>
      <point x="1087" y="250.0"/>
      <point x="1018" y="207.0"/>
      <point x="793" y="207.0" type="curve" smooth="yes"/>
      <point x="571" y="207.0"/>
      <point x="469" y="252.0"/>
      <point x="469" y="454.0" type="curve" smooth="yes"/>
      <point x="469" y="1012.0" type="line" smooth="yes"/>
      <point x="469" y="1215.0"/>
      <point x="572" y="1268.0"/>
      <point x="792" y="1268.0" type="curve" smooth="yes"/>
      <point x="1017" y="1268.0"/>
      <point x="1087" y="1213.0"/>
      <point x="1087" y="1006.0" type="curve" smooth="yes"/>
      <point x="1087" y="931.0" type="line"/>
      <point x="1378" y="965.0" type="line"/>
      <point x="1378" y="983.0" type="line" smooth="yes"/>
      <point x="1378" y="1281.0"/>
      <point x="1296" y="1501.0"/>
      <point x="792" y="1501.0" type="curve" smooth="yes"/>
      <point x="263" y="1501.0"/>
      <point x="172" y="1275.0"/>
      <point x="172" y="977.0" type="curve" smooth="yes"/>
      <point x="172" y="484.0" type="line" smooth="yes"/>
      <point x="172" y="193.0"/>
      <point x="266" y="-26.0"/>
    </contour>
  </outline>
</glyph>
<glyph name="Egrave" format="1">
  <advance width="1314"/>
  <unicode hex="00C8"/>
  <outline>
    <contour>
      <point x="625.5" y="1664" type="line"/>
      <point x="776.5" y="1664" type="line"/>
      <point x="655.5" y="2029" type="line"/>
      <point x="388.5" y="2029" type="line"/>
    </contour>
    <contour>
      <point x="212.0" y="0" type="line"/>
      <point x="1190.0" y="0" type="line"/>
      <point x="1190.0" y="227" type="line"/>
      <point x="509.0" y="227" type="line"/>
      <point x="509.0" y="646" type="line"/>
      <point x="1103.0" y="646" type="line"/>
      <point x="1103.0" y="860" type="line"/>
      <point x="509.0" y="860" type="line"/>
      <point x="509.0" y="1249" type="line"/>
      <point x="1179.0" y="1249" type="line"/>
      <point x="1179.0" y="1477" type="line"/>
      <point x="212.0" y="1477" type="line"/>
    </contour>
  </outline>
</glyph>
<glyph name="Eacute" format="1">
  <advance width="1314"/>
  <unicode hex="00C9"/>
  <outline>
    <contour>
      <point x="626.5" y="1664" type="line"/>
      <point x="775.5" y="1664" type="line"/>
      <point x="1008.5" y="2029" type="line"/>
      <point x="740.5" y="2029" type="line"/>
    </contour>
    <contour>
      <point x="212.0" y="0" type="line"/>
      <point x="1190.0" y="0" type="line"/>
      <point x="1190.0" y="227" type="line"/>
      <point x="509.0" y="227" type="line"/>
      <point x="509.0" y="646" type="line"/>
      <point x="1103.0" y="646" type="line"/>
      <point x="1103.0" y="860" type="line"/>
      <point x="509.0" y="860" type="line"/>
      <point x="509.0" y="1249" type="line"/>
      <point x="1179.0" y="1249" type="line"/>
      <point x="1179.0" y="1477" type="line"/>
      <point x="212.0" y="1477" type="line"/>
    </contour>
  </outline>
</glyph>
<glyph name="Ecircumflex" format="1">
  <advance width="1314"/>
  <unicode hex="00CA"/>
  <outline>
    <contour>
      <point x="391.5" y="1664" type="line"/>
      <point x="571.5" y="1664" type="line"/>
      <point x="707.5" y="1839" type="line"/>
      <point x="835.5" y="1664" type="line"/>
      <point x="1010.5" y="1664" type="line"/>
      <point x="788.5" y="1964" type="line"/>
      <point x="625.5" y="1964" type="line"/>
    </contour>
    <contour>
      <point x="212.0" y="0" type="line"/>
      <point x="1190.0" y="0" type="line"/>
      <point x="1190.0" y="227" type="line"/>
      <point x="509.0" y="227" type="line"/>
      <point x="509.0" y="646" type="line"/>
      <point x="1103.0" y="646" type="line"/>
      <point x="1103.0" y="860" type="line"/>
      <point x="509.0" y="860" type="line"/>
      <point x="509.0" y="1249" type="line"/>
      <point x="1179.0" y="1249" type="line"/>
      <point x="1179.0" y="1477" type="line"/>
      <point x="212.0" y="1477" type="line"/>
    </contour>
  </outline>
</glyph>
<glyph name="Edieresis" format="1">
  <advance width="1314"/>
  <unicode hex="00CB"/>
  <outline>
    <contour>
      <point x="314" y="1664" type="line"/>
      <point x="578" y="1664" type="line"/>
      <point x="578" y="1897" type="line"/>
      <point x="314" y="1897" type="line"/>
    </contour>
    <contour>
      <point x="823" y="1664" type="line"/>
      <point x="1088" y="1664" type="line"/>
      <point x="1088" y="1897" type="line"/>
      <point x="823" y="1897" type="line"/>
    </contour>
    <contour>
      <point x="212" y="0" type="line"/>
      <point x="1190" y="0" type="line"/>
      <point x="1190" y="227" type="line"/>
      <point x="509" y="227" type="line"/>
      <point x="509" y="646" type="line"/>
      <point x="1103" y="646" type="line"/>
      <point x="1103" y="860" type="line"/>
      <point x="509" y="860" type="line"/>
      <point x="509" y="1249" type="line"/>
      <point x="1179" y="1249" type="line"/>
      <point x="1179" y="1477" type="line"/>
      <point x="212" y="1477" type="line"/>
    </contour>
  </outline>
</glyph>
<glyph name="Igrave" format="1">
  <advance width="1172"/>
  <unicode hex="00CC"/>
  <outline>
    <contour>
      <point x="510.5" y="1664" type="line"/>
      <point x="661.5" y="1664" type="line"/>
      <point x="540.5" y="2029" type="line"/>
      <point x="273.5" y="2029" type="line"/>
    </contour>
    <contour>
      <point x="170.0" y="0" type="line"/>
      <point x="1002.0" y="0" type="line"/>
      <point x="1002.0" y="222" type="line"/>
      <point x="735.0" y="222" type="line"/>
      <point x="735.0" y="1255" type="line"/>
      <point x="1002.0" y="1255" type="line"/>
      <point x="1002.0" y="1477" type="line"/>
      <point x="170.0" y="1477" type="line"/>
      <point x="170.0" y="1255" type="line"/>
      <point x="438.0" y="1255" type="line"/>
      <point x="438.0" y="222" type="line"/>
      <point x="170.0" y="222" type="line"/>
    </contour>
  </outline>
</glyph>
<glyph name="Icircumflex" format="1">
  <advance width="1172"/>
  <unicode hex="00CE"/>
  <outline>
    <contour>
      <point x="276.5" y="1664" type="line"/>
      <point x="456.5" y="1664" type="line"/>
      <point x="592.5" y="1839" type="line"/>
      <point x="720.5" y="1664" type="line"/>
      <point x="895.5" y="1664" type="line"/>
      <point x="673.5" y="1964" type="line"/>
      <point x="510.5" y="1964" type="line"/>
    </contour>
    <contour>
      <point x="170.0" y="0" type="line"/>
      <point x="1002.0" y="0" type="line"/>
      <point x="1002.0" y="222" type="line"/>
      <point x="735.0" y="222" type="line"/>
      <point x="735.0" y="1255" type="line"/>
      <point x="1002.0" y="1255" type="line"/>
      <point x="1002.0" y="1477" type="line"/>
      <point x="170.0" y="1477" type="line"/>
      <point x="170.0" y="1255" type="line"/>
      <point x="438.0" y="1255" type="line"/>
      <point x="438.0" y="222" type="line"/>
      <point x="170.0" y="222" type="line"/>
    </contour>
  </outline>
</glyph>
<glyph name="Idieresis" format="1">
  <advance width="1172"/>
  <unicode hex="00CF"/>
  <outline>
    <contour>
      <point x="199" y="1664" type="line"/>
      <point x="463" y="1664" type="line"/>
      <point x="463" y="1897" type="line"/>
      <point x="199" y="1897" type="line"/>
    </contour>
    <contour>
      <point x="708" y="1664" type="line"/>
      <point x="973" y="1664" type="line"/>
      <point x="973" y="1897" type="line"/>
      <point x="708" y="1897" type="line"/>
    </contour>
    <contour>
      <point x="170" y="0" type="line"/>
      <point x="1002" y="0" type="line"/>
      <point x="1002" y="222" type="line"/>
      <point x="735" y="222" type="line"/>
      <point x="735" y="1255" type="line"/>
      <point x="1002" y="1255" type="line"/>
      <point x="1002" y="1477" type="line"/>
      <point x="170" y="1477" type="line"/>
      <point x="170" y="1255" type="line"/>
      <point x="438" y="1255" type="line"/>
      <point x="438" y="222" type="line"/>
      <point x="170" y="222" type="line"/>
    </contour>
  </outline>
</glyph>
<glyph name="Ntilde" format="1">
  <advance width="1682"/>
  <unicode hex="00D1"/>
  <outline>
    <contour>
      <point x="730.5" y="1664" type="curve" smooth="yes"/>
      <point x="883.5" y="1664"/>
      <point x="923.5" y="1767"/>
      <point x="977.5" y="1767" type="curve" smooth="yes"/>
      <point x="1010.5" y="1767"/>
      <point x="1033.5" y="1741"/>
      <point x="1033.5" y="1680" type="curve"/>
      <point x="1151.5" y="1680" type="line"/>
      <point x="1151.5" y="1867"/>
      <point x="1071.5" y="1940"/>
      <point x="951.5" y="1940" type="curve" smooth="yes"/>
      <point x="797.5" y="1940"/>
      <point x="761.5" y="1838"/>
      <point x="711.5" y="1838" type="curve" smooth="yes"/>
      <point x="676.5" y="1838"/>
      <point x="648.5" y="1861"/>
      <point x="648.5" y="1924" type="curve"/>
      <point x="530.5" y="1924" type="line"/>
      <point x="530.5" y="1737"/>
      <point x="610.5" y="1664"/>
    </contour>
    <contour>
      <point x="212.0" y="0" type="line"/>
      <point x="481.0" y="0" type="line"/>
      <point x="481.0" y="996" type="line"/>
      <point x="1245.0" y="0" type="line"/>
      <point x="1470.0" y="0" type="line"/>
      <point x="1470.0" y="1477" type="line"/>
      <point x="1204.0" y="1477" type="line"/>
      <point x="1204.0" y="464" type="line"/>
      <point x="437.0" y="1477" type="line"/>
      <point x="212.0" y="1477" type="line"/>
    </contour>
  </outline>
</glyph>
<glyph name="Ograve" format="1">
  <advance width="1618"/>
  <unicode hex="00D2"/>
  <outline>
    <contour>
      <point x="733.5" y="1664" type="line"/>
      <point x="884.5" y="1664" type="line"/>
      <point x="763.5" y="2029" type="line"/>
      <point x="496.5" y="2029" type="line"/>
    </contour>
    <contour>
      <point x="820.0" y="207" type="curve" smooth="yes"/>
      <point x="598.0" y="207"/>
      <point x="464.0" y="265"/>
      <point x="464.0" y="468" type="curve" smooth="yes"/>
      <point x="464.0" y="1003" type="line" smooth="yes"/>
      <point x="464.0" y="1205"/>
      <point x="600.0" y="1268"/>
      <point x="820.0" y="1268" type="curve" smooth="yes"/>
      <point x="1042.0" y="1268"/>
      <point x="1154.0" y="1201"/>
      <point x="1154.0" y="1003" type="curve" smooth="yes"/>
      <point x="1154.0" y="468" type="line" smooth="yes"/>
      <point x="1154.0" y="266"/>
      <point x="1044.0" y="207"/>
    </contour>
    <contour>
      <point x="820.0" y="-26" type="curve" smooth="yes"/>
      <point x="1328.0" y="-26"/>
      <point x="1452.0" y="227"/>
      <point x="1452.0" y="517" type="curve" smooth="yes"/>
      <point x="1452.0" y="948" type="line" smooth="yes"/>
      <point x="1452.0" y="1247"/>
      <point x="1330.0" y="1501"/>
      <point x="820.0" y="1501" type="curve" smooth="yes"/>
      <point x="287.0" y="1501"/>
      <point x="166.0" y="1262"/>
      <point x="166.0" y="963" type="curve" smooth="yes"/>
      <point x="166.0" y="501" type="line" smooth="yes"/>
      <point x="166.0" y="209"/>
      <point x="289.0" y="-26"/>
    </contour>
  </outline>
</glyph>
<glyph name="Otilde" format="1">
  <advance width="1618"/>
  <unicode hex="00D5"/>
  <outline>
    <contour>
      <point x="698.5" y="1664" type="curve" smooth="yes"/>
      <point x="851.5" y="1664"/>
      <point x="891.5" y="1767"/>
      <point x="945.5" y="1767" type="curve" smooth="yes"/>
      <point x="978.5" y="1767"/>
      <point x="1001.5" y="1741"/>
      <point x="1001.5" y="1680" type="curve"/>
      <point x="1119.5" y="1680" type="line"/>
      <point x="1119.5" y="1867"/>
      <point x="1039.5" y="1940"/>
      <point x="919.5" y="1940" type="curve" smooth="yes"/>
      <point x="765.5" y="1940"/>
      <point x="729.5" y="1838"/>
      <point x="679.5" y="1838" type="curve" smooth="yes"/>
      <point x="644.5" y="1838"/>
      <point x="616.5" y="1861"/>
      <point x="616.5" y="1924" type="curve"/>
      <point x="498.5" y="1924" type="line"/>
      <point x="498.5" y="1737"/>
      <point x="578.5" y="1664"/>
    </contour>
    <contour>
      <point x="820.0" y="207" type="curve" smooth="yes"/>
      <point x="598.0" y="207"/>
      <point x="464.0" y="265"/>
      <point x="464.0" y="468" type="curve" smooth="yes"/>
      <point x="464.0" y="1003" type="line" smooth="yes"/>
      <point x="464.0" y="1205"/>
      <point x="600.0" y="1268"/>
      <point x="820.0" y="1268" type="curve" smooth="yes"/>
      <point x="1042.0" y="1268"/>
      <point x="1154.0" y="1201"/>
      <point x="1154.0" y="1003" type="curve" smooth="yes"/>
      <point x="1154.0" y="468" type="line" smooth="yes"/>
      <point x="1154.0" y="266"/>
      <point x="1044.0" y="207"/>
    </contour>
    <contour>
      <point x="820.0" y="-26" type="curve" smooth="yes"/>
      <point x="1328.0" y="-26"/>
      <point x="1452.0" y="227"/>
      <point x="1452.0" y="517" type="curve" smooth="yes"/>
      <point x="1452.0" y="948" type="line" smooth="yes"/>
      <point x="1452.0" y="1247"/>
      <point x="1330.0" y="1501"/>
      <point x="820.0" y="1501" type="curve" smooth="yes"/>
      <point x="287.0" y="1501"/>
      <point x="166.0" y="1262"/>
      <point x="166.0" y="963" type="curve" smooth="yes"/>
      <point x="166.0" y="501" type="line" smooth="yes"/>
      <point x="166.0" y="209"/>
      <point x="289.0" y="-26"/>
    </contour>
  </outline>
</glyph>
<glyph name="multiply" format="1">
  <advance width="1025"/>
  <unicode hex="00D7"/>
  <outline>
    <contour>
      <point x="265" y="216" type="line"/>
      <point x="513" y="458" type="line"/>
      <point x="761" y="216" type="line"/>
      <point x="871" y="344" type="line"/>
      <point x="634" y="576" type="line"/>
      <point x="871" y="806" type="line"/>
      <point x="761" y="937" type="line"/>
      <point x="513" y="694" type="line"/>
      <point x="265" y="937" type="line"/>
      <point x="154" y="806" type="line"/>
      <point x="392" y="576" type="line"/>
      <point x="154" y="344" type="line"/>
    </contour>
  </outline>
</glyph>
<glyph name="Ucircumflex" format="1">
  <advance width="1574"/>
  <unicode hex="00DB"/>
  <outline>
    <contour>
      <point x="477.5" y="1664" type="line"/>
      <point x="657.5" y="1664" type="line"/>
      <point x="793.5" y="1839" type="line"/>
      <point x="921.5" y="1664" type="line"/>
      <point x="1096.5" y="1664" type="line"/>
      <point x="874.5" y="1964" type="line"/>
      <point x="711.5" y="1964" type="line"/>
    </contour>
    <contour>
      <point x="796.0" y="-26" type="curve" smooth="yes"/>
      <point x="1294.0" y="-26"/>
      <point x="1398.0" y="199"/>
      <point x="1398.0" y="480" type="curve" smooth="yes"/>
      <point x="1398.0" y="1477" type="line"/>
      <point x="1101.0" y="1477" type="line"/>
      <point x="1101.0" y="455" type="line" smooth="yes"/>
      <point x="1101.0" y="263"/>
      <point x="1004.0" y="207"/>
      <point x="796.0" y="207" type="curve" smooth="yes"/>
      <point x="591.0" y="207"/>
      <point x="473.0" y="260"/>
      <point x="473.0" y="455" type="curve" smooth="yes"/>
      <point x="473.0" y="1477" type="line"/>
      <point x="176.0" y="1477" type="line"/>
      <point x="176.0" y="468" type="line" smooth="yes"/>
      <point x="176.0" y="186"/>
      <point x="291.0" y="-26"/>
    </contour>
  </outline>
</glyph>
<glyph name="Yacute" format="1">
  <advance width="1328"/>
  <unicode hex="00DD"/>
  <outline>
    <contour>
      <point x="589.5" y="1664" type="line"/>
      <point x="738.5" y="1664" type="line"/>
      <point x="971.5" y="2029" type="line"/>
      <point x="703.5" y="2029" type="line"/>
    </contour>
    <contour>
      <point x="519.0" y="0" type="line"/>
      <point x="815.0" y="0" type="line"/>
      <point x="815.0" y="567" type="line"/>
      <point x="1312.0" y="1476" type="line"/>
      <point x="1012.0" y="1476" type="line"/>
      <point x="669.0" y="859" type="line"/>
      <point x="329.0" y="1476" type="line"/>
      <point x="16.0" y="1476" type="line"/>
      <point x="519.0" y="567" type="line"/>
    </contour>
  </outline>
</glyph>
<glyph name="Thorn" format="1">
  <advance width="1362"/>
  <unicode hex="00DE"/>
  <outline>
    <contour>
      <point x="216" y="0" type="line"/>
      <point x="513" y="0" type="line"/>
      <point x="513" y="356" type="line"/>
      <point x="778" y="356" type="line" smooth="yes"/>
      <point x="1164" y="356"/>
      <point x="1272" y="469"/>
      <point x="1272" y="811" type="curve" smooth="yes"/>
      <point x="1272" y="1143"/>
      <point x="1133" y="1240"/>
      <point x="806" y="1240" type="curve" smooth="yes"/>
      <point x="513" y="1240" type="line"/>
      <point x="513" y="1476" type="line"/>
      <point x="216" y="1476" type="line"/>
    </contour>
    <contour>
      <point x="513" y="567" type="line"/>
      <point x="513" y="1033" type="line"/>
      <point x="834" y="1033" type="line" smooth="yes"/>
      <point x="974" y="1033"/>
      <point x="1004" y="951"/>
      <point x="1004" y="797" type="curve" smooth="yes"/>
      <point x="1004" y="619"/>
      <point x="975" y="567"/>
      <point x="825" y="567" type="curve" smooth="yes"/>
    </contour>
  </outline>
</glyph>
<glyph name="germandbls" format="1">
  <advance width="1286"/>
  <unicode hex="00DF"/>
  <outline>
    <contour>
      <point x="158" y="0" type="line"/>
      <point x="432" y="0" type="line"/>
      <point x="432" y="1129" type="line" smooth="yes"/>
      <point x="432" y="1240"/>
      <point x="472" y="1318"/>
      <point x="633" y="1318" type="curve" smooth="yes"/>
      <point x="781" y="1318"/>
      <point x="844" y="1256"/>
      <point x="853" y="1140" type="curve" smooth="yes"/>
      <point x="854" y="1130"/>
      <point x="854" y="1120"/>
      <point x="854" y="1110" type="curve" smooth="yes"/>
      <point x="854" y="1008"/>
      <point x="813" y="893"/>
      <point x="636" y="893" type="curve"/>
      <point x="636" y="703" type="line"/>
      <point x="826" y="683"/>
      <point x="934" y="628"/>
      <point x="941" y="439" type="curve" smooth="yes"/>
      <point x="941" y="422" type="line" smooth="yes"/>
      <point x="941" y="273"/>
      <point x="865" y="169"/>
      <point x="622" y="169" type="curve"/>
      <point x="622" y="-20" type="line"/>
      <point x="1038" y="-20"/>
      <point x="1194" y="151"/>
      <point x="1194" y="400" type="curve" smooth="yes"/>
      <point x="1194" y="411"/>
      <point x="1194" y="423"/>
      <point x="1193" y="435" type="curve" smooth="yes"/>
      <point x="1181" y="642"/>
      <point x="1054" y="766"/>
      <point x="873" y="819" type="curve"/>
      <point x="1015" y="870"/>
      <point x="1097" y="985"/>
      <point x="1097" y="1122" type="curve" smooth="yes"/>
      <point x="1097" y="1341"/>
      <point x="972" y="1507"/>
      <point x="613" y="1507" type="curve" smooth="yes"/>
      <point x="307" y="1507"/>
      <point x="158" y="1355"/>
      <point x="158" y="1118" type="curve" smooth="yes"/>
    </contour>
  </outline>
</glyph>
<glyph name="ae" format="1">
  <advance width="1733.9999839"/>
  <unicode hex="00E6"/>
  <outline>
    <contour>
      <point x="420.432097541" y="-23" type="line"/>
      <point x="621.4321128" y="-23"/>
      <point x="734.4321128" y="31"/>
      <point x="847.4321128" y="130" type="curve"/>
      <point x="901.4321128" y="29"/>
      <point x="1017.4321128" y="-23"/>
      <point x="1186.4321128" y="-23" type="curve" smooth="yes"/>
      <point x="1476.4321128" y="-23"/>
      <point x="1615.99996864" y="41"/>
      <point x="1621.99996864" y="353" type="curve"/>
      <point x="1370.4321128" y="353" type="line"/>
      <point x="1366.43212806" y="184"/>
      <point x="1313.43212806" y="166"/>
      <point x="1190.43212806" y="166" type="curve" smooth="yes"/>
      <point x="1077.43212806" y="166"/>
      <point x="1012.43212806" y="203"/>
      <point x="1012.43212806" y="321" type="curve" smooth="yes"/>
      <point x="1012.43212806" y="514" type="line"/>
      <point x="1623.9999839" y="514" type="line"/>
      <point x="1623.9999839" y="745" type="line" smooth="yes"/>
      <point x="1623.9999839" y="961"/>
      <point x="1513.43212806" y="1097"/>
      <point x="1187.43212806" y="1097" type="curve" smooth="yes"/>
      <point x="1056.43212806" y="1097"/>
      <point x="950.432128059" y="1055"/>
      <point x="878.432128059" y="967" type="curve"/>
      <point x="831.432128059" y="1056"/>
      <point x="707.432128059" y="1097"/>
      <point x="573.432128059" y="1097" type="curve" smooth="yes"/>
      <point x="278.432128059" y="1097"/>
      <point x="144.432128059" y="953"/>
      <point x="144.432128059" y="745" type="curve" smooth="yes"/>
      <point x="144.432128059" y="719" type="line"/>
      <point x="400.432128059" y="719" type="line"/>
      <point x="400.432128059" y="755" type="line" smooth="yes"/>
      <point x="400.432143317" y="838"/>
      <point x="430.432143317" y="908"/>
      <point x="567.432143317" y="908" type="curve" smooth="yes"/>
      <point x="695.432143317" y="908"/>
      <point x="739.432143317" y="852"/>
      <point x="739.432143317" y="770" type="curve" smooth="yes"/>
      <point x="739.432143317" y="631"/>
      <point x="657.432143317" y="640"/>
      <point x="448.432143317" y="586" type="curve" smooth="yes"/>
      <point x="141.432143317" y="508"/>
      <point x="107.432143317" y="420"/>
      <point x="112.432143317" y="268" type="curve" smooth="yes"/>
      <point x="117.432143317" y="90"/>
      <point x="236.432143317" y="-23"/>
      <point x="420.432143317" y="-23" type="curve"/>
    </contour>
    <contour>
      <point x="515.432143317" y="157" type="line" smooth="yes"/>
      <point x="425.432158576" y="157"/>
      <point x="375.432158576" y="206"/>
      <point x="373.432158576" y="290" type="curve" smooth="yes"/>
      <point x="372.432158576" y="351"/>
      <point x="396.432158576" y="418"/>
      <point x="527.432158576" y="447" type="curve" smooth="yes"/>
      <point x="626.432158576" y="470"/>
      <point x="714.432158576" y="499"/>
      <point x="739.432158576" y="520" type="curve"/>
      <point x="739.432158576" y="259" type="line"/>
      <point x="689.432173835" y="183"/>
      <point x="581.432173835" y="157"/>
      <point x="515.432173835" y="157" type="curve" smooth="yes"/>
    </contour>
    <contour>
      <point x="1012.43217384" y="655" type="line"/>
      <point x="1012.43217384" y="760" type="line" smooth="yes"/>
      <point x="1012.4321891" y="874"/>
      <point x="1084.4321891" y="907"/>
      <point x="1193.4321891" y="907" type="curve" smooth="yes"/>
      <point x="1302.4321891" y="907"/>
      <point x="1371.4321891" y="884"/>
      <point x="1371.4321891" y="765" type="curve" smooth="yes"/>
      <point x="1371.4321891" y="655" type="line"/>
    </contour>
  </outline>
</glyph>
<glyph name="ccedilla" format="1">
  <advance width="1144"/>
  <unicode hex="00E7"/>
  <outline>
    <contour>
      <point x="595" y="-500.533203125" type="curve" smooth="yes"/>
      <point x="759" y="-500.533203125"/>
      <point x="840" y="-411.533203125"/>
      <point x="840" y="-317.533203125" type="curve" smooth="yes"/>
      <point x="840" y="-227.533203125"/>
      <point x="766" y="-133.533203125"/>
      <point x="619" y="-107.533203125" type="curve"/>
      <point x="613" y="-6.533203125" type="line"/>
      <point x="537" y="-6.533203125" type="line"/>
      <point x="537" y="-178.533203125" type="line"/>
      <point x="635" y="-181.533203125"/>
      <point x="682" y="-241.533203125"/>
      <point x="682" y="-295.533203125" type="curve" smooth="yes"/>
      <point x="682" y="-346.533203125"/>
      <point x="643" y="-381.533203125"/>
      <point x="565" y="-381.533203125" type="curve" smooth="yes"/>
      <point x="546" y="-381.533203125"/>
      <point x="524" y="-379.533203125"/>
      <point x="500" y="-374.533203125" type="curve"/>
      <point x="500" y="-491.533203125" type="line"/>
      <point x="535" y="-498.533203125"/>
      <point x="566" y="-500.533203125"/>
    </contour>
    <contour>
      <point x="582" y="-23.0" type="curve" smooth="yes"/>
      <point x="924" y="-23.0"/>
      <point x="1011" y="77.0"/>
      <point x="1017" y="380.0" type="curve"/>
      <point x="763" y="380.0" type="line"/>
      <point x="763" y="197.0"/>
      <point x="730" y="168.0"/>
      <point x="588" y="168.0" type="curve" smooth="yes"/>
      <point x="464" y="168.0"/>
      <point x="405" y="207.0"/>
      <point x="405" y="322.0" type="curve" smooth="yes"/>
      <point x="405" y="756.0" type="line" smooth="yes"/>
      <point x="405" y="867.0"/>
      <point x="472" y="907.0"/>
      <point x="588" y="907.0" type="curve" smooth="yes"/>
      <point x="728" y="907.0"/>
      <point x="761" y="874.0"/>
      <point x="762" y="679.0" type="curve"/>
      <point x="1018" y="699.0" type="line"/>
      <point x="1018" y="1007.0"/>
      <point x="867" y="1097.0"/>
      <point x="578" y="1097.0" type="curve" smooth="yes"/>
      <point x="297" y="1097.0"/>
      <point x="132" y="972.0"/>
      <point x="132" y="757.0" type="curve" smooth="yes"/>
      <point x="132" y="327.0" type="line" smooth="yes"/>
      <point x="132" y="140.0"/>
      <point x="215" y="-23.0"/>
    </contour>
  </outline>
</glyph>
<glyph name="egrave" format="1">
  <advance width="1180"/>
  <unicode hex="00E8"/>
  <outline>
    <contour>
      <point x="514.5" y="1260" type="line"/>
      <point x="665.5" y="1260" type="line"/>
      <point x="544.5" y="1625" type="line"/>
      <point x="277.5" y="1625" type="line"/>
    </contour>
    <contour>
      <point x="595.0" y="-23" type="curve" smooth="yes"/>
      <point x="886.0" y="-23"/>
      <point x="1039.0" y="45"/>
      <point x="1047.0" y="350" type="curve"/>
      <point x="795.0" y="350" type="line"/>
      <point x="790.0" y="188"/>
      <point x="725.0" y="166"/>
      <point x="600.0" y="166" type="curve" smooth="yes"/>
      <point x="470.0" y="166"/>
      <point x="405.0" y="203"/>
      <point x="405.0" y="330" type="curve" smooth="yes"/>
      <point x="405.0" y="512" type="line"/>
      <point x="1048.0" y="512" type="line"/>
      <point x="1048.0" y="745" type="line" smooth="yes"/>
      <point x="1048.0" y="961"/>
      <point x="922.0" y="1097"/>
      <point x="591.0" y="1097" type="curve" smooth="yes"/>
      <point x="312.0" y="1097"/>
      <point x="132.0" y="974"/>
      <point x="132.0" y="755" type="curve" smooth="yes"/>
      <point x="132.0" y="336" type="line" smooth="yes"/>
      <point x="132.0" y="60"/>
      <point x="332.0" y="-23"/>
    </contour>
    <contour>
      <point x="405.0" y="655" type="line"/>
      <point x="405.0" y="760" type="line" smooth="yes"/>
      <point x="405.0" y="874"/>
      <point x="489.0" y="907"/>
      <point x="598.0" y="907" type="curve" smooth="yes"/>
      <point x="707.0" y="907"/>
      <point x="791.0" y="884"/>
      <point x="791.0" y="765" type="curve" smooth="yes"/>
      <point x="791.0" y="655" type="line"/>
    </contour>
  </outline>
</glyph>
<glyph name="edieresis" format="1">
  <advance width="1180"/>
  <unicode hex="00EB"/>
  <outline>
    <contour>
      <point x="203" y="1260" type="line"/>
      <point x="467" y="1260" type="line"/>
      <point x="467" y="1493" type="line"/>
      <point x="203" y="1493" type="line"/>
    </contour>
    <contour>
      <point x="712" y="1260" type="line"/>
      <point x="977" y="1260" type="line"/>
      <point x="977" y="1493" type="line"/>
      <point x="712" y="1493" type="line"/>
    </contour>
    <contour>
      <point x="595" y="-23" type="curve" smooth="yes"/>
      <point x="886" y="-23"/>
      <point x="1039" y="45"/>
      <point x="1047" y="350" type="curve"/>
      <point x="795" y="350" type="line"/>
      <point x="790" y="188"/>
      <point x="725" y="166"/>
      <point x="600" y="166" type="curve" smooth="yes"/>
      <point x="470" y="166"/>
      <point x="405" y="203"/>
      <point x="405" y="330" type="curve" smooth="yes"/>
      <point x="405" y="512" type="line"/>
      <point x="1048" y="512" type="line"/>
      <point x="1048" y="745" type="line" smooth="yes"/>
      <point x="1048" y="961"/>
      <point x="922" y="1097"/>
      <point x="591" y="1097" type="curve" smooth="yes"/>
      <point x="312" y="1097"/>
      <point x="132" y="974"/>
      <point x="132" y="755" type="curve" smooth="yes"/>
      <point x="132" y="336" type="line" smooth="yes"/>
      <point x="132" y="60"/>
      <point x="332" y="-23"/>
    </contour>
    <contour>
      <point x="405" y="655" type="line"/>
      <point x="405" y="760" type="line" smooth="yes"/>
      <point x="405" y="874"/>
      <point x="489" y="907"/>
      <point x="598" y="907" type="curve" smooth="yes"/>
      <point x="707" y="907"/>
      <point x="791" y="884"/>
      <point x="791" y="765" type="curve" smooth="yes"/>
      <point x="791" y="655" type="line"/>
    </contour>
  </outline>
</glyph>
<glyph name="igrave" format="1">
  <advance width="488"/>
  <unicode hex="00EC"/>
  <outline>
    <contour>
      <point x="184" y="1260" type="line"/>
      <point x="335" y="1260" type="line"/>
      <point x="214" y="1625" type="line"/>
      <point x="-53" y="1625" type="line"/>
    </contour>
    <contour>
      <point x="134" y="0" type="line"/>
      <point x="385" y="0" type="line"/>
      <point x="385" y="1074" type="line"/>
      <point x="134" y="1074" type="line"/>
    </contour>
  </outline>
</glyph>
<glyph name="iacute" format="1">
  <advance width="488"/>
  <unicode hex="00ED"/>
  <outline>
    <contour>
      <point x="185" y="1260" type="line"/>
      <point x="334" y="1260" type="line"/>
      <point x="567" y="1625" type="line"/>
      <point x="299" y="1625" type="line"/>
    </contour>
    <contour>
      <point x="134" y="0" type="line"/>
      <point x="385" y="0" type="line"/>
      <point x="385" y="1074" type="line"/>
      <point x="134" y="1074" type="line"/>
    </contour>
  </outline>
</glyph>
<glyph name="icircumflex" format="1">
  <advance width="488"/>
  <unicode hex="00EE"/>
  <outline>
    <contour>
      <point x="-50" y="1260" type="line"/>
      <point x="130" y="1260" type="line"/>
      <point x="266" y="1435" type="line"/>
      <point x="394" y="1260" type="line"/>
      <point x="569" y="1260" type="line"/>
      <point x="347" y="1560" type="line"/>
      <point x="184" y="1560" type="line"/>
    </contour>
    <contour>
      <point x="134" y="0" type="line"/>
      <point x="385" y="0" type="line"/>
      <point x="385" y="1074" type="line"/>
      <point x="134" y="1074" type="line"/>
    </contour>
  </outline>
</glyph>
<glyph name="idieresis" format="1">
  <advance width="488"/>
  <unicode hex="00EF"/>
  <outline>
    <contour>
      <point x="-127.5" y="1260" type="line"/>
      <point x="136.5" y="1260" type="line"/>
      <point x="136.5" y="1493" type="line"/>
      <point x="-127.5" y="1493" type="line"/>
    </contour>
    <contour>
      <point x="381.5" y="1260" type="line"/>
      <point x="646.5" y="1260" type="line"/>
      <point x="646.5" y="1493" type="line"/>
      <point x="381.5" y="1493" type="line"/>
    </contour>
    <contour>
      <point x="134.0" y="0" type="line"/>
      <point x="385.0" y="0" type="line"/>
      <point x="385.0" y="1074" type="line"/>
      <point x="134.0" y="1074" type="line"/>
    </contour>
  </outline>
</glyph>
<glyph name="eth" format="1">
  <advance width="1312"/>
  <unicode hex="00F0"/>
  <outline>
    <contour>
      <point x="677" y="-23" type="curve" smooth="yes"/>
      <point x="1060" y="-23"/>
      <point x="1180" y="195"/>
      <point x="1180" y="460" type="curve" smooth="yes"/>
      <point x="1180" y="536" type="line" smooth="yes"/>
      <point x="1180" y="1137"/>
      <point x="933" y="1376"/>
      <point x="684" y="1448" type="curve"/>
      <point x="758" y="1598" type="line"/>
      <point x="638" y="1655" type="line"/>
      <point x="553" y="1485" type="line"/>
      <point x="438" y="1509"/>
      <point x="331" y="1507"/>
      <point x="257" y="1502" type="curve"/>
      <point x="233" y="1335" type="line"/>
      <point x="302" y="1334"/>
      <point x="386" y="1333"/>
      <point x="471" y="1318" type="curve"/>
      <point x="394" y="1167" type="line"/>
      <point x="513" y="1110" type="line"/>
      <point x="602" y="1284" type="line"/>
      <point x="720" y="1250"/>
      <point x="841" y="1138"/>
      <point x="864" y="921" type="curve"/>
      <point x="837" y="944"/>
      <point x="687" y="975"/>
      <point x="621" y="975" type="curve" smooth="yes"/>
      <point x="358" y="975"/>
      <point x="166" y="846"/>
      <point x="166" y="618" type="curve" smooth="yes"/>
      <point x="166" y="342" type="line" smooth="yes"/>
      <point x="166" y="118"/>
      <point x="326" y="-23"/>
    </contour>
    <contour>
      <point x="677" y="178" type="curve" smooth="yes"/>
      <point x="510" y="178"/>
      <point x="444" y="221"/>
      <point x="444" y="333" type="curve" smooth="yes"/>
      <point x="444" y="612" type="line" smooth="yes"/>
      <point x="444" y="743"/>
      <point x="531" y="793"/>
      <point x="677" y="793" type="curve" smooth="yes"/>
      <point x="737" y="793"/>
      <point x="844" y="766"/>
      <point x="887" y="736" type="curve"/>
      <point x="902" y="654"/>
      <point x="910" y="497"/>
      <point x="910" y="428" type="curve" smooth="yes"/>
      <point x="910" y="258"/>
      <point x="890" y="178"/>
    </contour>
  </outline>
</glyph>
<glyph name="ntilde" format="1">
  <advance width="1248"/>
  <unicode hex="00F1"/>
  <outline>
    <contour>
      <point x="518.5" y="1261" type="curve" smooth="yes"/>
      <point x="671.5" y="1261"/>
      <point x="711.5" y="1364"/>
      <point x="765.5" y="1364" type="curve" smooth="yes"/>
      <point x="798.5" y="1364"/>
      <point x="821.5" y="1338"/>
      <point x="821.5" y="1277" type="curve"/>
      <point x="939.5" y="1277" type="line"/>
      <point x="939.5" y="1464"/>
      <point x="859.5" y="1537"/>
      <point x="739.5" y="1537" type="curve" smooth="yes"/>
      <point x="585.5" y="1537"/>
      <point x="549.5" y="1435"/>
      <point x="499.5" y="1435" type="curve" smooth="yes"/>
      <point x="464.5" y="1435"/>
      <point x="436.5" y="1458"/>
      <point x="436.5" y="1521" type="curve"/>
      <point x="318.5" y="1521" type="line"/>
      <point x="318.5" y="1334"/>
      <point x="398.5" y="1261"/>
    </contour>
    <contour>
      <point x="158.0" y="1" type="line"/>
      <point x="431.0" y="1" type="line"/>
      <point x="431.0" y="759" type="line" smooth="yes"/>
      <point x="431.0" y="864"/>
      <point x="541.0" y="908"/>
      <point x="639.0" y="908" type="curve" smooth="yes"/>
      <point x="724.0" y="908"/>
      <point x="827.0" y="882"/>
      <point x="827.0" y="769" type="curve" smooth="yes"/>
      <point x="827.0" y="1" type="line"/>
      <point x="1100.0" y="1" type="line"/>
      <point x="1100.0" y="795" type="line" smooth="yes"/>
      <point x="1100.0" y="976"/>
      <point x="960.0" y="1098"/>
      <point x="754.0" y="1098" type="curve" smooth="yes"/>
      <point x="605.0" y="1098"/>
      <point x="476.0" y="1031"/>
      <point x="431.0" y="949" type="curve"/>
      <point x="431.0" y="1075" type="line"/>
      <point x="158.0" y="1075" type="line"/>
    </contour>
  </outline>
</glyph>
<glyph name="otilde" format="1">
  <advance width="1196"/>
  <unicode hex="00F5"/>
  <outline>
    <contour>
      <point x="487.5" y="1260" type="curve" smooth="yes"/>
      <point x="640.5" y="1260"/>
      <point x="680.5" y="1363"/>
      <point x="734.5" y="1363" type="curve" smooth="yes"/>
      <point x="767.5" y="1363"/>
      <point x="790.5" y="1337"/>
      <point x="790.5" y="1276" type="curve"/>
      <point x="908.5" y="1276" type="line"/>
      <point x="908.5" y="1463"/>
      <point x="828.5" y="1536"/>
      <point x="708.5" y="1536" type="curve" smooth="yes"/>
      <point x="554.5" y="1536"/>
      <point x="518.5" y="1434"/>
      <point x="468.5" y="1434" type="curve" smooth="yes"/>
      <point x="433.5" y="1434"/>
      <point x="405.5" y="1457"/>
      <point x="405.5" y="1520" type="curve"/>
      <point x="287.5" y="1520" type="line"/>
      <point x="287.5" y="1333"/>
      <point x="367.5" y="1260"/>
    </contour>
    <contour>
      <point x="598.0" y="166" type="curve" smooth="yes"/>
      <point x="473.0" y="166"/>
      <point x="404.0" y="204"/>
      <point x="404.0" y="313" type="curve" smooth="yes"/>
      <point x="404.0" y="760" type="line" smooth="yes"/>
      <point x="404.0" y="869"/>
      <point x="480.0" y="907"/>
      <point x="598.0" y="907" type="curve" smooth="yes"/>
      <point x="721.0" y="907"/>
      <point x="791.0" y="869"/>
      <point x="791.0" y="760" type="curve" smooth="yes"/>
      <point x="791.0" y="313" type="line" smooth="yes"/>
      <point x="791.0" y="204"/>
      <point x="714.0" y="166"/>
    </contour>
    <contour>
      <point x="598.0" y="-23" type="curve" smooth="yes"/>
      <point x="947.0" y="-23"/>
      <point x="1064.0" y="112"/>
      <point x="1064.0" y="325" type="curve" smooth="yes"/>
      <point x="1064.0" y="748" type="line" smooth="yes"/>
      <point x="1064.0" y="967"/>
      <point x="891.0" y="1097"/>
      <point x="598.0" y="1097" type="curve" smooth="yes"/>
      <point x="303.0" y="1097"/>
      <point x="132.0" y="967"/>
      <point x="132.0" y="748" type="curve" smooth="yes"/>
      <point x="132.0" y="325" type="line" smooth="yes"/>
      <point x="132.0" y="111"/>
      <point x="259.0" y="-23"/>
    </contour>
  </outline>
</glyph>
<glyph name="divide" format="1">
  <advance width="1004"/>
  <unicode hex="00F7"/>
  <outline>
    <contour>
      <point x="389" y="94" type="line"/>
      <point x="617" y="94" type="line"/>
      <point x="617" y="323" type="line"/>
      <point x="389" y="323" type="line"/>
    </contour>
    <contour>
      <point x="112" y="479" type="line"/>
      <point x="892" y="479" type="line"/>
      <point x="892" y="642" type="line"/>
      <point x="112" y="642" type="line"/>
    </contour>
    <contour>
      <point x="389" y="792" type="line"/>
      <point x="617" y="792" type="line"/>
      <point x="617" y="1021" type="line"/>
      <point x="389" y="1021" type="line"/>
    </contour>
  </outline>
</glyph>
<glyph name="ucircumflex" format="1">
  <advance width="1246"/>
  <unicode hex="00FB"/>
  <outline>
    <contour>
      <point x="308.5" y="1260" type="line"/>
      <point x="488.5" y="1260" type="line"/>
      <point x="624.5" y="1435" type="line"/>
      <point x="752.5" y="1260" type="line"/>
      <point x="927.5" y="1260" type="line"/>
      <point x="705.5" y="1560" type="line"/>
      <point x="542.5" y="1560" type="line"/>
    </contour>
    <contour>
      <point x="488.0" y="-23" type="curve" smooth="yes"/>
      <point x="637.0" y="-23"/>
      <point x="772.0" y="46"/>
      <point x="815.0" y="135" type="curve"/>
      <point x="821.0" y="0" type="line"/>
      <point x="1088.0" y="0" type="line"/>
      <point x="1088.0" y="1074" type="line"/>
      <point x="815.0" y="1074" type="line"/>
      <point x="815.0" y="317" type="line" smooth="yes"/>
      <point x="815.0" y="217"/>
      <point x="701.0" y="166"/>
      <point x="602.0" y="166" type="curve" smooth="yes"/>
      <point x="518.0" y="166"/>
      <point x="420.0" y="196"/>
      <point x="420.0" y="308" type="curve" smooth="yes"/>
      <point x="420.0" y="1074" type="line"/>
      <point x="148.0" y="1074" type="line"/>
      <point x="148.0" y="280" type="line" smooth="yes"/>
      <point x="148.0" y="99"/>
      <point x="282.0" y="-23"/>
    </contour>
  </outline>
</glyph>
<glyph name="yacute" format="1">
  <advance width="1130"/>
  <unicode hex="00FD"/>
  <outline>
    <contour>
      <point x="499.5" y="1260" type="line"/>
      <point x="648.5" y="1260" type="line"/>
      <point x="881.5" y="1625" type="line"/>
      <point x="613.5" y="1625" type="line"/>
    </contour>
    <contour>
      <point x="188.0" y="-387" type="line"/>
      <point x="305.0" y="-387" type="line" smooth="yes"/>
      <point x="590.0" y="-387"/>
      <point x="631.0" y="-303"/>
      <point x="761.0" y="87" type="curve" smooth="yes"/>
      <point x="1092.0" y="1074" type="line"/>
      <point x="828.0" y="1074" type="line"/>
      <point x="598.0" y="300" type="line"/>
      <point x="323.0" y="1074" type="line"/>
      <point x="56.0" y="1074" type="line"/>
      <point x="477.0" y="-2" type="line"/>
      <point x="443.0" y="-127"/>
      <point x="407.0" y="-198"/>
      <point x="300.0" y="-198" type="curve" smooth="yes"/>
      <point x="188.0" y="-198" type="line"/>
    </contour>
  </outline>
</glyph>
<glyph name="thorn" format="1">
  <advance width="1212"/>
  <unicode hex="00FE"/>
  <outline>
    <contour>
      <point x="158" y="-410" type="line"/>
      <point x="431" y="-410" type="line"/>
      <point x="431" y="17" type="line"/>
      <point x="484" y="-6"/>
      <point x="551" y="-24"/>
      <point x="636" y="-24" type="curve" smooth="yes"/>
      <point x="939" y="-24"/>
      <point x="1080" y="142"/>
      <point x="1080" y="326" type="curve" smooth="yes"/>
      <point x="1080" y="751" type="line" smooth="yes"/>
      <point x="1080" y="957"/>
      <point x="928" y="1095"/>
      <point x="668" y="1095" type="curve" smooth="yes"/>
      <point x="577" y="1095"/>
      <point x="494" y="1071"/>
      <point x="431" y="1036" type="curve"/>
      <point x="431" y="1516" type="line"/>
      <point x="158" y="1516" type="line"/>
    </contour>
    <contour>
      <point x="614" y="165" type="curve" smooth="yes"/>
      <point x="509" y="165"/>
      <point x="446" y="205"/>
      <point x="431" y="213" type="curve"/>
      <point x="431" y="841" type="line"/>
      <point x="463" y="872"/>
      <point x="535" y="906"/>
      <point x="623" y="906" type="curve" smooth="yes"/>
      <point x="736" y="906"/>
      <point x="807" y="862"/>
      <point x="807" y="755" type="curve" smooth="yes"/>
      <point x="807" y="320" type="line" smooth="yes"/>
      <point x="807" y="211"/>
      <point x="737" y="165"/>
    </contour>
  </outline>
</glyph>
<glyph name="ydieresis" format="1">
  <advance width="1130"/>
  <unicode hex="00FF"/>
  <outline>
    <contour>
      <point x="187" y="1260" type="line"/>
      <point x="451" y="1260" type="line"/>
      <point x="451" y="1493" type="line"/>
      <point x="187" y="1493" type="line"/>
    </contour>
    <contour>
      <point x="696" y="1260" type="line"/>
      <point x="961" y="1260" type="line"/>
      <point x="961" y="1493" type="line"/>
      <point x="696" y="1493" type="line"/>
    </contour>
    <contour>
      <point x="188" y="-387" type="line"/>
      <point x="305" y="-387" type="line" smooth="yes"/>
      <point x="590" y="-387"/>
      <point x="631" y="-303"/>
      <point x="761" y="87" type="curve" smooth="yes"/>
      <point x="1092" y="1074" type="line"/>
      <point x="828" y="1074" type="line"/>
      <point x="598" y="300" type="line"/>
      <point x="323" y="1074" type="line"/>
      <point x="56" y="1074" type="line"/>
      <point x="477" y="-2" type="line"/>
      <point x="443" y="-127"/>
      <point x="407" y="-198"/>
      <point x="300" y="-198" type="curve" smooth="yes"/>
      <point x="188" y="-198" type="line"/>
    </contour>
  </outline>
</glyph>
<glyph name="Abreve" format="1">
  <advance width="1532"/>
  <unicode hex="0102"/>
  <outline>
    <contour>
      <point x="766" y="1664" type="curve" smooth="yes"/>
      <point x="911" y="1664"/>
      <point x="1002" y="1767"/>
      <point x="1002" y="1889" type="curve"/>
      <point x="878" y="1889" type="line"/>
      <point x="878" y="1817"/>
      <point x="826" y="1777"/>
      <point x="765" y="1777" type="curve" smooth="yes"/>
      <point x="707" y="1777"/>
      <point x="654" y="1817"/>
      <point x="654" y="1889" type="curve"/>
      <point x="530" y="1889" type="line"/>
      <point x="530" y="1767"/>
      <point x="621" y="1664"/>
    </contour>
    <contour>
      <point x="74" y="0" type="line"/>
      <point x="386" y="0" type="line"/>
      <point x="472" y="281" type="line"/>
      <point x="1057" y="281" type="line"/>
      <point x="1140" y="0" type="line"/>
      <point x="1458" y="0" type="line"/>
      <point x="960" y="1477" type="line"/>
      <point x="566" y="1477" type="line"/>
    </contour>
    <contour>
      <point x="531" y="479" type="line"/>
      <point x="770" y="1255" type="line"/>
      <point x="1000" y="479" type="line"/>
    </contour>
  </outline>
</glyph>
<glyph name="Aogonek" format="1">
  <advance width="1532"/>
  <unicode hex="0104"/>
  <outline>
    <contour>
      <point x="1351" y="-499.763671875" type="curve"/>
      <point x="1364" y="-358.763671875" type="line"/>
      <point x="1275" y="-358.763671875"/>
      <point x="1188" y="-341.763671875"/>
      <point x="1188" y="-236.763671875" type="curve" smooth="yes"/>
      <point x="1188" y="-147.763671875"/>
      <point x="1230" y="-61.763671875"/>
      <point x="1271" y="17.236328125" type="curve"/>
      <point x="1156" y="17.236328125" type="line"/>
      <point x="1066" y="-67.763671875"/>
      <point x="1003" y="-185.763671875"/>
      <point x="1003" y="-285.763671875" type="curve" smooth="yes"/>
      <point x="1003" y="-471.763671875"/>
      <point x="1190" y="-501.763671875"/>
    </contour>
    <contour>
      <point x="74" y="0.0" type="line"/>
      <point x="386" y="0.0" type="line"/>
      <point x="472" y="281.0" type="line"/>
      <point x="1057" y="281.0" type="line"/>
      <point x="1140" y="0.0" type="line"/>
      <point x="1458" y="0.0" type="line"/>
      <point x="960" y="1477.0" type="line"/>
      <point x="566" y="1477.0" type="line"/>
    </contour>
    <contour>
      <point x="531" y="479.0" type="line"/>
      <point x="770" y="1255.0" type="line"/>
      <point x="1000" y="479.0" type="line"/>
    </contour>
  </outline>
</glyph>
<glyph name="aogonek" format="1">
  <advance width="1218"/>
  <unicode hex="0105"/>
  <outline>
    <contour>
      <point x="1118.81445312" y="-510.763671875" type="curve"/>
      <point x="1131.81445312" y="-369.763671875" type="line"/>
      <point x="1042.81445312" y="-369.763671875"/>
      <point x="955.814453125" y="-352.763671875"/>
      <point x="955.814453125" y="-247.763671875" type="curve" smooth="yes"/>
      <point x="955.814453125" y="-158.763671875"/>
      <point x="997.814453125" y="-72.763671875"/>
      <point x="1038.81445312" y="6.236328125" type="curve"/>
      <point x="923.814453125" y="6.236328125" type="line"/>
      <point x="833.814453125" y="-78.763671875"/>
      <point x="770.814453125" y="-196.763671875"/>
      <point x="770.814453125" y="-296.763671875" type="curve" smooth="yes"/>
      <point x="770.814453125" y="-482.763671875"/>
      <point x="957.814453125" y="-512.763671875"/>
    </contour>
    <contour>
      <point x="447.0" y="-23.0" type="curve" smooth="yes"/>
      <point x="604.0" y="-23.0"/>
      <point x="719.0" y="63.0"/>
      <point x="777.0" y="139.0" type="curve"/>
      <point x="816.0" y="52.0"/>
      <point x="857.0" y="-8.0"/>
      <point x="1006.0" y="-8.0" type="curve" smooth="yes"/>
      <point x="1103.0" y="-8.0" type="line"/>
      <point x="1114.0" y="190.0" type="line"/>
      <point x="1047.0" y="190.0"/>
      <point x="1027.0" y="210.0"/>
      <point x="1027.0" y="308.0" type="curve" smooth="yes"/>
      <point x="1027.0" y="733.0" type="line" smooth="yes"/>
      <point x="1027.0" y="955.0"/>
      <point x="917.0" y="1097.0"/>
      <point x="596.0" y="1097.0" type="curve" smooth="yes"/>
      <point x="302.0" y="1097.0"/>
      <point x="168.0" y="963.0"/>
      <point x="168.0" y="755.0" type="curve" smooth="yes"/>
      <point x="168.0" y="723.0" type="line"/>
      <point x="423.0" y="723.0" type="line"/>
      <point x="423.0" y="765.0" type="line" smooth="yes"/>
      <point x="423.0" y="848.0"/>
      <point x="454.0" y="907.0"/>
      <point x="590.0" y="907.0" type="curve" smooth="yes"/>
      <point x="712.0" y="907.0"/>
      <point x="755.0" y="863.0"/>
      <point x="755.0" y="777.0" type="curve"/>
      <point x="754.0" y="642.0"/>
      <point x="670.0" y="641.0"/>
      <point x="477.0" y="583.0" type="curve" smooth="yes"/>
      <point x="173.0" y="492.0"/>
      <point x="131.0" y="420.0"/>
      <point x="136.0" y="268.0" type="curve" smooth="yes"/>
      <point x="141.0" y="90.0"/>
      <point x="263.0" y="-23.0"/>
    </contour>
    <contour>
      <point x="539.0" y="171.0" type="curve" smooth="yes"/>
      <point x="448.0" y="171.0"/>
      <point x="399.0" y="218.0"/>
      <point x="397.0" y="302.0" type="curve" smooth="yes"/>
      <point x="395.0" y="363.0"/>
      <point x="430.0" y="419.0"/>
      <point x="545.0" y="452.0" type="curve" smooth="yes"/>
      <point x="635.0" y="478.0"/>
      <point x="722.0" y="513.0"/>
      <point x="755.0" y="543.0" type="curve"/>
      <point x="755.0" y="272.0" type="line"/>
      <point x="705.0" y="197.0"/>
      <point x="605.0" y="171.0"/>
    </contour>
  </outline>
</glyph>
<glyph name="Cacute" format="1">
  <advance width="1524"/>
  <unicode hex="0106"/>
  <outline>
    <contour>
      <point x="700.5" y="1664" type="line"/>
      <point x="849.5" y="1664" type="line"/>
      <point x="1082.5" y="2029" type="line"/>
      <point x="814.5" y="2029" type="line"/>
    </contour>
    <contour>
      <point x="792.0" y="-26" type="curve" smooth="yes"/>
      <point x="1304.0" y="-26"/>
      <point x="1378.0" y="190"/>
      <point x="1378.0" y="480" type="curve" smooth="yes"/>
      <point x="1378.0" y="507" type="line"/>
      <point x="1087.0" y="507" type="line"/>
      <point x="1087.0" y="460" type="line" smooth="yes"/>
      <point x="1087.0" y="250"/>
      <point x="1018.0" y="207"/>
      <point x="793.0" y="207" type="curve" smooth="yes"/>
      <point x="571.0" y="207"/>
      <point x="469.0" y="252"/>
      <point x="469.0" y="454" type="curve" smooth="yes"/>
      <point x="469.0" y="1012" type="line" smooth="yes"/>
      <point x="469.0" y="1215"/>
      <point x="572.0" y="1268"/>
      <point x="792.0" y="1268" type="curve" smooth="yes"/>
      <point x="1017.0" y="1268"/>
      <point x="1087.0" y="1213"/>
      <point x="1087.0" y="1006" type="curve" smooth="yes"/>
      <point x="1087.0" y="931" type="line"/>
      <point x="1378.0" y="965" type="line"/>
      <point x="1378.0" y="983" type="line" smooth="yes"/>
      <point x="1378.0" y="1281"/>
      <point x="1296.0" y="1501"/>
      <point x="792.0" y="1501" type="curve" smooth="yes"/>
      <point x="263.0" y="1501"/>
      <point x="172.0" y="1275"/>
      <point x="172.0" y="977" type="curve" smooth="yes"/>
      <point x="172.0" y="484" type="line" smooth="yes"/>
      <point x="172.0" y="193"/>
      <point x="266.0" y="-26"/>
    </contour>
  </outline>
</glyph>
<glyph name="cacute" format="1">
  <advance width="1144"/>
  <unicode hex="0107"/>
  <outline>
    <contour>
      <point x="500.5" y="1260" type="line"/>
      <point x="649.5" y="1260" type="line"/>
      <point x="882.5" y="1625" type="line"/>
      <point x="614.5" y="1625" type="line"/>
    </contour>
    <contour>
      <point x="582.0" y="-23" type="curve" smooth="yes"/>
      <point x="924.0" y="-23"/>
      <point x="1011.0" y="77"/>
      <point x="1017.0" y="380" type="curve"/>
      <point x="763.0" y="380" type="line"/>
      <point x="763.0" y="197"/>
      <point x="730.0" y="168"/>
      <point x="588.0" y="168" type="curve" smooth="yes"/>
      <point x="464.0" y="168"/>
      <point x="405.0" y="207"/>
      <point x="405.0" y="322" type="curve" smooth="yes"/>
      <point x="405.0" y="756" type="line" smooth="yes"/>
      <point x="405.0" y="867"/>
      <point x="472.0" y="907"/>
      <point x="588.0" y="907" type="curve" smooth="yes"/>
      <point x="728.0" y="907"/>
      <point x="761.0" y="874"/>
      <point x="762.0" y="679" type="curve"/>
      <point x="1018.0" y="699" type="line"/>
      <point x="1018.0" y="1007"/>
      <point x="867.0" y="1097"/>
      <point x="578.0" y="1097" type="curve" smooth="yes"/>
      <point x="297.0" y="1097"/>
      <point x="132.0" y="972"/>
      <point x="132.0" y="757" type="curve" smooth="yes"/>
      <point x="132.0" y="327" type="line" smooth="yes"/>
      <point x="132.0" y="140"/>
      <point x="215.0" y="-23"/>
    </contour>
  </outline>
</glyph>
<glyph name="cdotaccent" format="1">
  <advance width="1144"/>
  <unicode hex="010B"/>
  <outline>
    <contour>
      <point x="451" y="1260" type="line"/>
      <point x="699" y="1260" type="line"/>
      <point x="699" y="1507" type="line"/>
      <point x="451" y="1507" type="line"/>
    </contour>
    <contour>
      <point x="582" y="-23" type="curve" smooth="yes"/>
      <point x="924" y="-23"/>
      <point x="1011" y="77"/>
      <point x="1017" y="380" type="curve"/>
      <point x="763" y="380" type="line"/>
      <point x="763" y="197"/>
      <point x="730" y="168"/>
      <point x="588" y="168" type="curve" smooth="yes"/>
      <point x="464" y="168"/>
      <point x="405" y="207"/>
      <point x="405" y="322" type="curve" smooth="yes"/>
      <point x="405" y="756" type="line" smooth="yes"/>
      <point x="405" y="867"/>
      <point x="472" y="907"/>
      <point x="588" y="907" type="curve" smooth="yes"/>
      <point x="728" y="907"/>
      <point x="761" y="874"/>
      <point x="762" y="679" type="curve"/>
      <point x="1018" y="699" type="line"/>
      <point x="1018" y="1007"/>
      <point x="867" y="1097"/>
      <point x="578" y="1097" type="curve" smooth="yes"/>
      <point x="297" y="1097"/>
      <point x="132" y="972"/>
      <point x="132" y="757" type="curve" smooth="yes"/>
      <point x="132" y="327" type="line" smooth="yes"/>
      <point x="132" y="140"/>
      <point x="215" y="-23"/>
    </contour>
  </outline>
</glyph>
<glyph name="Ccaron" format="1">
  <advance width="1524"/>
  <unicode hex="010C"/>
  <outline>
    <contour>
      <point x="687.5" y="1664" type="line"/>
      <point x="850.5" y="1664" type="line"/>
      <point x="1084.5" y="1964" type="line"/>
      <point x="904.5" y="1964" type="line"/>
      <point x="768.5" y="1789" type="line"/>
      <point x="640.5" y="1964" type="line"/>
      <point x="465.5" y="1964" type="line"/>
    </contour>
    <contour>
      <point x="792.0" y="-26" type="curve" smooth="yes"/>
      <point x="1304.0" y="-26"/>
      <point x="1378.0" y="190"/>
      <point x="1378.0" y="480" type="curve" smooth="yes"/>
      <point x="1378.0" y="507" type="line"/>
      <point x="1087.0" y="507" type="line"/>
      <point x="1087.0" y="460" type="line" smooth="yes"/>
      <point x="1087.0" y="250"/>
      <point x="1018.0" y="207"/>
      <point x="793.0" y="207" type="curve" smooth="yes"/>
      <point x="571.0" y="207"/>
      <point x="469.0" y="252"/>
      <point x="469.0" y="454" type="curve" smooth="yes"/>
      <point x="469.0" y="1012" type="line" smooth="yes"/>
      <point x="469.0" y="1215"/>
      <point x="572.0" y="1268"/>
      <point x="792.0" y="1268" type="curve" smooth="yes"/>
      <point x="1017.0" y="1268"/>
      <point x="1087.0" y="1213"/>
      <point x="1087.0" y="1006" type="curve" smooth="yes"/>
      <point x="1087.0" y="931" type="line"/>
      <point x="1378.0" y="965" type="line"/>
      <point x="1378.0" y="983" type="line" smooth="yes"/>
      <point x="1378.0" y="1281"/>
      <point x="1296.0" y="1501"/>
      <point x="792.0" y="1501" type="curve" smooth="yes"/>
      <point x="263.0" y="1501"/>
      <point x="172.0" y="1275"/>
      <point x="172.0" y="977" type="curve" smooth="yes"/>
      <point x="172.0" y="484" type="line" smooth="yes"/>
      <point x="172.0" y="193"/>
      <point x="266.0" y="-26"/>
    </contour>
  </outline>
</glyph>
<glyph name="Dcaron" format="1">
  <advance width="1568"/>
  <unicode hex="010E"/>
  <outline>
    <contour>
      <point x="716.5" y="1664" type="line"/>
      <point x="879.5" y="1664" type="line"/>
      <point x="1113.5" y="1964" type="line"/>
      <point x="933.5" y="1964" type="line"/>
      <point x="797.5" y="1789" type="line"/>
      <point x="669.5" y="1964" type="line"/>
      <point x="494.5" y="1964" type="line"/>
    </contour>
    <contour>
      <point x="509.0" y="231" type="line"/>
      <point x="509.0" y="1245" type="line"/>
      <point x="827.0" y="1245" type="line" smooth="yes"/>
      <point x="1033.0" y="1245"/>
      <point x="1099.0" y="1160"/>
      <point x="1099.0" y="1000" type="curve" smooth="yes"/>
      <point x="1099.0" y="470" type="line" smooth="yes"/>
      <point x="1099.0" y="306"/>
      <point x="1036.0" y="231"/>
      <point x="827.0" y="231" type="curve" smooth="yes"/>
    </contour>
    <contour>
      <point x="212.0" y="0" type="line"/>
      <point x="853.0" y="0" type="line" smooth="yes"/>
      <point x="1268.0" y="0"/>
      <point x="1396.0" y="213"/>
      <point x="1396.0" y="508" type="curve" smooth="yes"/>
      <point x="1396.0" y="961" type="line" smooth="yes"/>
      <point x="1396.0" y="1250"/>
      <point x="1280.0" y="1477"/>
      <point x="852.0" y="1477" type="curve" smooth="yes"/>
      <point x="212.0" y="1477" type="line"/>
    </contour>
  </outline>
</glyph>
<glyph name="dcaron" format="1">
  <advance width="1210"/>
  <unicode hex="010F"/>
  <outline>
    <contour>
      <point x="1422.5" y="851" type="line"/>
      <point x="1484.5" y="907"/>
      <point x="1618.5" y="1092"/>
      <point x="1618.5" y="1293" type="curve" smooth="yes"/>
      <point x="1618.5" y="1516" type="line"/>
      <point x="1296.5" y="1516" type="line"/>
      <point x="1296.5" y="1240" type="line"/>
      <point x="1461.5" y="1240" type="line"/>
      <point x="1461.5" y="1102"/>
      <point x="1366.5" y="955"/>
      <point x="1315.5" y="897" type="curve"/>
    </contour>
    <contour>
      <point x="560.0" y="-23" type="curve" smooth="yes"/>
      <point x="670.0" y="-23"/>
      <point x="768.0" y="14"/>
      <point x="838.0" y="63" type="curve"/>
      <point x="867.0" y="0" type="line"/>
      <point x="1052.0" y="0" type="line"/>
      <point x="1052.0" y="1516" type="line"/>
      <point x="779.0" y="1516" type="line"/>
      <point x="779.0" y="1059" type="line"/>
      <point x="716.0" y="1082"/>
      <point x="640.0" y="1097"/>
      <point x="579.0" y="1097" type="curve" smooth="yes"/>
      <point x="266.0" y="1097"/>
      <point x="132.0" y="951"/>
      <point x="132.0" y="753" type="curve" smooth="yes"/>
      <point x="132.0" y="324" type="line" smooth="yes"/>
      <point x="132.0" y="108"/>
      <point x="269.0" y="-23"/>
    </contour>
    <contour>
      <point x="592.0" y="168" type="curve" smooth="yes"/>
      <point x="472.0" y="168"/>
      <point x="405.0" y="211"/>
      <point x="405.0" y="320" type="curve" smooth="yes"/>
      <point x="405.0" y="759" type="line" smooth="yes"/>
      <point x="405.0" y="868"/>
      <point x="478.0" y="907"/>
      <point x="602.0" y="907" type="curve" smooth="yes"/>
      <point x="678.0" y="907"/>
      <point x="743.0" y="887"/>
      <point x="779.0" y="870" type="curve"/>
      <point x="779.0" y="211" type="line"/>
      <point x="737.0" y="186"/>
      <point x="667.0" y="168"/>
    </contour>
  </outline>
</glyph>
<glyph name="Dcroat" format="1">
  <advance width="1568"/>
  <unicode hex="0110"/>
  <outline>
    <contour>
      <point x="90" y="848" type="line"/>
      <point x="815" y="848" type="line"/>
      <point x="815" y="698" type="line"/>
      <point x="90" y="698" type="line"/>
    </contour>
    <contour>
      <point x="509" y="231" type="line"/>
      <point x="509" y="1245" type="line"/>
      <point x="827" y="1245" type="line" smooth="yes"/>
      <point x="1033" y="1245"/>
      <point x="1099" y="1160"/>
      <point x="1099" y="1000" type="curve" smooth="yes"/>
      <point x="1099" y="470" type="line" smooth="yes"/>
      <point x="1099" y="306"/>
      <point x="1036" y="231"/>
      <point x="827" y="231" type="curve" smooth="yes"/>
    </contour>
    <contour>
      <point x="212" y="0" type="line"/>
      <point x="853" y="0" type="line" smooth="yes"/>
      <point x="1268" y="0"/>
      <point x="1396" y="213"/>
      <point x="1396" y="508" type="curve" smooth="yes"/>
      <point x="1396" y="961" type="line" smooth="yes"/>
      <point x="1396" y="1250"/>
      <point x="1280" y="1477"/>
      <point x="852" y="1477" type="curve" smooth="yes"/>
      <point x="212" y="1477" type="line"/>
    </contour>
  </outline>
</glyph>
<glyph name="Emacron" format="1">
  <advance width="1314"/>
  <unicode hex="0112"/>
  <outline>
    <contour>
      <point x="494" y="1664" type="line"/>
      <point x="908" y="1664" type="line"/>
      <point x="908" y="1821" type="line"/>
      <point x="494" y="1821" type="line"/>
    </contour>
    <contour>
      <point x="212" y="0" type="line"/>
      <point x="1190" y="0" type="line"/>
      <point x="1190" y="227" type="line"/>
      <point x="509" y="227" type="line"/>
      <point x="509" y="646" type="line"/>
      <point x="1103" y="646" type="line"/>
      <point x="1103" y="860" type="line"/>
      <point x="509" y="860" type="line"/>
      <point x="509" y="1249" type="line"/>
      <point x="1179" y="1249" type="line"/>
      <point x="1179" y="1477" type="line"/>
      <point x="212" y="1477" type="line"/>
    </contour>
  </outline>
</glyph>
<glyph name="Ebreve" format="1">
  <advance width="1314"/>
  <unicode hex="0114"/>
  <outline>
    <contour>
      <point x="701" y="1664" type="curve" smooth="yes"/>
      <point x="846" y="1664"/>
      <point x="937" y="1767"/>
      <point x="937" y="1889" type="curve"/>
      <point x="813" y="1889" type="line"/>
      <point x="813" y="1817"/>
      <point x="761" y="1777"/>
      <point x="700" y="1777" type="curve" smooth="yes"/>
      <point x="642" y="1777"/>
      <point x="589" y="1817"/>
      <point x="589" y="1889" type="curve"/>
      <point x="465" y="1889" type="line"/>
      <point x="465" y="1767"/>
      <point x="556" y="1664"/>
    </contour>
    <contour>
      <point x="212" y="0" type="line"/>
      <point x="1190" y="0" type="line"/>
      <point x="1190" y="227" type="line"/>
      <point x="509" y="227" type="line"/>
      <point x="509" y="646" type="line"/>
      <point x="1103" y="646" type="line"/>
      <point x="1103" y="860" type="line"/>
      <point x="509" y="860" type="line"/>
      <point x="509" y="1249" type="line"/>
      <point x="1179" y="1249" type="line"/>
      <point x="1179" y="1477" type="line"/>
      <point x="212" y="1477" type="line"/>
    </contour>
  </outline>
</glyph>
<glyph name="ebreve" format="1">
  <advance width="1180"/>
  <unicode hex="0115"/>
  <outline>
    <contour>
      <point x="590" y="1260" type="curve" smooth="yes"/>
      <point x="735" y="1260"/>
      <point x="826" y="1363"/>
      <point x="826" y="1485" type="curve"/>
      <point x="702" y="1485" type="line"/>
      <point x="702" y="1413"/>
      <point x="650" y="1373"/>
      <point x="589" y="1373" type="curve" smooth="yes"/>
      <point x="531" y="1373"/>
      <point x="478" y="1413"/>
      <point x="478" y="1485" type="curve"/>
      <point x="354" y="1485" type="line"/>
      <point x="354" y="1363"/>
      <point x="445" y="1260"/>
    </contour>
    <contour>
      <point x="595" y="-23" type="curve" smooth="yes"/>
      <point x="886" y="-23"/>
      <point x="1039" y="45"/>
      <point x="1047" y="350" type="curve"/>
      <point x="795" y="350" type="line"/>
      <point x="790" y="188"/>
      <point x="725" y="166"/>
      <point x="600" y="166" type="curve" smooth="yes"/>
      <point x="470" y="166"/>
      <point x="405" y="203"/>
      <point x="405" y="330" type="curve" smooth="yes"/>
      <point x="405" y="512" type="line"/>
      <point x="1048" y="512" type="line"/>
      <point x="1048" y="745" type="line" smooth="yes"/>
      <point x="1048" y="961"/>
      <point x="922" y="1097"/>
      <point x="591" y="1097" type="curve" smooth="yes"/>
      <point x="312" y="1097"/>
      <point x="132" y="974"/>
      <point x="132" y="755" type="curve" smooth="yes"/>
      <point x="132" y="336" type="line" smooth="yes"/>
      <point x="132" y="60"/>
      <point x="332" y="-23"/>
    </contour>
    <contour>
      <point x="405" y="655" type="line"/>
      <point x="405" y="760" type="line" smooth="yes"/>
      <point x="405" y="874"/>
      <point x="489" y="907"/>
      <point x="598" y="907" type="curve" smooth="yes"/>
      <point x="707" y="907"/>
      <point x="791" y="884"/>
      <point x="791" y="765" type="curve" smooth="yes"/>
      <point x="791" y="655" type="line"/>
    </contour>
  </outline>
</glyph>
<glyph name="Edotaccent" format="1">
  <advance width="1314"/>
  <unicode hex="0116"/>
  <outline>
    <contour>
      <point x="577" y="1664" type="line"/>
      <point x="825" y="1664" type="line"/>
      <point x="825" y="1911" type="line"/>
      <point x="577" y="1911" type="line"/>
    </contour>
    <contour>
      <point x="212" y="0" type="line"/>
      <point x="1190" y="0" type="line"/>
      <point x="1190" y="227" type="line"/>
      <point x="509" y="227" type="line"/>
      <point x="509" y="646" type="line"/>
      <point x="1103" y="646" type="line"/>
      <point x="1103" y="860" type="line"/>
      <point x="509" y="860" type="line"/>
      <point x="509" y="1249" type="line"/>
      <point x="1179" y="1249" type="line"/>
      <point x="1179" y="1477" type="line"/>
      <point x="212" y="1477" type="line"/>
    </contour>
  </outline>
</glyph>
<glyph name="Eogonek" format="1">
  <advance width="1314"/>
  <unicode hex="0118"/>
  <outline>
    <contour>
      <point x="896" y="-499.763671875" type="curve"/>
      <point x="909" y="-358.763671875" type="line"/>
      <point x="820" y="-358.763671875"/>
      <point x="733" y="-341.763671875"/>
      <point x="733" y="-236.763671875" type="curve" smooth="yes"/>
      <point x="733" y="-147.763671875"/>
      <point x="775" y="-61.763671875"/>
      <point x="816" y="17.236328125" type="curve"/>
      <point x="701" y="17.236328125" type="line"/>
      <point x="611" y="-67.763671875"/>
      <point x="548" y="-185.763671875"/>
      <point x="548" y="-285.763671875" type="curve" smooth="yes"/>
      <point x="548" y="-471.763671875"/>
      <point x="735" y="-501.763671875"/>
    </contour>
    <contour>
      <point x="212" y="0.0" type="line"/>
      <point x="1190" y="0.0" type="line"/>
      <point x="1190" y="227.0" type="line"/>
      <point x="509" y="227.0" type="line"/>
      <point x="509" y="646.0" type="line"/>
      <point x="1103" y="646.0" type="line"/>
      <point x="1103" y="860.0" type="line"/>
      <point x="509" y="860.0" type="line"/>
      <point x="509" y="1249.0" type="line"/>
      <point x="1179" y="1249.0" type="line"/>
      <point x="1179" y="1477.0" type="line"/>
      <point x="212" y="1477.0" type="line"/>
    </contour>
  </outline>
</glyph>
<glyph name="eogonek" format="1">
  <advance width="1180"/>
  <unicode hex="0119"/>
  <outline>
    <contour>
      <point x="727.5" y="-522.763671875" type="curve"/>
      <point x="740.5" y="-381.763671875" type="line"/>
      <point x="651.5" y="-381.763671875"/>
      <point x="564.5" y="-364.763671875"/>
      <point x="564.5" y="-259.763671875" type="curve" smooth="yes"/>
      <point x="564.5" y="-170.763671875"/>
      <point x="606.5" y="-84.763671875"/>
      <point x="647.5" y="-5.763671875" type="curve"/>
      <point x="532.5" y="-5.763671875" type="line"/>
      <point x="442.5" y="-90.763671875"/>
      <point x="379.5" y="-208.763671875"/>
      <point x="379.5" y="-308.763671875" type="curve" smooth="yes"/>
      <point x="379.5" y="-494.763671875"/>
      <point x="566.5" y="-524.763671875"/>
    </contour>
    <contour>
      <point x="595.0" y="-23.0" type="curve" smooth="yes"/>
      <point x="886.0" y="-23.0"/>
      <point x="1039.0" y="45.0"/>
      <point x="1047.0" y="350.0" type="curve"/>
      <point x="795.0" y="350.0" type="line"/>
      <point x="790.0" y="188.0"/>
      <point x="725.0" y="166.0"/>
      <point x="600.0" y="166.0" type="curve" smooth="yes"/>
      <point x="470.0" y="166.0"/>
      <point x="405.0" y="203.0"/>
      <point x="405.0" y="330.0" type="curve" smooth="yes"/>
      <point x="405.0" y="512.0" type="line"/>
      <point x="1048.0" y="512.0" type="line"/>
      <point x="1048.0" y="745.0" type="line" smooth="yes"/>
      <point x="1048.0" y="961.0"/>
      <point x="922.0" y="1097.0"/>
      <point x="591.0" y="1097.0" type="curve" smooth="yes"/>
      <point x="312.0" y="1097.0"/>
      <point x="132.0" y="974.0"/>
      <point x="132.0" y="755.0" type="curve" smooth="yes"/>
      <point x="132.0" y="336.0" type="line" smooth="yes"/>
      <point x="132.0" y="60.0"/>
      <point x="332.0" y="-23.0"/>
    </contour>
    <contour>
      <point x="405.0" y="655.0" type="line"/>
      <point x="405.0" y="760.0" type="line" smooth="yes"/>
      <point x="405.0" y="874.0"/>
      <point x="489.0" y="907.0"/>
      <point x="598.0" y="907.0" type="curve" smooth="yes"/>
      <point x="707.0" y="907.0"/>
      <point x="791.0" y="884.0"/>
      <point x="791.0" y="765.0" type="curve" smooth="yes"/>
      <point x="791.0" y="655.0" type="line"/>
    </contour>
  </outline>
</glyph>
<glyph name="Ecaron" format="1">
  <advance width="1314"/>
  <unicode hex="011A"/>
  <outline>
    <contour>
      <point x="613.5" y="1664" type="line"/>
      <point x="776.5" y="1664" type="line"/>
      <point x="1010.5" y="1964" type="line"/>
      <point x="830.5" y="1964" type="line"/>
      <point x="694.5" y="1789" type="line"/>
      <point x="566.5" y="1964" type="line"/>
      <point x="391.5" y="1964" type="line"/>
    </contour>
    <contour>
      <point x="212.0" y="0" type="line"/>
      <point x="1190.0" y="0" type="line"/>
      <point x="1190.0" y="227" type="line"/>
      <point x="509.0" y="227" type="line"/>
      <point x="509.0" y="646" type="line"/>
      <point x="1103.0" y="646" type="line"/>
      <point x="1103.0" y="860" type="line"/>
      <point x="509.0" y="860" type="line"/>
      <point x="509.0" y="1249" type="line"/>
      <point x="1179.0" y="1249" type="line"/>
      <point x="1179.0" y="1477" type="line"/>
      <point x="212.0" y="1477" type="line"/>
    </contour>
  </outline>
</glyph>
